<?xml version="1.0"?>
<!-- Created by MetaPost 1.9991 on 2022.02.17:1529 -->
<svg version="1.1" xmlns="http://www.w3.org/2000/svg" xmlns:xlink="http://www.w3.org/1999/xlink" width="101.472336" height="107.612579" viewBox="0 0 101.472336 107.612579">
<!-- Original BoundingBox: -0.277725 -0.277725 101.194611 107.334854 -->
  <path d="M18.921921 68.272659L8.409668 73.528778L17.607880 82.727005" style="stroke:rgb(0.000000%,0.000000%,0.000000%); stroke-width: 2.331253;stroke-linecap: round;stroke-linejoin: round;stroke-miterlimit: 10.000000;fill: none;"></path>
  <path d="M8.409668 52.504288L8.427307 52.504288L8.479599 52.486969L8.584824 52.469330L8.742661 52.434357L8.987762 52.364426L9.285797 52.294159L9.706055 52.206589L10.196884 52.101364L10.809952 51.961166L11.510925 51.803650L12.334122 51.610840L13.245209 51.400711L14.278854 51.172943L15.400406 50.927521L16.609207 50.664780L17.905594 50.384399L19.272232 50.086685L20.709137 49.771332L22.215652 49.455978L23.740128 49.122971L25.316910 48.789978L26.928650 48.457291L28.540710 48.124298L30.170090 47.791306L31.781830 47.475952L33.393890 47.143265L34.987991 46.845230L36.565079 46.529877L38.106888 46.249817L39.631042 45.969437L41.102600 45.706680L42.556824 45.461273L43.958435 45.215851L45.325073 44.988083L46.639099 44.777954L47.918167 44.585144L49.162262 44.409973L50.371063 44.252457L51.527267 44.112274L52.648804 43.972076L53.752380 43.849213L54.803680 43.761627L55.819992 43.674042L56.818680 43.604111L57.764740 43.533859L58.710800 43.498886L59.621902 43.463913L60.497696 43.463913L61.373825 43.463913L62.214981 43.463913L63.038177 43.498886L63.861694 43.533859L64.650238 43.604111L65.456116 43.656723L66.227020 43.744308L67.155762 43.849213L68.084183 43.989395L68.995270 44.147232L69.906372 44.304749L70.799820 44.497559L71.693268 44.690369L72.569397 44.918137L73.445526 45.163239L74.304001 45.426300L75.162491 45.689041L76.003326 45.986755L76.844482 46.302109L77.667999 46.635101L78.473877 46.985428L79.279739 47.353394L80.050644 47.739014L80.821548 48.141937L81.574799 48.562195L82.310745 48.982788L83.029022 49.438324L83.729996 49.893875L84.413315 50.367065L85.061356 50.839935L85.692062 51.348099L86.305450 51.838623L86.883545 52.346771L87.444305 52.872253L87.969803 53.398071L88.460312 53.923553L88.933502 54.466675L89.371414 54.992477L89.791992 55.535614L90.177277 56.078735L90.527924 56.621872L90.843277 57.164993L91.140991 57.708130L91.403732 58.251251L91.631500 58.776733L91.841949 59.319870L92.017120 59.845352L92.174637 60.388474L92.297501 60.914276L92.385086 61.439774L92.455017 61.965576L92.489990 62.491058L92.507629 63.016541L92.489990 63.542343L92.455017 64.067825L92.385086 64.593628L92.297501 65.119110L92.174637 65.644608L92.017120 66.187729L91.841949 66.713531L91.631500 67.256668L91.403732 67.782150L91.140991 68.325272L90.843277 68.868408L90.527924 69.411530L90.177277 69.954666L89.791992 70.497787L89.371414 71.040909L88.933502 71.566727L88.460312 72.109848L87.969803 72.635330L87.444305 73.161133L86.883545 73.686615L86.305450 74.194778L85.692062 74.685303L85.061356 75.193451L84.413315 75.666336L83.729996 76.139526L83.029022 76.595062L82.310745 77.050613L81.574799 77.470871L80.821548 77.891449L80.050644 78.294388L79.279739 78.680008L78.473877 79.047974L77.667999 79.398285L76.844482 79.731293L76.003326 80.046646L75.162491 80.344360L74.304001 80.607101L73.445526 80.869843L72.569397 81.115265L71.693268 81.343033L70.799820 81.535843L69.906372 81.728638L68.995270 81.886154L68.084183 82.043991L67.155762 82.183868L66.227020 82.289093L65.456116 82.376678L64.650238 82.429291L63.861694 82.499542L63.038177 82.534515L62.214981 82.569489L61.373825 82.569489L60.497696 82.569489L59.621902 82.569489L58.710800 82.534515L57.764740 82.499542L56.818680 82.429291L55.819992 82.359360L54.803680 82.271774L53.752380 82.183868L52.648804 82.061325L51.527267 81.921127L50.371063 81.780930L49.162262 81.623413L47.918167 81.448257L46.639099 81.255447L45.325073 81.045319L43.958435 80.817551L42.556824 80.572128L41.102600 80.326706L39.631042 80.063965L38.106888 79.783585L36.565079 79.503510L34.987991 79.188156L33.393890 78.890137L31.781830 78.557449L30.170090 78.241776L28.540710 77.909103L26.928650 77.576096L25.316910 77.243423L23.740128 76.910431L22.215652 76.577423L20.709137 76.262070L19.272232 75.946716L17.905594 75.649002L16.609207 75.368622L15.400406 75.105881L14.278854 74.860458L13.245209 74.632690L12.334122 74.422562L11.510925 74.229752L10.809952 74.071915L10.196884 73.932037L9.706055 73.826813L9.285797 73.739227L8.987762 73.668976L8.742661 73.599045L8.584824 73.564072L8.479599 73.546432L8.427307 73.528778L8.409668 73.528778" style="stroke:rgb(0.000000%,0.000000%,0.000000%); stroke-width: 2.331253;stroke-linecap: round;stroke-linejoin: round;stroke-miterlimit: 10.000000;fill: none;"></path>
  <path d="M0.000000 107.000000L100.916885 107.000000" style="stroke:rgb(0.000000%,0.000000%,0.000000%); stroke-width: 0.555435;stroke-linecap: square;stroke-linejoin: round;stroke-miterlimit: 10.000000;fill: none;"></path>
  <path d="M0.000000 -0.057129L100.916885 -0.057129" style="stroke:rgb(0.000000%,0.000000%,0.000000%); stroke-width: 0.555435;stroke-linecap: square;stroke-linejoin: round;stroke-miterlimit: 10.000000;fill: none;"></path>
  <path d="M0.000000 107.000000L100.916885 107.000000" style="stroke:rgb(0.000000%,0.000000%,0.000000%); stroke-width: 0.555435;stroke-linecap: square;stroke-linejoin: round;stroke-miterlimit: 10.000000;fill: none;"></path>
  <path d="M0.000000 107.000000L0.000000 -0.057129" style="stroke:rgb(0.000000%,0.000000%,0.000000%); stroke-width: 0.555435;stroke-linecap: square;stroke-linejoin: round;stroke-miterlimit: 10.000000;fill: none;"></path>
  <path d="M100.916885 107.000000L100.916885 -0.057129" style="stroke:rgb(0.000000%,0.000000%,0.000000%); stroke-width: 0.555435;stroke-linecap: square;stroke-linejoin: round;stroke-miterlimit: 10.000000;fill: none;"></path>
</svg>
