<?xml version="1.0"?>
<!-- Created by MetaPost 1.9991 on 2022.02.18:1311 -->
<svg version="1.1" xmlns="http://www.w3.org/2000/svg" xmlns:xlink="http://www.w3.org/1999/xlink" width="86.42923" height="41.59436" viewBox="7.244034 23.107361 86.42923 64.701721">
<!-- Original BoundingBox: 7.244034 23.107361 93.673264 64.701721 -->
  <path d="M81.995392 25.272659L92.507629 30.528778L83.309418 39.727005" style="stroke:rgb(0.000000%,0.000000%,0.000000%); stroke-width: 2.331253;stroke-linecap: round;stroke-linejoin: round;stroke-miterlimit: 10.000000;fill: none;"></path>
  <path d="M92.507629 9.504288L92.489990 9.504288L92.437698 9.486969L92.332474 9.469330L92.174637 9.434357L91.929535 9.364426L91.631500 9.294159L91.211243 9.206589L90.720413 9.101364L90.107346 8.961166L89.406372 8.803650L88.583176 8.610840L87.672089 8.400711L86.638443 8.172943L85.516891 7.927521L84.308090 7.664780L83.011703 7.384399L81.645065 7.086685L80.208160 6.771332L78.701645 6.455978L77.177170 6.122971L75.600388 5.789978L73.988647 5.457291L72.376587 5.124298L70.747208 4.791306L69.135468 4.475952L67.523407 4.143265L65.929306 3.845230L64.352219 3.529877L62.810410 3.249817L61.286255 2.969437L59.814697 2.706680L58.360474 2.461273L56.958862 2.215851L55.592224 1.988083L54.278198 1.777954L52.999130 1.585144L51.755035 1.409973L50.546234 1.252457L49.390030 1.112274L48.268494 0.972076L47.164917 0.849213L46.113617 0.761627L45.097305 0.674042L44.098618 0.604111L43.152557 0.533859L42.206497 0.498886L41.295395 0.463913L40.419601 0.463913L39.543472 0.463913L38.702316 0.463913L37.879120 0.498886L37.055603 0.533859L36.267059 0.604111L35.461182 0.656723L34.690277 0.744308L33.761536 0.849213L32.833115 0.989395L31.922028 1.147232L31.010925 1.304749L30.117477 1.497559L29.224030 1.690369L28.347900 1.918137L27.471771 2.163239L26.613297 2.426300L25.754807 2.689041L24.913971 2.986755L24.072815 3.302109L23.249298 3.635101L22.443420 3.985428L21.637558 4.353394L20.866653 4.739014L20.095749 5.141937L19.342499 5.562195L18.606552 5.982788L17.888275 6.438324L17.187302 6.893875L16.503983 7.367065L15.855942 7.839935L15.225235 8.348099L14.611847 8.838623L14.033752 9.346771L13.472992 9.872253L12.947495 10.398071L12.456985 10.923553L11.983795 11.466675L11.545883 11.992477L11.125305 12.535614L10.740021 13.078735L10.389374 13.621872L10.074020 14.164993L9.776306 14.708130L9.513565 15.251251L9.285797 15.776733L9.075348 16.319870L8.900177 16.845352L8.742661 17.388474L8.619797 17.914276L8.532211 18.439774L8.462280 18.965576L8.427307 19.491058L8.409668 20.016541L8.427307 20.542343L8.462280 21.067825L8.532211 21.593628L8.619797 22.119110L8.742661 22.644608L8.900177 23.187729L9.075348 23.713531L9.285797 24.256668L9.513565 24.782150L9.776306 25.325272L10.074020 25.868408L10.389374 26.411530L10.740021 26.954666L11.125305 27.497787L11.545883 28.040909L11.983795 28.566727L12.456985 29.109848L12.947495 29.635330L13.472992 30.161133L14.033752 30.686615L14.611847 31.194778L15.225235 31.685303L15.855942 32.193451L16.503983 32.666336L17.187302 33.139526L17.888275 33.595062L18.606552 34.050613L19.342499 34.470871L20.095749 34.891449L20.866653 35.294388L21.637558 35.680008L22.443420 36.047974L23.249298 36.398285L24.072815 36.731293L24.913971 37.046646L25.754807 37.344360L26.613297 37.607101L27.471771 37.869843L28.347900 38.115265L29.224030 38.343033L30.117477 38.535843L31.010925 38.728638L31.922028 38.886154L32.833115 39.043991L33.761536 39.183868L34.690277 39.289093L35.461182 39.376678L36.267059 39.429291L37.055603 39.499542L37.879120 39.534515L38.702316 39.569489L39.543472 39.569489L40.419601 39.569489L41.295395 39.569489L42.206497 39.534515L43.152557 39.499542L44.098618 39.429291L45.097305 39.359360L46.113617 39.271774L47.164917 39.183868L48.268494 39.061325L49.390030 38.921127L50.546234 38.780930L51.755035 38.623413L52.999130 38.448257L54.278198 38.255447L55.592224 38.045319L56.958862 37.817551L58.360474 37.572128L59.814697 37.326706L61.286255 37.063965L62.810410 36.783585L64.352219 36.503510L65.929306 36.188156L67.523407 35.890137L69.135468 35.557449L70.747208 35.241776L72.376587 34.909103L73.988647 34.576096L75.600388 34.243423L77.177170 33.910431L78.701645 33.577423L80.208160 33.262070L81.645065 32.946716L83.011703 32.649002L84.308090 32.368622L85.516891 32.105881L86.638443 31.860458L87.672089 31.632690L88.583176 31.422562L89.406372 31.229752L90.107346 31.071915L90.720413 30.932037L91.211243 30.826813L91.631500 30.739227L91.929535 30.668976L92.174637 30.599045L92.332474 30.564072L92.437698 30.546432L92.489990 30.528778L92.507629 30.528778" style="stroke:rgb(0.000000%,0.000000%,0.000000%); stroke-width: 2.331253;stroke-linecap: round;stroke-linejoin: round;stroke-miterlimit: 10.000000;fill: none;"></path>
</svg>
