<?xml version="1.0"?>
<!-- Created by MetaPost 1.9991 on 2022.02.18:1311 -->
<svg version="1.1" xmlns="http://www.w3.org/2000/svg" xmlns:xlink="http://www.w3.org/1999/xlink" width="86.42923" height="41.59436" viewBox="7.244034 23.107361 86.42923 64.701721">
<!-- Original BoundingBox: 7.244034 23.107361 93.673264 64.701721 -->
  <path d="M18.921921 25.272659L8.409668 30.528778L17.607880 39.727005" style="stroke:rgb(0.000000%,0.000000%,0.000000%); stroke-width: 2.331253;stroke-linecap: round;stroke-linejoin: round;stroke-miterlimit: 10.000000;fill: none;"></path>
  <path d="M8.409668 9.504288L8.427307 9.504288L8.479599 9.486969L8.584824 9.469330L8.742661 9.434357L8.987762 9.364426L9.285797 9.294159L9.706055 9.206589L10.196884 9.101364L10.809952 8.961166L11.510925 8.803650L12.334122 8.610840L13.245209 8.400711L14.278854 8.172943L15.400406 7.927521L16.609207 7.664780L17.905594 7.384399L19.272232 7.086685L20.709137 6.771332L22.215652 6.455978L23.740128 6.122971L25.316910 5.789978L26.928650 5.457291L28.540710 5.124298L30.170090 4.791306L31.781830 4.475952L33.393890 4.143265L34.987991 3.845230L36.565079 3.529877L38.106888 3.249817L39.631042 2.969437L41.102600 2.706680L42.556824 2.461273L43.958435 2.215851L45.325073 1.988083L46.639099 1.777954L47.918167 1.585144L49.162262 1.409973L50.371063 1.252457L51.527267 1.112274L52.648804 0.972076L53.752380 0.849213L54.803680 0.761627L55.819992 0.674042L56.818680 0.604111L57.764740 0.533859L58.710800 0.498886L59.621902 0.463913L60.497696 0.463913L61.373825 0.463913L62.214981 0.463913L63.038177 0.498886L63.861694 0.533859L64.650238 0.604111L65.456116 0.656723L66.227020 0.744308L67.155762 0.849213L68.084183 0.989395L68.995270 1.147232L69.906372 1.304749L70.799820 1.497559L71.693268 1.690369L72.569397 1.918137L73.445526 2.163239L74.304001 2.426300L75.162491 2.689041L76.003326 2.986755L76.844482 3.302109L77.667999 3.635101L78.473877 3.985428L79.279739 4.353394L80.050644 4.739014L80.821548 5.141937L81.574799 5.562195L82.310745 5.982788L83.029022 6.438324L83.729996 6.893875L84.413315 7.367065L85.061356 7.839935L85.692062 8.348099L86.305450 8.838623L86.883545 9.346771L87.444305 9.872253L87.969803 10.398071L88.460312 10.923553L88.933502 11.466675L89.371414 11.992477L89.791992 12.535614L90.177277 13.078735L90.527924 13.621872L90.843277 14.164993L91.140991 14.708130L91.403732 15.251251L91.631500 15.776733L91.841949 16.319870L92.017120 16.845352L92.174637 17.388474L92.297501 17.914276L92.385086 18.439774L92.455017 18.965576L92.489990 19.491058L92.507629 20.016541L92.489990 20.542343L92.455017 21.067825L92.385086 21.593628L92.297501 22.119110L92.174637 22.644608L92.017120 23.187729L91.841949 23.713531L91.631500 24.256668L91.403732 24.782150L91.140991 25.325272L90.843277 25.868408L90.527924 26.411530L90.177277 26.954666L89.791992 27.497787L89.371414 28.040909L88.933502 28.566727L88.460312 29.109848L87.969803 29.635330L87.444305 30.161133L86.883545 30.686615L86.305450 31.194778L85.692062 31.685303L85.061356 32.193451L84.413315 32.666336L83.729996 33.139526L83.029022 33.595062L82.310745 34.050613L81.574799 34.470871L80.821548 34.891449L80.050644 35.294388L79.279739 35.680008L78.473877 36.047974L77.667999 36.398285L76.844482 36.731293L76.003326 37.046646L75.162491 37.344360L74.304001 37.607101L73.445526 37.869843L72.569397 38.115265L71.693268 38.343033L70.799820 38.535843L69.906372 38.728638L68.995270 38.886154L68.084183 39.043991L67.155762 39.183868L66.227020 39.289093L65.456116 39.376678L64.650238 39.429291L63.861694 39.499542L63.038177 39.534515L62.214981 39.569489L61.373825 39.569489L60.497696 39.569489L59.621902 39.569489L58.710800 39.534515L57.764740 39.499542L56.818680 39.429291L55.819992 39.359360L54.803680 39.271774L53.752380 39.183868L52.648804 39.061325L51.527267 38.921127L50.371063 38.780930L49.162262 38.623413L47.918167 38.448257L46.639099 38.255447L45.325073 38.045319L43.958435 37.817551L42.556824 37.572128L41.102600 37.326706L39.631042 37.063965L38.106888 36.783585L36.565079 36.503510L34.987991 36.188156L33.393890 35.890137L31.781830 35.557449L30.170090 35.241776L28.540710 34.909103L26.928650 34.576096L25.316910 34.243423L23.740128 33.910431L22.215652 33.577423L20.709137 33.262070L19.272232 32.946716L17.905594 32.649002L16.609207 32.368622L15.400406 32.105881L14.278854 31.860458L13.245209 31.632690L12.334122 31.422562L11.510925 31.229752L10.809952 31.071915L10.196884 30.932037L9.706055 30.826813L9.285797 30.739227L8.987762 30.668976L8.742661 30.599045L8.584824 30.564072L8.479599 30.546432L8.427307 30.528778L8.409668 30.528778" style="stroke:rgb(0.000000%,0.000000%,0.000000%); stroke-width: 2.331253;stroke-linecap: round;stroke-linejoin: round;stroke-miterlimit: 10.000000;fill: none;"></path>
</svg>
