<?xml version="1.0"?>
<!-- Created by MetaPost 1.9991 on 2022.02.17:1529 -->
<svg version="1.1" xmlns="http://www.w3.org/2000/svg" xmlns:xlink="http://www.w3.org/1999/xlink" width="101.472336" height="107.612579" viewBox="0 0 101.472336 107.612579">
<!-- Original BoundingBox: -0.277725 -0.277725 101.194611 107.334854 -->
  <path d="M81.995392 68.272659L92.507629 73.528778L83.309418 82.727005" style="stroke:rgb(0.000000%,0.000000%,0.000000%); stroke-width: 2.331253;stroke-linecap: round;stroke-linejoin: round;stroke-miterlimit: 10.000000;fill: none;"></path>
  <path d="M92.507629 52.504288L92.489990 52.504288L92.437698 52.486969L92.332474 52.469330L92.174637 52.434357L91.929535 52.364426L91.631500 52.294159L91.211243 52.206589L90.720413 52.101364L90.107346 51.961166L89.406372 51.803650L88.583176 51.610840L87.672089 51.400711L86.638443 51.172943L85.516891 50.927521L84.308090 50.664780L83.011703 50.384399L81.645065 50.086685L80.208160 49.771332L78.701645 49.455978L77.177170 49.122971L75.600388 48.789978L73.988647 48.457291L72.376587 48.124298L70.747208 47.791306L69.135468 47.475952L67.523407 47.143265L65.929306 46.845230L64.352219 46.529877L62.810410 46.249817L61.286255 45.969437L59.814697 45.706680L58.360474 45.461273L56.958862 45.215851L55.592224 44.988083L54.278198 44.777954L52.999130 44.585144L51.755035 44.409973L50.546234 44.252457L49.390030 44.112274L48.268494 43.972076L47.164917 43.849213L46.113617 43.761627L45.097305 43.674042L44.098618 43.604111L43.152557 43.533859L42.206497 43.498886L41.295395 43.463913L40.419601 43.463913L39.543472 43.463913L38.702316 43.463913L37.879120 43.498886L37.055603 43.533859L36.267059 43.604111L35.461182 43.656723L34.690277 43.744308L33.761536 43.849213L32.833115 43.989395L31.922028 44.147232L31.010925 44.304749L30.117477 44.497559L29.224030 44.690369L28.347900 44.918137L27.471771 45.163239L26.613297 45.426300L25.754807 45.689041L24.913971 45.986755L24.072815 46.302109L23.249298 46.635101L22.443420 46.985428L21.637558 47.353394L20.866653 47.739014L20.095749 48.141937L19.342499 48.562195L18.606552 48.982788L17.888275 49.438324L17.187302 49.893875L16.503983 50.367065L15.855942 50.839935L15.225235 51.348099L14.611847 51.838623L14.033752 52.346771L13.472992 52.872253L12.947495 53.398071L12.456985 53.923553L11.983795 54.466675L11.545883 54.992477L11.125305 55.535614L10.740021 56.078735L10.389374 56.621872L10.074020 57.164993L9.776306 57.708130L9.513565 58.251251L9.285797 58.776733L9.075348 59.319870L8.900177 59.845352L8.742661 60.388474L8.619797 60.914276L8.532211 61.439774L8.462280 61.965576L8.427307 62.491058L8.409668 63.016541L8.427307 63.542343L8.462280 64.067825L8.532211 64.593628L8.619797 65.119110L8.742661 65.644608L8.900177 66.187729L9.075348 66.713531L9.285797 67.256668L9.513565 67.782150L9.776306 68.325272L10.074020 68.868408L10.389374 69.411530L10.740021 69.954666L11.125305 70.497787L11.545883 71.040909L11.983795 71.566727L12.456985 72.109848L12.947495 72.635330L13.472992 73.161133L14.033752 73.686615L14.611847 74.194778L15.225235 74.685303L15.855942 75.193451L16.503983 75.666336L17.187302 76.139526L17.888275 76.595062L18.606552 77.050613L19.342499 77.470871L20.095749 77.891449L20.866653 78.294388L21.637558 78.680008L22.443420 79.047974L23.249298 79.398285L24.072815 79.731293L24.913971 80.046646L25.754807 80.344360L26.613297 80.607101L27.471771 80.869843L28.347900 81.115265L29.224030 81.343033L30.117477 81.535843L31.010925 81.728638L31.922028 81.886154L32.833115 82.043991L33.761536 82.183868L34.690277 82.289093L35.461182 82.376678L36.267059 82.429291L37.055603 82.499542L37.879120 82.534515L38.702316 82.569489L39.543472 82.569489L40.419601 82.569489L41.295395 82.569489L42.206497 82.534515L43.152557 82.499542L44.098618 82.429291L45.097305 82.359360L46.113617 82.271774L47.164917 82.183868L48.268494 82.061325L49.390030 81.921127L50.546234 81.780930L51.755035 81.623413L52.999130 81.448257L54.278198 81.255447L55.592224 81.045319L56.958862 80.817551L58.360474 80.572128L59.814697 80.326706L61.286255 80.063965L62.810410 79.783585L64.352219 79.503510L65.929306 79.188156L67.523407 78.890137L69.135468 78.557449L70.747208 78.241776L72.376587 77.909103L73.988647 77.576096L75.600388 77.243423L77.177170 76.910431L78.701645 76.577423L80.208160 76.262070L81.645065 75.946716L83.011703 75.649002L84.308090 75.368622L85.516891 75.105881L86.638443 74.860458L87.672089 74.632690L88.583176 74.422562L89.406372 74.229752L90.107346 74.071915L90.720413 73.932037L91.211243 73.826813L91.631500 73.739227L91.929535 73.668976L92.174637 73.599045L92.332474 73.564072L92.437698 73.546432L92.489990 73.528778L92.507629 73.528778" style="stroke:rgb(0.000000%,0.000000%,0.000000%); stroke-width: 2.331253;stroke-linecap: round;stroke-linejoin: round;stroke-miterlimit: 10.000000;fill: none;"></path>
  <path d="M0.000000 107.000000L100.916885 107.000000" style="stroke:rgb(0.000000%,0.000000%,0.000000%); stroke-width: 0.555435;stroke-linecap: square;stroke-linejoin: round;stroke-miterlimit: 10.000000;fill: none;"></path>
  <path d="M0.000000 -0.057129L100.916885 -0.057129" style="stroke:rgb(0.000000%,0.000000%,0.000000%); stroke-width: 0.555435;stroke-linecap: square;stroke-linejoin: round;stroke-miterlimit: 10.000000;fill: none;"></path>
  <path d="M0.000000 107.000000L100.916885 107.000000" style="stroke:rgb(0.000000%,0.000000%,0.000000%); stroke-width: 0.555435;stroke-linecap: square;stroke-linejoin: round;stroke-miterlimit: 10.000000;fill: none;"></path>
  <path d="M0.000000 107.000000L0.000000 -0.057129" style="stroke:rgb(0.000000%,0.000000%,0.000000%); stroke-width: 0.555435;stroke-linecap: square;stroke-linejoin: round;stroke-miterlimit: 10.000000;fill: none;"></path>
  <path d="M100.916885 107.000000L100.916885 -0.057129" style="stroke:rgb(0.000000%,0.000000%,0.000000%); stroke-width: 0.555435;stroke-linecap: square;stroke-linejoin: round;stroke-miterlimit: 10.000000;fill: none;"></path>
</svg>
