<?xml version="1.0"?>
<!-- Created by MetaPost 1.9991 on 2022.02.17:1529 -->
<svg version="1.1" xmlns="http://www.w3.org/2000/svg" xmlns:xlink="http://www.w3.org/1999/xlink" width="101.472336" height="107.612579" viewBox="0 0 101.472336 107.612579">
<!-- Original BoundingBox: -0.277725 -0.277725 101.194611 107.334854 -->
  <path d="M8.409668 20.967560L8.409668 105.065521" style="stroke:rgb(0.000000%,0.000000%,0.000000%); stroke-width: 4.363632;stroke-linecap: round;stroke-linejoin: round;stroke-miterlimit: 10.000000;fill: none;"></path>
  <path d="M92.507629 20.967560L92.507629 105.065521" style="stroke:rgb(0.000000%,0.000000%,0.000000%); stroke-width: 4.363632;stroke-linecap: round;stroke-linejoin: round;stroke-miterlimit: 10.000000;fill: none;"></path>
  <path d="M18.921921 105.065521L18.921921 105.030548L18.921921 104.977936L18.939560 104.873032L18.956879 104.680222L18.991852 104.434814L19.027145 104.084488L19.079758 103.663910L19.149689 103.156067L19.219620 102.560333L19.324844 101.876999L19.430069 101.123428L19.570267 100.317551L19.727783 99.459076L19.885620 98.565628L20.078110 97.636887L20.270905 96.690826L20.498688 95.744751L20.726456 94.798691L20.989197 93.870270L21.252258 92.941528L21.549973 92.048080L21.847687 91.154312L22.163040 90.295822L22.513687 89.454987L22.881653 88.649124L23.266937 87.843246L23.669876 87.072342L24.108093 86.301437L24.563324 85.565506L25.054169 84.811935L25.561996 84.093643L26.122772 83.358032L26.700867 82.622101L27.331573 81.903809L27.997574 81.167877L28.698227 80.414612L29.434158 79.661041L29.977280 79.117905L30.538055 78.574783L31.133484 78.031647L31.729218 77.470871L32.359924 76.892776L33.008286 76.332321L33.673965 75.736588L34.357285 75.140839L35.058243 74.545105L35.794189 73.932037L36.529800 73.318649L37.300705 72.687943L38.089249 72.039597L38.877792 71.391556L39.700989 70.743210L40.542145 70.077530L41.382980 69.411530L42.241470 68.728210L43.135239 68.045212L44.011047 67.344238L44.922134 66.643280L45.833237 65.942627L46.744324 65.241669L47.672745 64.523376L48.601486 63.822723L49.529907 63.104446L50.458649 62.385834L51.387390 61.667542L52.315811 60.966888L53.244553 60.248611L54.172974 59.547638L55.084061 58.847000L55.995163 58.146027L56.906250 57.445068L57.782059 56.762054L58.675827 56.078735L59.534317 55.395416L60.375153 54.729416L61.216309 54.081390L62.039505 53.415390L62.828049 52.784683L63.616592 52.153976L64.387497 51.523254L65.123108 50.910202L65.859055 50.314453L66.560013 49.718719L67.243332 49.122971L67.909012 48.544876L68.557373 47.984100L69.188080 47.423660L69.783813 46.880524L70.379242 46.337402L70.940018 45.811584L71.483139 45.286102L72.219070 44.532532L72.919724 43.814240L73.585724 43.095947L74.216431 42.377655L74.794525 41.676697L75.355301 40.958405L75.863129 40.257751L76.353973 39.539474L76.809204 38.820862L77.247421 38.085251L77.650360 37.331665L78.035645 36.578415L78.403610 35.789856L78.754257 34.983994L79.069611 34.178116L79.367325 33.319641L79.665039 32.461151L79.928101 31.585022L80.190842 30.691574L80.418610 29.798126L80.646393 28.904358L80.839188 28.010910L81.031677 27.117447L81.189514 26.276291L81.347031 25.452774L81.487228 24.682190L81.592453 23.981232L81.697678 23.332870L81.767609 22.772430L81.837540 22.281586L81.890152 21.878647L81.925446 21.563293L81.960419 21.318207L81.977737 21.160370L81.995392 21.055466L81.995392 20.985199L81.995392 20.967560" style="stroke:rgb(0.000000%,0.000000%,0.000000%); stroke-width: 4.363632;stroke-linecap: round;stroke-linejoin: round;stroke-miterlimit: 10.000000;fill: none;"></path>
  <path d="M0.000000 107.000000L100.916885 107.000000" style="stroke:rgb(0.000000%,0.000000%,0.000000%); stroke-width: 0.555435;stroke-linecap: square;stroke-linejoin: round;stroke-miterlimit: 10.000000;fill: none;"></path>
  <path d="M0.000000 -0.057129L100.916885 -0.057129" style="stroke:rgb(0.000000%,0.000000%,0.000000%); stroke-width: 0.555435;stroke-linecap: square;stroke-linejoin: round;stroke-miterlimit: 10.000000;fill: none;"></path>
  <path d="M0.000000 107.000000L100.916885 107.000000" style="stroke:rgb(0.000000%,0.000000%,0.000000%); stroke-width: 0.555435;stroke-linecap: square;stroke-linejoin: round;stroke-miterlimit: 10.000000;fill: none;"></path>
  <path d="M0.000000 107.000000L0.000000 -0.057129" style="stroke:rgb(0.000000%,0.000000%,0.000000%); stroke-width: 0.555435;stroke-linecap: square;stroke-linejoin: round;stroke-miterlimit: 10.000000;fill: none;"></path>
  <path d="M100.916885 107.000000L100.916885 -0.057129" style="stroke:rgb(0.000000%,0.000000%,0.000000%); stroke-width: 0.555435;stroke-linecap: square;stroke-linejoin: round;stroke-miterlimit: 10.000000;fill: none;"></path>
</svg>
