<?xml version="1.0"?>
<!-- Created by MetaPost 1.9991 on 2022.02.18:1311 -->
<svg version="1.1" xmlns="http://www.w3.org/2000/svg" xmlns:xlink="http://www.w3.org/1999/xlink" width="88.461609" height="88.461609" viewBox="6.227844 -0.247345 88.461609 88.461609">
<!-- Original BoundingBox: 6.227844 -0.247345 94.689453 88.214264 -->
  <path d="M8.409668 1.967560L8.409668 86.065521" style="stroke:rgb(0.000000%,0.000000%,0.000000%); stroke-width: 4.363632;stroke-linecap: round;stroke-linejoin: round;stroke-miterlimit: 10.000000;fill: none;"></path>
  <path d="M92.507629 1.967560L92.507629 86.065521" style="stroke:rgb(0.000000%,0.000000%,0.000000%); stroke-width: 4.363632;stroke-linecap: round;stroke-linejoin: round;stroke-miterlimit: 10.000000;fill: none;"></path>
  <path d="M18.921921 86.065521L18.921921 86.030548L18.921921 85.977936L18.939560 85.873032L18.956879 85.680222L18.991852 85.434814L19.027145 85.084488L19.079758 84.663910L19.149689 84.156067L19.219620 83.560333L19.324844 82.876999L19.430069 82.123428L19.570267 81.317551L19.727783 80.459076L19.885620 79.565628L20.078110 78.636887L20.270905 77.690826L20.498688 76.744751L20.726456 75.798691L20.989197 74.870270L21.252258 73.941528L21.549973 73.048080L21.847687 72.154312L22.163040 71.295822L22.513687 70.454987L22.881653 69.649124L23.266937 68.843246L23.669876 68.072342L24.108093 67.301437L24.563324 66.565506L25.054169 65.811935L25.561996 65.093643L26.122772 64.358032L26.700867 63.622101L27.331573 62.903809L27.997574 62.167877L28.698227 61.414612L29.434158 60.661041L29.977280 60.117905L30.538055 59.574783L31.133484 59.031647L31.729218 58.470871L32.359924 57.892776L33.008286 57.332321L33.673965 56.736588L34.357285 56.140839L35.058243 55.545105L35.794189 54.932037L36.529800 54.318649L37.300705 53.687943L38.089249 53.039597L38.877792 52.391556L39.700989 51.743210L40.542145 51.077530L41.382980 50.411530L42.241470 49.728210L43.135239 49.045212L44.011047 48.344238L44.922134 47.643280L45.833237 46.942627L46.744324 46.241669L47.672745 45.523376L48.601486 44.822723L49.529907 44.104446L50.458649 43.385834L51.387390 42.667542L52.315811 41.966888L53.244553 41.248611L54.172974 40.547638L55.084061 39.847000L55.995163 39.146027L56.906250 38.445068L57.782059 37.762054L58.675827 37.078735L59.534317 36.395416L60.375153 35.729416L61.216309 35.081390L62.039505 34.415390L62.828049 33.784683L63.616592 33.153976L64.387497 32.523254L65.123108 31.910202L65.859055 31.314453L66.560013 30.718719L67.243332 30.122971L67.909012 29.544876L68.557373 28.984100L69.188080 28.423660L69.783813 27.880524L70.379242 27.337402L70.940018 26.811584L71.483139 26.286102L72.219070 25.532532L72.919724 24.814240L73.585724 24.095947L74.216431 23.377655L74.794525 22.676697L75.355301 21.958405L75.863129 21.257751L76.353973 20.539474L76.809204 19.820862L77.247421 19.085251L77.650360 18.331665L78.035645 17.578415L78.403610 16.789856L78.754257 15.983994L79.069611 15.178116L79.367325 14.319641L79.665039 13.461151L79.928101 12.585022L80.190842 11.691574L80.418610 10.798126L80.646393 9.904358L80.839188 9.010910L81.031677 8.117447L81.189514 7.276291L81.347031 6.452774L81.487228 5.682190L81.592453 4.981232L81.697678 4.332870L81.767609 3.772430L81.837540 3.281586L81.890152 2.878647L81.925446 2.563293L81.960419 2.318207L81.977737 2.160370L81.995392 2.055466L81.995392 1.985199L81.995392 1.967560" style="stroke:rgb(0.000000%,0.000000%,0.000000%); stroke-width: 4.363632;stroke-linecap: round;stroke-linejoin: round;stroke-miterlimit: 10.000000;fill: none;"></path>
</svg>
