<?xml version="1.0"?>
<!-- Created by MetaPost 1.9991 on 2022.02.17:1529 -->
<svg version="1.1" xmlns="http://www.w3.org/2000/svg" xmlns:xlink="http://www.w3.org/1999/xlink" width="101.472336" height="130.121857" viewBox="0 0 101.472336 130.121857">
<!-- Original BoundingBox: -0.277725 -22.787003 101.194611 107.334854 -->
  <path d="M15.242569 94.570923L32.833115 94.570923L32.833115 129.787003L15.242569 129.787003L15.242569 94.570923Z" style="stroke:rgb(0.000000%,0.000000%,0.000000%); stroke-width: 0.000000;fill: rgb(0.000000%,0.000000%,0.000000%);"></path>
  <path d="M50.336105 113.212769L49.827942 127.491943L50.896545 127.491943L50.336105 113.720612L50.336105 113.212769Z" style="stroke:rgb(0.000000%,0.000000%,0.000000%); stroke-width: 0.000000;fill: rgb(0.000000%,0.000000%,0.000000%);"></path>
  <path d="M68.049210 94.570923L85.674728 94.570923L85.674728 129.787003L68.049210 129.787003L68.049210 94.570923Z" style="stroke:rgb(0.000000%,0.000000%,0.000000%); stroke-width: 0.000000;fill: rgb(0.000000%,0.000000%,0.000000%);"></path>
  <path d="M50.336105 119.239792L57.501999 120.343369L56.906250 117.557800L65.140762 113.212769L63.511368 112.126511L64.615280 107.168091L61.303894 107.728867L59.709473 106.046875L55.837326 109.971313L56.906250 101.123428L54.190613 102.805420L50.336105 97.882309L46.516556 102.805420L43.748306 101.123428L44.869522 109.971313L40.997696 106.046875L39.420914 107.728867L36.109543 107.168091L37.195801 112.126511L35.548767 113.212769L43.748306 117.557800L43.222824 120.343369L50.336105 119.239792Z" style="stroke:rgb(0.000000%,0.000000%,0.000000%); stroke-width: 0.000000;fill: rgb(0.000000%,0.000000%,0.000000%);"></path>
  <path d="M0.000000 107.000000L100.916885 107.000000" style="stroke:rgb(0.000000%,0.000000%,0.000000%); stroke-width: 0.555435;stroke-linecap: square;stroke-linejoin: round;stroke-miterlimit: 10.000000;fill: none;"></path>
  <path d="M0.000000 -0.057129L100.916885 -0.057129" style="stroke:rgb(0.000000%,0.000000%,0.000000%); stroke-width: 0.555435;stroke-linecap: square;stroke-linejoin: round;stroke-miterlimit: 10.000000;fill: none;"></path>
  <path d="M0.000000 107.000000L100.916885 107.000000" style="stroke:rgb(0.000000%,0.000000%,0.000000%); stroke-width: 0.555435;stroke-linecap: square;stroke-linejoin: round;stroke-miterlimit: 10.000000;fill: none;"></path>
  <path d="M0.000000 107.000000L0.000000 -0.057129" style="stroke:rgb(0.000000%,0.000000%,0.000000%); stroke-width: 0.555435;stroke-linecap: square;stroke-linejoin: round;stroke-miterlimit: 10.000000;fill: none;"></path>
  <path d="M100.916885 107.000000L100.916885 -0.057129" style="stroke:rgb(0.000000%,0.000000%,0.000000%); stroke-width: 0.555435;stroke-linecap: square;stroke-linejoin: round;stroke-miterlimit: 10.000000;fill: none;"></path>
</svg>
