<?xml version="1.0"?>
<!-- Created by MetaPost 1.9991 on 2022.02.18:1311 -->
<svg version="1.1" xmlns="http://www.w3.org/2000/svg" xmlns:xlink="http://www.w3.org/1999/xlink" width="70.432159" height="35.21608" viewBox="15.242569 -22.787003 70.432159 35.216080">
<!-- Original BoundingBox: 15.242569 -22.787003 85.674728 12.429077 -->
  <path d="M15.242569 -0.429077L32.833115 -0.429077L32.833115 34.787003L15.242569 34.787003L15.242569 -0.429077Z" style="stroke:rgb(0.000000%,0.000000%,0.000000%); stroke-width: 0.000000;fill: rgb(0.000000%,0.000000%,0.000000%);"></path>
  <path d="M50.336105 18.212769L49.827942 32.491943L50.896545 32.491943L50.336105 18.720612L50.336105 18.212769Z" style="stroke:rgb(0.000000%,0.000000%,0.000000%); stroke-width: 0.000000;fill: rgb(0.000000%,0.000000%,0.000000%);"></path>
  <path d="M68.049210 -0.429077L85.674728 -0.429077L85.674728 34.787003L68.049210 34.787003L68.049210 -0.429077Z" style="stroke:rgb(0.000000%,0.000000%,0.000000%); stroke-width: 0.000000;fill: rgb(0.000000%,0.000000%,0.000000%);"></path>
  <path d="M50.336105 24.239792L57.501999 25.343369L56.906250 22.557800L65.140762 18.212769L63.511368 17.126511L64.615280 12.168091L61.303894 12.728867L59.709473 11.046875L55.837326 14.971313L56.906250 6.123428L54.190613 7.805420L50.336105 2.882309L46.516556 7.805420L43.748306 6.123428L44.869522 14.971313L40.997696 11.046875L39.420914 12.728867L36.109543 12.168091L37.195801 17.126511L35.548767 18.212769L43.748306 22.557800L43.222824 25.343369L50.336105 24.239792Z" style="stroke:rgb(0.000000%,0.000000%,0.000000%); stroke-width: 0.000000;fill: rgb(0.000000%,0.000000%,0.000000%);"></path>
</svg>
