<?xml version="1.0"?>
<!-- Created by MetaPost 1.9991 on 2022.02.17:1529 -->
<svg version="1.1" xmlns="http://www.w3.org/2000/svg" xmlns:xlink="http://www.w3.org/1999/xlink" width="101.472336" height="107.612579" viewBox="0 0 101.472336 107.612579">
<!-- Original BoundingBox: -0.277725 -0.277725 101.194611 107.334854 -->
  <path d="M32.938354 104.347229L32.938354 104.294617L32.938354 104.189713L32.920700 104.014557L32.903061 103.716522L32.885727 103.331223L32.868088 102.823074L32.850769 102.244980L32.815475 101.578979L32.798157 100.860687L32.780502 100.125076L32.763184 99.354172L32.763184 98.600586L32.763184 97.864655L32.763184 97.164017L32.780502 96.498337L32.798157 95.867310L32.833115 95.254242L32.885727 94.693466L32.938354 94.167984L32.990967 93.677475L33.078537 93.186951L33.166122 92.731400L33.271027 92.293182L33.376251 91.855270L33.516449 91.434692L33.656631 90.979156L33.831802 90.523605L34.006958 90.068054L34.199768 89.595184L34.392578 89.139633L34.585052 88.684082L34.795502 88.228546L35.005630 87.790634L35.198441 87.352417L35.391251 86.914505L35.566406 86.493927L35.723923 86.090988L35.864120 85.688065L35.969345 85.320099L36.074249 84.987411L36.126862 84.672058L36.162155 84.374023L36.144501 84.111282L36.109543 83.865875L36.021957 83.655731L35.916733 83.480576L35.758896 83.340378L35.548767 83.200195L35.303345 83.112610L35.058243 83.042679L34.760223 83.007385L34.444870 82.972412L34.077209 82.972412L33.691605 82.972412L33.253708 82.972412L32.798157 83.007385L32.289993 83.025024L31.764511 83.059998L31.203735 83.112610L30.625641 83.147583L30.029892 83.200195L29.399185 83.252808L28.750839 83.287766L28.102478 83.322739L27.454453 83.358032L26.788452 83.375351L26.140427 83.392990L25.474426 83.392990L24.843719 83.375351L24.212997 83.340378L23.582291 83.287766L22.986557 83.235153L22.408463 83.147583L21.847687 83.042679L21.304550 82.919800L20.779068 82.762283L20.288559 82.587128L19.850647 82.411652L19.430069 82.219162L19.027145 81.991379L18.641525 81.745972L18.256241 81.483231L17.870621 81.185516L17.520309 80.869843L17.152328 80.537155L16.802017 80.186844L16.469009 79.801224L16.136017 79.398285L15.820663 78.960388L15.522949 78.522171L15.225235 78.066620L14.944855 77.576096L14.682114 77.085587L14.436691 76.577423L14.208923 76.051941L13.981140 75.526138L13.788345 75.000656L13.595856 74.457520L13.420380 73.932037L13.280502 73.388916L13.140305 72.845779L13.017441 72.302658L12.912537 71.759521L12.824951 71.233719L12.737045 70.708237L12.684753 70.165115L12.632141 69.656952L12.597183 69.131470L12.579529 68.605667L12.561890 68.080170L12.561890 67.572021L12.561890 67.046539L12.597183 66.503403L12.632141 65.960281L12.684753 65.417145L12.737045 64.873703L12.824951 64.313248L12.912537 63.735153L13.035080 63.156738L13.157623 62.578629L13.297821 61.982895L13.455658 61.404800L13.630829 60.809052L13.805984 60.213318L14.016113 59.617569L14.226562 59.022156L14.471664 58.443741L14.717087 57.865646L14.962173 57.287552L15.242569 56.726776L15.522949 56.166321L15.803329 55.623184L16.118698 55.080063L16.416397 54.554260L16.749405 54.046097L17.082397 53.555588L17.415070 53.065063L17.765717 52.574554L18.133362 52.119003L18.501328 51.645813L18.886948 51.190262L19.254913 50.770004L19.640198 50.349426L20.025818 49.928848L20.446075 49.508591L20.866653 49.088013L21.322205 48.667419L21.777756 48.246841L22.250946 47.826584L22.741455 47.406006L23.249298 47.003067L23.775101 46.582489L24.318222 46.161911L24.861359 45.758972L25.422134 45.356049L26.000229 44.970749L26.578323 44.567825L27.156418 44.199844L27.752167 43.831879L28.347900 43.463913L28.943649 43.113602L29.539383 42.780594L30.135132 42.465240L30.730545 42.167526L31.326279 41.869507L31.904388 41.589111L32.482803 41.326370L33.060898 41.081268L33.621674 40.853500L34.164795 40.643051L34.707932 40.450562L35.251053 40.257751L35.794189 40.082596L36.319672 39.924759L36.845154 39.784561L37.423569 39.644379L38.019302 39.504181L38.597412 39.399277L39.193146 39.294052L39.788559 39.206467L40.401947 39.136536L40.997696 39.083923L41.610764 39.048630L42.224136 39.031311L42.837204 39.031311L43.467911 39.048630L44.081299 39.083923L44.712006 39.136536L45.325073 39.206467L45.938461 39.294052L46.534195 39.399277L47.129623 39.521820L47.708038 39.644379L48.286133 39.802216L48.846909 39.959732L49.390030 40.134888L49.915527 40.327698L50.423676 40.538147L50.914200 40.748276L51.387390 40.976044L51.860260 41.203827L52.298157 41.448914L52.736389 41.711990L53.156647 41.974731L53.577225 42.255112L53.962845 42.552826L54.365768 42.850845L54.751068 43.166214L55.136673 43.498886L55.504639 43.849213L55.872604 44.217178L56.240250 44.602783L56.590897 45.005722L56.941223 45.426300L57.274216 45.864197L57.606903 46.302109L57.922256 46.775299L58.220291 47.248169L58.500671 47.739014L58.763412 48.246841L59.008514 48.755005L59.236282 49.263168L59.446732 49.788651L59.639221 50.314453L59.797058 50.839935L59.937256 51.348099L60.059799 51.873581L60.165024 52.399384L60.234955 52.907547L60.287567 53.433029L60.322540 53.941193L60.322540 54.431717L60.305222 54.939865L60.269928 55.448029L60.217636 55.938553L60.130051 56.411423L60.042160 56.884613L59.919601 57.375122L59.779419 57.848312L59.604248 58.356155L59.411438 58.881958L59.183670 59.407440L58.920929 59.968216L58.640549 60.563965L58.307861 61.177017L57.957535 61.807739L57.571930 62.491058L57.151352 63.192017L56.695801 63.927628L56.205292 64.698532L55.697128 65.487076L55.171646 66.275635L54.628510 67.098831L54.067749 67.905014L53.524612 68.675919L52.999130 69.446823L52.508606 70.147461L52.053070 70.795822L51.650131 71.356277L51.299484 71.847107L51.019424 72.232391L50.791641 72.547745L50.633804 72.757889L50.546234 72.898071L50.476288 72.968338L50.458649 73.003296" style="stroke:rgb(0.000000%,0.000000%,0.000000%); stroke-width: 4.363632;stroke-linecap: round;stroke-linejoin: round;stroke-miterlimit: 10.000000;fill: none;"></path>
  <path d="M63.686539 104.925644L63.686539 104.873032L63.668884 104.785461L63.651566 104.610291L63.633926 104.329910L63.598953 103.961945L63.563980 103.488754L63.511368 102.928299L63.458755 102.297592L63.406143 101.614258L63.353531 100.913300L63.301239 100.195007L63.248627 99.476715L63.196014 98.793396L63.161057 98.127716L63.125763 97.497009L63.108444 96.901276L63.073471 96.358139L63.073471 95.832336L63.055832 95.341827L63.055832 94.886276L63.073471 94.448364L63.073471 94.045441L63.108444 93.642502L63.125763 93.256882L63.161057 92.888916L63.213669 92.451019L63.265961 92.013107L63.336212 91.574890L63.406143 91.136993L63.493729 90.716400L63.598953 90.278503L63.704178 89.857925L63.809082 89.420029L63.931961 88.999435L64.072144 88.578857L64.212021 88.158600L64.369858 87.755661L64.510056 87.352417L64.667572 86.984772L64.825409 86.616806L64.982925 86.266159L65.158401 85.933472L65.315918 85.618118L65.473755 85.320099L65.631271 85.039703L65.806442 84.776962L65.964279 84.514221L66.174408 84.216507L66.367203 83.918488L66.594986 83.638092L66.822754 83.340378L67.085495 83.042679L67.365891 82.744644L67.663589 82.429291L67.996597 82.096283L68.346924 81.745972L68.697235 81.395645L69.065201 81.062653L69.415848 80.747284L69.713562 80.466904L69.941330 80.256775L70.116501 80.098938L70.204071 80.011353L70.256683 79.976395" style="stroke:rgb(0.000000%,0.000000%,0.000000%); stroke-width: 4.363632;stroke-linecap: round;stroke-linejoin: round;stroke-miterlimit: 10.000000;fill: none;"></path>
  <path d="M49.232193 49.210556L49.214554 49.245529L49.162262 49.333099L49.057037 49.473297L48.916840 49.701065L48.706711 49.999100L48.461304 50.384399L48.163589 50.839935L47.830582 51.365738L47.480270 51.926193L47.094650 52.504288L46.709366 53.100037L46.341400 53.695770L45.973434 54.273865L45.623108 54.852295L45.290100 55.377777L44.974747 55.903259L44.677048 56.394089L44.413986 56.849640L44.151230 57.287552L43.906143 57.725449L43.695694 58.128387L43.467911 58.531311L43.275436 58.916931L43.064987 59.319870L42.889816 59.705475L42.679688 60.143387L42.469238 60.581284L42.276749 61.019501L42.083954 61.475052L41.891144 61.930283L41.715988 62.421112L41.540817 62.911636L41.365662 63.402145L41.190491 63.910309L41.032654 64.418472L40.892471 64.943954L40.769913 65.469437L40.647369 65.977600L40.542145 66.503403L40.454559 67.011246L40.366989 67.519409L40.314377 68.009918L40.279404 68.500443L40.244110 68.973633L40.244110 69.429169L40.244110 69.884720L40.279404 70.322632L40.314377 70.760849L40.384308 71.181107L40.471893 71.601685L40.559464 72.022263L40.682343 72.442520L40.822525 72.863113L40.980042 73.283691L41.155212 73.704269L41.348007 74.142166L41.558151 74.562744L41.803558 75.000656L42.048981 75.421234L42.329041 75.841492L42.609436 76.262070L42.907471 76.665009L43.222824 77.050613L43.555496 77.435913L43.888489 77.786545L44.221497 78.136871L44.554169 78.469559L44.904816 78.784912L45.255142 79.065292L45.587814 79.345673L45.938461 79.608429L46.288788 79.853836L46.656754 80.081619L47.007080 80.291748L47.375046 80.502197L47.760651 80.694672L48.145935 80.869843L48.548874 81.045319L48.951813 81.220490L49.390030 81.378006L49.827942 81.518188L50.283493 81.658386L50.739029 81.780930L51.211914 81.903809L51.685104 82.008713L52.175613 82.096283L52.648804 82.166550L53.121674 82.236481L53.612198 82.306732L54.085388 82.341705L54.540939 82.376678L54.996475 82.411652L55.452026 82.411652L55.907578 82.429291L56.345474 82.429291L56.766068 82.411652L57.203964 82.394318L57.641861 82.359360L58.080093 82.324066L58.517990 82.289093L58.973541 82.236481L59.429092 82.183868L59.902283 82.131577L60.375153 82.061325L60.848343 81.973740L61.338867 81.886154L61.847015 81.798584L62.337540 81.710999L62.845703 81.605774L63.336212 81.500870L63.826736 81.395645L64.299927 81.273102L64.790436 81.167877L65.245987 81.045319L65.701538 80.940094L66.139435 80.817551L66.560013 80.712326L66.980270 80.589767L67.383209 80.484543L67.768814 80.362000L68.154114 80.256775L68.539719 80.151550L68.907684 80.029007L69.292984 79.923782L69.678589 79.801224L70.063889 79.661041L70.449493 79.538483L70.852432 79.380646L71.255371 79.240448L71.675949 79.065292L72.078873 78.890137L72.499466 78.697327L72.919724 78.504837L73.357941 78.277069L73.778198 78.049286L74.198776 77.821518L74.619354 77.558777L75.039948 77.295715L75.460205 77.015656L75.880783 76.735260L76.283707 76.437225L76.686646 76.121872L77.107224 75.789200L77.510162 75.456207L77.930740 75.088226L78.263428 74.790527L78.596420 74.475174L78.946747 74.142166L79.297394 73.774200L79.665039 73.406235L80.033005 73.020950L80.418610 72.618011L80.803909 72.197433L81.189514 71.759521L81.574799 71.286331L81.977737 70.813141L82.380676 70.322632L82.766281 69.814468L83.169220 69.306625L83.554840 68.780823L83.940125 68.237686L84.308090 67.694565L84.676056 67.151443L85.044022 66.608307L85.376709 66.047852L85.709702 65.504730L86.025055 64.961594L86.322769 64.418472L86.603149 63.892670L86.866211 63.367188L87.111313 62.841385L87.356735 62.315887L87.566864 61.807739L87.759674 61.282242L87.952469 60.774094L88.127640 60.230957L88.302795 59.687836L88.442993 59.127060L88.583176 58.566605L88.688080 57.988190L88.793304 57.410095L88.880890 56.832001L88.950821 56.236252L89.003433 55.640518L89.021088 55.044769L89.038727 54.449356L89.038727 53.835968L89.021088 53.240234L88.986115 52.644485L88.933502 52.049072L88.863251 51.470642L88.775665 50.910202L88.670761 50.349426L88.547897 49.806290L88.425339 49.280807L88.267822 48.772659L88.109985 48.282135L87.952469 47.826584L87.776993 47.371048L87.584503 46.932816L87.374054 46.512558L87.163925 46.126953L86.953796 45.741653L86.690735 45.338715L86.427994 44.935791L86.147598 44.550171L85.832245 44.182205L85.516891 43.814240L85.184219 43.463913L84.816254 43.113602L84.448288 42.780594L84.045349 42.447601L83.642410 42.132248L83.204193 41.816895L82.766281 41.519180L82.310745 41.238785L81.855194 40.976044L81.382324 40.730637L80.891479 40.485535L80.418610 40.275085L79.928101 40.082596L79.454910 39.889786L78.964386 39.731949L78.491196 39.574432L78.018326 39.451889L77.545135 39.329025L77.072266 39.224121L76.599075 39.136536L76.126190 39.066284L75.687973 38.996338L75.232422 38.943726L74.776871 38.908768L74.321335 38.873474L73.830811 38.856140L73.322647 38.856140L72.797165 38.856140L72.236404 38.873474L71.640976 38.891113L71.027588 38.926086L70.361908 38.978699L69.660950 39.031311L68.942657 39.101242L68.189407 39.171509L67.418503 39.241440L66.629959 39.329025L65.859055 39.416595L65.123108 39.504181L64.422470 39.591766L63.791763 39.662018L63.230988 39.749603L62.775436 39.802216L62.407471 39.854828L62.144730 39.889786L61.987213 39.907120L61.881989 39.924759L61.847015 39.924759" style="stroke:rgb(0.000000%,0.000000%,0.000000%); stroke-width: 4.363632;stroke-linecap: round;stroke-linejoin: round;stroke-miterlimit: 10.000000;fill: none;"></path>
  <path d="M0.000000 107.000000L100.916885 107.000000" style="stroke:rgb(0.000000%,0.000000%,0.000000%); stroke-width: 0.555435;stroke-linecap: square;stroke-linejoin: round;stroke-miterlimit: 10.000000;fill: none;"></path>
  <path d="M0.000000 -0.057129L100.916885 -0.057129" style="stroke:rgb(0.000000%,0.000000%,0.000000%); stroke-width: 0.555435;stroke-linecap: square;stroke-linejoin: round;stroke-miterlimit: 10.000000;fill: none;"></path>
  <path d="M0.000000 107.000000L100.916885 107.000000" style="stroke:rgb(0.000000%,0.000000%,0.000000%); stroke-width: 0.555435;stroke-linecap: square;stroke-linejoin: round;stroke-miterlimit: 10.000000;fill: none;"></path>
  <path d="M0.000000 107.000000L0.000000 -0.057129" style="stroke:rgb(0.000000%,0.000000%,0.000000%); stroke-width: 0.555435;stroke-linecap: square;stroke-linejoin: round;stroke-miterlimit: 10.000000;fill: none;"></path>
  <path d="M100.916885 107.000000L100.916885 -0.057129" style="stroke:rgb(0.000000%,0.000000%,0.000000%); stroke-width: 0.555435;stroke-linecap: square;stroke-linejoin: round;stroke-miterlimit: 10.000000;fill: none;"></path>
</svg>
