<?xml version="1.0"?>
<!-- Created by MetaPost 1.9991 on 2022.02.18:1311 -->
<svg version="1.1" xmlns="http://www.w3.org/2000/svg" xmlns:xlink="http://www.w3.org/1999/xlink" width="88.461609" height="88.461609" viewBox="6.227844 -0.247345 88.461609 88.461609">
<!-- Original BoundingBox: 6.227844 -0.247345 94.689453 88.214264 -->
  <path d="M60.970901 44.016541C60.970901 41.228394,59.863144 38.554779,57.891769 36.583405C55.920410 34.612045,53.246796 33.504288,50.458649 33.504288C47.670502 33.504288,44.996887 34.612045,43.025528 36.583405C41.054153 38.554779,39.946411 41.228394,39.946411 44.016541C39.946411 46.804688,41.054153 49.478302,43.025528 51.449661C44.996887 53.421036,47.670502 54.528778,50.458649 54.528778C53.246796 54.528778,55.920410 53.421036,57.891769 51.449661C59.863144 49.478302,60.970901 46.804688,60.970901 44.016541Z" style="stroke:rgb(0.000000%,0.000000%,0.000000%); stroke-width: 0.000000;fill: rgb(0.000000%,0.000000%,0.000000%);"></path>
  <path d="M8.409668 86.065521L92.507629 1.967560" style="stroke:rgb(0.000000%,0.000000%,0.000000%); stroke-width: 4.363632;stroke-linecap: round;stroke-linejoin: round;stroke-miterlimit: 10.000000;fill: none;"></path>
  <path d="M13.665787 22.992050L8.409668 1.967560L29.434158 7.223679" style="stroke:rgb(0.000000%,0.000000%,0.000000%); stroke-width: 4.363632;stroke-linecap: round;stroke-linejoin: round;stroke-miterlimit: 10.000000;fill: none;"></path>
  <path d="M8.409668 1.967560L92.507629 86.065521" style="stroke:rgb(0.000000%,0.000000%,0.000000%); stroke-width: 4.363632;stroke-linecap: round;stroke-linejoin: round;stroke-miterlimit: 10.000000;fill: none;"></path>
  <path d="M71.483139 7.223679L92.507629 1.967560L87.251511 22.992050" style="stroke:rgb(0.000000%,0.000000%,0.000000%); stroke-width: 4.363632;stroke-linecap: round;stroke-linejoin: round;stroke-miterlimit: 10.000000;fill: none;"></path>
</svg>
