<?xml version="1.0"?>
<!-- Created by MetaPost 1.9991 on 2022.02.18:1311 -->
<svg version="1.1" xmlns="http://www.w3.org/2000/svg" xmlns:xlink="http://www.w3.org/1999/xlink" width="91.220551" height="70.433151" viewBox="0 0 91.220551 70.433151">
<!-- Original BoundingBox: 10.380066 -0.107468 91.220551 70.325684 -->
  <path d="M32.938354 67.347229L32.938354 67.294617L32.938354 67.189713L32.920700 67.014557L32.903061 66.716522L32.885727 66.331223L32.868088 65.823074L32.850769 65.244980L32.815475 64.578979L32.798157 63.860687L32.780502 63.125076L32.763184 62.354172L32.763184 61.600586L32.763184 60.864655L32.763184 60.164017L32.780502 59.498337L32.798157 58.867310L32.833115 58.254242L32.885727 57.693466L32.938354 57.167984L32.990967 56.677475L33.078537 56.186951L33.166122 55.731400L33.271027 55.293182L33.376251 54.855270L33.516449 54.434692L33.656631 53.979156L33.831802 53.523605L34.006958 53.068054L34.199768 52.595184L34.392578 52.139633L34.585052 51.684082L34.795502 51.228546L35.005630 50.790634L35.198441 50.352417L35.391251 49.914505L35.566406 49.493927L35.723923 49.090988L35.864120 48.688065L35.969345 48.320099L36.074249 47.987411L36.126862 47.672058L36.162155 47.374023L36.144501 47.111282L36.109543 46.865875L36.021957 46.655731L35.916733 46.480576L35.758896 46.340378L35.548767 46.200195L35.303345 46.112610L35.058243 46.042679L34.760223 46.007385L34.444870 45.972412L34.077209 45.972412L33.691605 45.972412L33.253708 45.972412L32.798157 46.007385L32.289993 46.025024L31.764511 46.059998L31.203735 46.112610L30.625641 46.147583L30.029892 46.200195L29.399185 46.252808L28.750839 46.287766L28.102478 46.322739L27.454453 46.358032L26.788452 46.375351L26.140427 46.392990L25.474426 46.392990L24.843719 46.375351L24.212997 46.340378L23.582291 46.287766L22.986557 46.235153L22.408463 46.147583L21.847687 46.042679L21.304550 45.919800L20.779068 45.762283L20.288559 45.587128L19.850647 45.411652L19.430069 45.219162L19.027145 44.991379L18.641525 44.745972L18.256241 44.483231L17.870621 44.185516L17.520309 43.869843L17.152328 43.537155L16.802017 43.186844L16.469009 42.801224L16.136017 42.398285L15.820663 41.960388L15.522949 41.522171L15.225235 41.066620L14.944855 40.576096L14.682114 40.085587L14.436691 39.577423L14.208923 39.051941L13.981140 38.526138L13.788345 38.000656L13.595856 37.457520L13.420380 36.932037L13.280502 36.388916L13.140305 35.845779L13.017441 35.302658L12.912537 34.759521L12.824951 34.233719L12.737045 33.708237L12.684753 33.165115L12.632141 32.656952L12.597183 32.131470L12.579529 31.605667L12.561890 31.080170L12.561890 30.572021L12.561890 30.046539L12.597183 29.503403L12.632141 28.960281L12.684753 28.417145L12.737045 27.873703L12.824951 27.313248L12.912537 26.735153L13.035080 26.156738L13.157623 25.578629L13.297821 24.982895L13.455658 24.404800L13.630829 23.809052L13.805984 23.213318L14.016113 22.617569L14.226562 22.022156L14.471664 21.443741L14.717087 20.865646L14.962173 20.287552L15.242569 19.726776L15.522949 19.166321L15.803329 18.623184L16.118698 18.080063L16.416397 17.554260L16.749405 17.046097L17.082397 16.555588L17.415070 16.065063L17.765717 15.574554L18.133362 15.119003L18.501328 14.645813L18.886948 14.190262L19.254913 13.770004L19.640198 13.349426L20.025818 12.928848L20.446075 12.508591L20.866653 12.088013L21.322205 11.667419L21.777756 11.246841L22.250946 10.826584L22.741455 10.406006L23.249298 10.003067L23.775101 9.582489L24.318222 9.161911L24.861359 8.758972L25.422134 8.356049L26.000229 7.970749L26.578323 7.567825L27.156418 7.199844L27.752167 6.831879L28.347900 6.463913L28.943649 6.113602L29.539383 5.780594L30.135132 5.465240L30.730545 5.167526L31.326279 4.869507L31.904388 4.589111L32.482803 4.326370L33.060898 4.081268L33.621674 3.853500L34.164795 3.643051L34.707932 3.450562L35.251053 3.257751L35.794189 3.082596L36.319672 2.924759L36.845154 2.784561L37.423569 2.644379L38.019302 2.504181L38.597412 2.399277L39.193146 2.294052L39.788559 2.206467L40.401947 2.136536L40.997696 2.083923L41.610764 2.048630L42.224136 2.031311L42.837204 2.031311L43.467911 2.048630L44.081299 2.083923L44.712006 2.136536L45.325073 2.206467L45.938461 2.294052L46.534195 2.399277L47.129623 2.521820L47.708038 2.644379L48.286133 2.802216L48.846909 2.959732L49.390030 3.134888L49.915527 3.327698L50.423676 3.538147L50.914200 3.748276L51.387390 3.976044L51.860260 4.203827L52.298157 4.448914L52.736389 4.711990L53.156647 4.974731L53.577225 5.255112L53.962845 5.552826L54.365768 5.850845L54.751068 6.166214L55.136673 6.498886L55.504639 6.849213L55.872604 7.217178L56.240250 7.602783L56.590897 8.005722L56.941223 8.426300L57.274216 8.864197L57.606903 9.302109L57.922256 9.775299L58.220291 10.248169L58.500671 10.739014L58.763412 11.246841L59.008514 11.755005L59.236282 12.263168L59.446732 12.788651L59.639221 13.314453L59.797058 13.839935L59.937256 14.348099L60.059799 14.873581L60.165024 15.399384L60.234955 15.907547L60.287567 16.433029L60.322540 16.941193L60.322540 17.431717L60.305222 17.939865L60.269928 18.448029L60.217636 18.938553L60.130051 19.411423L60.042160 19.884613L59.919601 20.375122L59.779419 20.848312L59.604248 21.356155L59.411438 21.881958L59.183670 22.407440L58.920929 22.968216L58.640549 23.563965L58.307861 24.177017L57.957535 24.807739L57.571930 25.491058L57.151352 26.192017L56.695801 26.927628L56.205292 27.698532L55.697128 28.487076L55.171646 29.275635L54.628510 30.098831L54.067749 30.905014L53.524612 31.675919L52.999130 32.446823L52.508606 33.147461L52.053070 33.795822L51.650131 34.356277L51.299484 34.847107L51.019424 35.232391L50.791641 35.547745L50.633804 35.757889L50.546234 35.898071L50.476288 35.968338L50.458649 36.003296" style="stroke:rgb(0.000000%,0.000000%,0.000000%); stroke-width: 4.363632;stroke-linecap: round;stroke-linejoin: round;stroke-miterlimit: 10.000000;fill: none;"></path>
  <path d="M63.686539 67.925644L63.686539 67.873032L63.668884 67.785461L63.651566 67.610291L63.633926 67.329910L63.598953 66.961945L63.563980 66.488754L63.511368 65.928299L63.458755 65.297592L63.406143 64.614258L63.353531 63.913300L63.301239 63.195007L63.248627 62.476715L63.196014 61.793396L63.161057 61.127716L63.125763 60.497009L63.108444 59.901276L63.073471 59.358139L63.073471 58.832336L63.055832 58.341827L63.055832 57.886276L63.073471 57.448364L63.073471 57.045441L63.108444 56.642502L63.125763 56.256882L63.161057 55.888916L63.213669 55.451019L63.265961 55.013107L63.336212 54.574890L63.406143 54.136993L63.493729 53.716400L63.598953 53.278503L63.704178 52.857925L63.809082 52.420029L63.931961 51.999435L64.072144 51.578857L64.212021 51.158600L64.369858 50.755661L64.510056 50.352417L64.667572 49.984772L64.825409 49.616806L64.982925 49.266159L65.158401 48.933472L65.315918 48.618118L65.473755 48.320099L65.631271 48.039703L65.806442 47.776962L65.964279 47.514221L66.174408 47.216507L66.367203 46.918488L66.594986 46.638092L66.822754 46.340378L67.085495 46.042679L67.365891 45.744644L67.663589 45.429291L67.996597 45.096283L68.346924 44.745972L68.697235 44.395645L69.065201 44.062653L69.415848 43.747284L69.713562 43.466904L69.941330 43.256775L70.116501 43.098938L70.204071 43.011353L70.256683 42.976395" style="stroke:rgb(0.000000%,0.000000%,0.000000%); stroke-width: 4.363632;stroke-linecap: round;stroke-linejoin: round;stroke-miterlimit: 10.000000;fill: none;"></path>
  <path d="M49.232193 12.210556L49.214554 12.245529L49.162262 12.333099L49.057037 12.473297L48.916840 12.701065L48.706711 12.999100L48.461304 13.384399L48.163589 13.839935L47.830582 14.365738L47.480270 14.926193L47.094650 15.504288L46.709366 16.100037L46.341400 16.695770L45.973434 17.273865L45.623108 17.852295L45.290100 18.377777L44.974747 18.903259L44.677048 19.394089L44.413986 19.849640L44.151230 20.287552L43.906143 20.725449L43.695694 21.128387L43.467911 21.531311L43.275436 21.916931L43.064987 22.319870L42.889816 22.705475L42.679688 23.143387L42.469238 23.581284L42.276749 24.019501L42.083954 24.475052L41.891144 24.930283L41.715988 25.421112L41.540817 25.911636L41.365662 26.402145L41.190491 26.910309L41.032654 27.418472L40.892471 27.943954L40.769913 28.469437L40.647369 28.977600L40.542145 29.503403L40.454559 30.011246L40.366989 30.519409L40.314377 31.009918L40.279404 31.500443L40.244110 31.973633L40.244110 32.429169L40.244110 32.884720L40.279404 33.322632L40.314377 33.760849L40.384308 34.181107L40.471893 34.601685L40.559464 35.022263L40.682343 35.442520L40.822525 35.863113L40.980042 36.283691L41.155212 36.704269L41.348007 37.142166L41.558151 37.562744L41.803558 38.000656L42.048981 38.421234L42.329041 38.841492L42.609436 39.262070L42.907471 39.665009L43.222824 40.050613L43.555496 40.435913L43.888489 40.786545L44.221497 41.136871L44.554169 41.469559L44.904816 41.784912L45.255142 42.065292L45.587814 42.345673L45.938461 42.608429L46.288788 42.853836L46.656754 43.081619L47.007080 43.291748L47.375046 43.502197L47.760651 43.694672L48.145935 43.869843L48.548874 44.045319L48.951813 44.220490L49.390030 44.378006L49.827942 44.518188L50.283493 44.658386L50.739029 44.780930L51.211914 44.903809L51.685104 45.008713L52.175613 45.096283L52.648804 45.166550L53.121674 45.236481L53.612198 45.306732L54.085388 45.341705L54.540939 45.376678L54.996475 45.411652L55.452026 45.411652L55.907578 45.429291L56.345474 45.429291L56.766068 45.411652L57.203964 45.394318L57.641861 45.359360L58.080093 45.324066L58.517990 45.289093L58.973541 45.236481L59.429092 45.183868L59.902283 45.131577L60.375153 45.061325L60.848343 44.973740L61.338867 44.886154L61.847015 44.798584L62.337540 44.710999L62.845703 44.605774L63.336212 44.500870L63.826736 44.395645L64.299927 44.273102L64.790436 44.167877L65.245987 44.045319L65.701538 43.940094L66.139435 43.817551L66.560013 43.712326L66.980270 43.589767L67.383209 43.484543L67.768814 43.362000L68.154114 43.256775L68.539719 43.151550L68.907684 43.029007L69.292984 42.923782L69.678589 42.801224L70.063889 42.661041L70.449493 42.538483L70.852432 42.380646L71.255371 42.240448L71.675949 42.065292L72.078873 41.890137L72.499466 41.697327L72.919724 41.504837L73.357941 41.277069L73.778198 41.049286L74.198776 40.821518L74.619354 40.558777L75.039948 40.295715L75.460205 40.015656L75.880783 39.735260L76.283707 39.437225L76.686646 39.121872L77.107224 38.789200L77.510162 38.456207L77.930740 38.088226L78.263428 37.790527L78.596420 37.475174L78.946747 37.142166L79.297394 36.774200L79.665039 36.406235L80.033005 36.020950L80.418610 35.618011L80.803909 35.197433L81.189514 34.759521L81.574799 34.286331L81.977737 33.813141L82.380676 33.322632L82.766281 32.814468L83.169220 32.306625L83.554840 31.780823L83.940125 31.237686L84.308090 30.694565L84.676056 30.151443L85.044022 29.608307L85.376709 29.047852L85.709702 28.504730L86.025055 27.961594L86.322769 27.418472L86.603149 26.892670L86.866211 26.367188L87.111313 25.841385L87.356735 25.315887L87.566864 24.807739L87.759674 24.282242L87.952469 23.774094L88.127640 23.230957L88.302795 22.687836L88.442993 22.127060L88.583176 21.566605L88.688080 20.988190L88.793304 20.410095L88.880890 19.832001L88.950821 19.236252L89.003433 18.640518L89.021088 18.044769L89.038727 17.449356L89.038727 16.835968L89.021088 16.240234L88.986115 15.644485L88.933502 15.049072L88.863251 14.470642L88.775665 13.910202L88.670761 13.349426L88.547897 12.806290L88.425339 12.280807L88.267822 11.772659L88.109985 11.282135L87.952469 10.826584L87.776993 10.371048L87.584503 9.932816L87.374054 9.512558L87.163925 9.126953L86.953796 8.741653L86.690735 8.338715L86.427994 7.935791L86.147598 7.550171L85.832245 7.182205L85.516891 6.814240L85.184219 6.463913L84.816254 6.113602L84.448288 5.780594L84.045349 5.447601L83.642410 5.132248L83.204193 4.816895L82.766281 4.519180L82.310745 4.238785L81.855194 3.976044L81.382324 3.730637L80.891479 3.485535L80.418610 3.275085L79.928101 3.082596L79.454910 2.889786L78.964386 2.731949L78.491196 2.574432L78.018326 2.451889L77.545135 2.329025L77.072266 2.224121L76.599075 2.136536L76.126190 2.066284L75.687973 1.996338L75.232422 1.943726L74.776871 1.908768L74.321335 1.873474L73.830811 1.856140L73.322647 1.856140L72.797165 1.856140L72.236404 1.873474L71.640976 1.891113L71.027588 1.926086L70.361908 1.978699L69.660950 2.031311L68.942657 2.101242L68.189407 2.171509L67.418503 2.241440L66.629959 2.329025L65.859055 2.416595L65.123108 2.504181L64.422470 2.591766L63.791763 2.662018L63.230988 2.749603L62.775436 2.802216L62.407471 2.854828L62.144730 2.889786L61.987213 2.907120L61.881989 2.924759L61.847015 2.924759" style="stroke:rgb(0.000000%,0.000000%,0.000000%); stroke-width: 4.363632;stroke-linecap: round;stroke-linejoin: round;stroke-miterlimit: 10.000000;fill: none;"></path>
</svg>
