<?xml version="1.0"?>
<!-- Created by MetaPost 1.9991 on 2022.02.18:1311 -->
<svg version="1.1" xmlns="http://www.w3.org/2000/svg" xmlns:xlink="http://www.w3.org/1999/xlink" width="109.486099" height="41.156495" viewBox="-4.284393 23.405212 113.770492 64.561707">
<!-- Original BoundingBox: -4.284393 23.405212 105.201706 64.561707 -->
  <path d="M38.690277 20.016541C38.690277 15.137360,36.751633 10.458374,33.301987 7.008408C29.852020 3.558762,25.173019 1.620117,20.293854 1.620117C15.414673 1.620117,10.735687 3.558762,7.285721 7.008408C3.836060 10.458374,1.897430 15.137360,1.897430 20.016541C1.897430 24.895706,3.836060 29.574707,7.285721 33.024673C10.735687 36.474319,15.414673 38.412964,20.293854 38.412964C25.173019 38.412964,29.852020 36.474319,33.301987 33.024673C36.751633 29.574707,38.690277 24.895706,38.690277 20.016541Z" style="stroke:rgb(0.000000%,0.000000%,0.000000%); stroke-width: 4.363632;stroke-linecap: round;stroke-linejoin: round;stroke-miterlimit: 10.000000;fill: none;"></path>
  <path d="M107.019882 20.016541C107.019882 15.137360,105.081238 10.458374,101.631577 7.008408C98.181610 3.558762,93.502625 1.620117,88.623444 1.620117C83.744278 1.620117,79.065277 3.558762,75.615311 7.008408C72.165665 10.458374,70.227020 15.137360,70.227020 20.016541C70.227020 24.895706,72.165665 29.574707,75.615311 33.024673C79.065277 36.474319,83.744278 38.412964,88.623444 38.412964C93.502625 38.412964,98.181610 36.474319,101.631577 33.024673C105.081238 29.574707,107.019882 24.895706,107.019882 20.016541Z" style="stroke:rgb(0.000000%,0.000000%,0.000000%); stroke-width: 4.363632;stroke-linecap: round;stroke-linejoin: round;stroke-miterlimit: 10.000000;fill: none;"></path>
  <path d="M38.690277 20.016541L70.227020 20.016541" style="stroke:rgb(0.000000%,0.000000%,0.000000%); stroke-width: 4.363632;stroke-linecap: round;stroke-linejoin: round;stroke-miterlimit: 10.000000;fill: none;"></path>
</svg>
