<?xml version="1.0"?>
<!-- Created by MetaPost 1.9991 on 2022.02.17:1529 -->
<svg version="1.1" xmlns="http://www.w3.org/2000/svg" xmlns:xlink="http://www.w3.org/1999/xlink" width="109.486099" height="107.612579" viewBox="0 0 109.486099 107.612579">
<!-- Original BoundingBox: -4.284393 -0.277725 105.201706 107.334854 -->
  <path d="M38.690277 63.016541C38.690277 58.137360,36.751633 53.458374,33.301987 50.008408C29.852020 46.558762,25.173019 44.620117,20.293854 44.620117C15.414673 44.620117,10.735687 46.558762,7.285721 50.008408C3.836060 53.458374,1.897430 58.137360,1.897430 63.016541C1.897430 67.895706,3.836060 72.574707,7.285721 76.024673C10.735687 79.474319,15.414673 81.412964,20.293854 81.412964C25.173019 81.412964,29.852020 79.474319,33.301987 76.024673C36.751633 72.574707,38.690277 67.895706,38.690277 63.016541Z" style="stroke:rgb(0.000000%,0.000000%,0.000000%); stroke-width: 4.363632;stroke-linecap: round;stroke-linejoin: round;stroke-miterlimit: 10.000000;fill: none;"></path>
  <path d="M107.019882 63.016541C107.019882 58.137360,105.081238 53.458374,101.631577 50.008408C98.181610 46.558762,93.502625 44.620117,88.623444 44.620117C83.744278 44.620117,79.065277 46.558762,75.615311 50.008408C72.165665 53.458374,70.227020 58.137360,70.227020 63.016541C70.227020 67.895706,72.165665 72.574707,75.615311 76.024673C79.065277 79.474319,83.744278 81.412964,88.623444 81.412964C93.502625 81.412964,98.181610 79.474319,101.631577 76.024673C105.081238 72.574707,107.019882 67.895706,107.019882 63.016541Z" style="stroke:rgb(0.000000%,0.000000%,0.000000%); stroke-width: 4.363632;stroke-linecap: round;stroke-linejoin: round;stroke-miterlimit: 10.000000;fill: none;"></path>
  <path d="M38.690277 63.016541L70.227020 63.016541" style="stroke:rgb(0.000000%,0.000000%,0.000000%); stroke-width: 4.363632;stroke-linecap: round;stroke-linejoin: round;stroke-miterlimit: 10.000000;fill: none;"></path>
  <path d="M4.000000 107.000000L104.916885 107.000000" style="stroke:rgb(0.000000%,0.000000%,0.000000%); stroke-width: 0.555435;stroke-linecap: square;stroke-linejoin: round;stroke-miterlimit: 10.000000;fill: none;"></path>
  <path d="M4.000000 -0.057129L104.916885 -0.057129" style="stroke:rgb(0.000000%,0.000000%,0.000000%); stroke-width: 0.555435;stroke-linecap: square;stroke-linejoin: round;stroke-miterlimit: 10.000000;fill: none;"></path>
  <path d="M4.000000 107.000000L104.916885 107.000000" style="stroke:rgb(0.000000%,0.000000%,0.000000%); stroke-width: 0.555435;stroke-linecap: square;stroke-linejoin: round;stroke-miterlimit: 10.000000;fill: none;"></path>
  <path d="M4.000000 107.000000L4.000000 -0.057129" style="stroke:rgb(0.000000%,0.000000%,0.000000%); stroke-width: 0.555435;stroke-linecap: square;stroke-linejoin: round;stroke-miterlimit: 10.000000;fill: none;"></path>
  <path d="M104.916885 107.000000L104.916885 -0.057129" style="stroke:rgb(0.000000%,0.000000%,0.000000%); stroke-width: 0.555435;stroke-linecap: square;stroke-linejoin: round;stroke-miterlimit: 10.000000;fill: none;"></path>
</svg>
