<?xml version="1.0"?>
<!-- Created by MetaPost 1.9991 on 2022.02.18:1311 -->
<svg version="1.1" xmlns="http://www.w3.org/2000/svg" xmlns:xlink="http://www.w3.org/1999/xlink" width="108.435119" height="108.435119" viewBox="-3.758911 -10.234100 112.194031 108.435120">
<!-- Original BoundingBox: -3.758911 -10.234100 104.676208 98.201019 -->
  <path d="M105.494385 54.016541C105.494385 40.215042,100.011139 26.980743,90.252792 17.222397C80.494446 7.464050,67.260147 1.980804,53.458649 1.980804C39.657150 1.980804,26.422852 7.464050,16.664505 17.222397C6.906158 26.980743,1.422913 40.215042,1.422913 54.016541C1.422913 67.818024,6.906158 81.052338,16.664505 90.810684C26.422852 100.569031,39.657150 106.052277,53.458649 106.052277C67.260147 106.052277,80.494446 100.569031,90.252792 90.810684C100.011139 81.052338,105.494385 67.818024,105.494385 54.016541Z" style="stroke:rgb(0.000000%,0.000000%,0.000000%); stroke-width: 4.363632;stroke-linecap: round;stroke-linejoin: round;stroke-miterlimit: 10.000000;fill: none;"></path>
  <path d="M32.434158 32.992050L16.665787 17.223679" style="stroke:rgb(0.000000%,0.000000%,0.000000%); stroke-width: 4.363632;stroke-linecap: round;stroke-linejoin: round;stroke-miterlimit: 10.000000;fill: none;"></path>
  <path d="M32.434158 75.041031L16.665787 90.809402" style="stroke:rgb(0.000000%,0.000000%,0.000000%); stroke-width: 4.363632;stroke-linecap: round;stroke-linejoin: round;stroke-miterlimit: 10.000000;fill: none;"></path>
  <path d="M74.483139 75.041031L90.251511 90.809402" style="stroke:rgb(0.000000%,0.000000%,0.000000%); stroke-width: 4.363632;stroke-linecap: round;stroke-linejoin: round;stroke-miterlimit: 10.000000;fill: none;"></path>
  <path d="M74.483139 32.992050L90.251511 17.223679" style="stroke:rgb(0.000000%,0.000000%,0.000000%); stroke-width: 4.363632;stroke-linecap: round;stroke-linejoin: round;stroke-miterlimit: 10.000000;fill: none;"></path>
</svg>
