<?xml version="1.0"?>
<!-- Created by MetaPost 1.9991 on 2022.02.18:1311 -->
<svg version="1.1" xmlns="http://www.w3.org/2000/svg" xmlns:xlink="http://www.w3.org/1999/xlink" width="89.433334" height="82.958145" viewBox="0 0 89.433334 82.958145">
<!-- Original BoundingBox: 11.483963 5.008774 89.433334 82.958145 -->
  <path d="M80.190842 38.016541C80.190842 30.130753,77.057831 22.568985,71.482178 16.993011C65.906204 11.417358,58.344437 8.284348,50.458649 8.284348C42.572861 8.284348,35.011093 11.417358,29.435120 16.993011C23.859467 22.568985,20.726456 30.130753,20.726456 38.016541C20.726456 45.902328,23.859467 53.464096,29.435120 59.040070C35.011093 64.615707,42.572861 67.748734,50.458649 67.748734C58.344437 67.748734,65.906204 64.615707,71.482178 59.040070C77.057831 53.464096,80.190842 45.902328,80.190842 38.016541Z" style="stroke:rgb(0.000000%,0.000000%,0.000000%); stroke-width: 4.363632;stroke-linecap: round;stroke-linejoin: round;stroke-miterlimit: 10.000000;fill: none;"></path>
  <path d="M29.434158 16.992050L13.665787 1.223679" style="stroke:rgb(0.000000%,0.000000%,0.000000%); stroke-width: 4.363632;stroke-linecap: round;stroke-linejoin: round;stroke-miterlimit: 10.000000;fill: none;"></path>
  <path d="M29.434158 59.041031L13.665787 74.809402" style="stroke:rgb(0.000000%,0.000000%,0.000000%); stroke-width: 4.363632;stroke-linecap: round;stroke-linejoin: round;stroke-miterlimit: 10.000000;fill: none;"></path>
  <path d="M71.483139 59.041031L87.251511 74.809402" style="stroke:rgb(0.000000%,0.000000%,0.000000%); stroke-width: 4.363632;stroke-linecap: round;stroke-linejoin: round;stroke-miterlimit: 10.000000;fill: none;"></path>
  <path d="M71.483139 16.992050L87.251511 1.223679" style="stroke:rgb(0.000000%,0.000000%,0.000000%); stroke-width: 4.363632;stroke-linecap: round;stroke-linejoin: round;stroke-miterlimit: 10.000000;fill: none;"></path>
</svg>
