<?xml version="1.0"?>
<!-- Created by MetaPost 1.9991 on 2022.02.17:1529 -->
<svg version="1.1" xmlns="http://www.w3.org/2000/svg" xmlns:xlink="http://www.w3.org/1999/xlink" width="154.034103" height="107.612579" viewBox="0 0 154.034103 107.612579">
<!-- Original BoundingBox: -0.277725 -0.277725 153.756378 107.334854 -->
  <path d="M88.565536 80.764938C92.987564 71.521164,93.655487 60.923584,90.429428 51.197647C87.203384 41.471695,80.333603 33.374496,71.263702 28.606323C62.193817 23.838150,51.628952 22.770172,41.788162 25.626663C31.947372 28.483139,23.596405 35.042053,18.489136 43.925232C13.381882 52.808426,11.915466 63.325470,14.398193 73.266998C16.880936 83.208527,23.119370 91.801056,31.803329 97.240372C40.487289 102.679672,50.941147 104.541962,60.969604 102.436813" style="stroke:rgb(0.000000%,0.000000%,0.000000%); stroke-width: 6.405960;stroke-linecap: round;stroke-linejoin: round;stroke-miterlimit: 10.000000;fill: none;"></path>
  <path d="M64.912979 49.228195C61.156006 58.588425,61.139954 69.034256,64.867752 78.406036C68.595551 87.777802,75.782928 95.357864,84.942978 99.579697C94.102692 103.801208,104.534729 104.340820,114.081345 101.087494C123.627960 97.834183,131.558975 91.035934,136.234436 82.099503C140.909897 73.163055,141.971771 62.771439,139.201279 53.074051C136.430771 43.376663,130.038986 35.114883,121.348297 29.997345C112.657593 24.879822,102.332382 23.298233,92.508270 25.579178" style="stroke:rgb(0.000000%,0.000000%,0.000000%); stroke-width: 6.405960;stroke-linecap: round;stroke-linejoin: round;stroke-miterlimit: 10.000000;fill: none;"></path>
  <path d="M0.000000 107.000000L153.478653 107.000000" style="stroke:rgb(0.000000%,0.000000%,0.000000%); stroke-width: 0.555435;stroke-linecap: square;stroke-linejoin: round;stroke-miterlimit: 10.000000;fill: none;"></path>
  <path d="M0.000000 -0.057129L153.478653 -0.057129" style="stroke:rgb(0.000000%,0.000000%,0.000000%); stroke-width: 0.555435;stroke-linecap: square;stroke-linejoin: round;stroke-miterlimit: 10.000000;fill: none;"></path>
  <path d="M0.000000 107.000000L153.478653 107.000000" style="stroke:rgb(0.000000%,0.000000%,0.000000%); stroke-width: 0.555435;stroke-linecap: square;stroke-linejoin: round;stroke-miterlimit: 10.000000;fill: none;"></path>
  <path d="M0.000000 107.000000L0.000000 -0.057129" style="stroke:rgb(0.000000%,0.000000%,0.000000%); stroke-width: 0.555435;stroke-linecap: square;stroke-linejoin: round;stroke-miterlimit: 10.000000;fill: none;"></path>
  <path d="M153.478653 107.000000L153.478653 -0.057129" style="stroke:rgb(0.000000%,0.000000%,0.000000%); stroke-width: 0.555435;stroke-linecap: square;stroke-linejoin: round;stroke-miterlimit: 10.000000;fill: none;"></path>
</svg>
