<?xml version="1.0"?>
<!-- Created by MetaPost 1.9991 on 2022.02.18:1311 -->
<svg version="1.1" xmlns="http://www.w3.org/2000/svg" xmlns:xlink="http://www.w3.org/1999/xlink" width="133.902069" height="85.631668" viewBox="10.014832 0.514999 133.902069 86.146667">
<!-- Original BoundingBox: 10.014832 0.514999 143.916901 86.146667 -->
  <path d="M88.565536 59.764938C92.987564 50.521164,93.655487 39.923584,90.429428 30.197647C87.203384 20.471695,80.333603 12.374496,71.263702 7.606323C62.193817 2.838150,51.628952 1.770172,41.788162 4.626663C31.947372 7.483139,23.596405 14.042053,18.489136 22.925232C13.381882 31.808426,11.915466 42.325470,14.398193 52.266998C16.880936 62.208527,23.119370 70.801056,31.803329 76.240372C40.487289 81.679672,50.941147 83.541962,60.969604 81.436813" style="stroke:rgb(0.000000%,0.000000%,0.000000%); stroke-width: 6.405960;stroke-linecap: round;stroke-linejoin: round;stroke-miterlimit: 10.000000;fill: none;"></path>
  <path d="M64.912979 28.228195C61.156006 37.588425,61.139954 48.034256,64.867752 57.406036C68.595551 66.777802,75.782928 74.357864,84.942978 78.579697C94.102692 82.801208,104.534729 83.340820,114.081345 80.087494C123.627960 76.834183,131.558975 70.035934,136.234436 61.099503C140.909897 52.163055,141.971771 41.771439,139.201279 32.074051C136.430771 22.376663,130.038986 14.114883,121.348297 8.997345C112.657593 3.879822,102.332382 2.298233,92.508270 4.579178" style="stroke:rgb(0.000000%,0.000000%,0.000000%); stroke-width: 6.405960;stroke-linecap: round;stroke-linejoin: round;stroke-miterlimit: 10.000000;fill: none;"></path>
</svg>
