<?xml version="1.0"?>
<!-- Created by MetaPost 1.9991 on 2022.02.17:1529 -->
<svg version="1.1" xmlns="http://www.w3.org/2000/svg" xmlns:xlink="http://www.w3.org/1999/xlink" width="101.472336" height="107.612579" viewBox="0 0 101.472336 107.612579">
<!-- Original BoundingBox: -0.277725 -0.277725 101.194611 107.334854 -->
  <path d="M32.062225 63.016541L70.169113 63.016541" style="stroke:rgb(0.000000%,0.000000%,0.000000%); stroke-width: 4.363632;stroke-linecap: round;stroke-linejoin: round;stroke-miterlimit: 10.000000;fill: none;"></path>
  <path d="M8.409668 20.967560L8.427307 20.985199L8.479599 21.037811L8.567505 21.125397L8.690048 21.265594L8.882858 21.475723L9.145599 21.738464L9.460953 22.089111L9.846252 22.509369L10.301788 23.000198L10.827606 23.560654L11.405701 24.191360L12.054047 24.892334L12.737045 25.645584L13.438019 26.434128L14.191269 27.257645L14.962173 28.116135L15.733078 28.991928L16.503983 29.885712L17.274887 30.761520L18.045792 31.655289L18.781723 32.531097L19.500015 33.389572L20.200974 34.230728L20.866653 35.054245L21.497360 35.860123L22.110748 36.648346L22.688843 37.419250L23.231979 38.155182L23.757462 38.873474L24.247971 39.591766L24.703522 40.275085L25.141739 40.958405L25.561996 41.624405L25.947617 42.272430L26.315582 42.920792L26.648254 43.569138L26.981262 44.217178L27.279282 44.847885L27.576996 45.496231L27.857391 46.161911L28.120132 46.810272L28.365540 47.475952L28.610641 48.141937L28.838425 48.825272L29.066193 49.508591L29.276321 50.226883L29.469131 50.927521L29.644287 51.663452L29.819443 52.399384L29.994934 53.152649L30.135132 53.923553L30.274994 54.712097L30.415192 55.500320L30.520416 56.306519L30.625641 57.112381L30.713226 57.935898L30.800797 58.776733L30.853409 59.617569L30.906021 60.458740L30.940994 61.299576L30.958313 62.158051L30.975967 63.016541L30.958313 63.875336L30.940994 64.733826L30.906021 65.574661L30.853409 66.415497L30.800797 67.256668L30.713226 68.097504L30.625641 68.921021L30.520416 69.726883L30.415192 70.533081L30.274994 71.321304L30.135132 72.109848L29.994934 72.880753L29.819443 73.634003L29.644287 74.369949L29.469131 75.105881L29.276321 75.806519L29.066193 76.524811L28.838425 77.208130L28.610641 77.891449L28.365540 78.557449L28.120132 79.223129L27.857391 79.871490L27.576996 80.537155L27.279282 81.185516L26.981262 81.816223L26.648254 82.464264L26.315582 83.112610L25.947617 83.760971L25.561996 84.408997L25.141739 85.074997L24.703522 85.758316L24.247971 86.441635L23.757462 87.159927L23.231979 87.878220L22.688843 88.614151L22.110748 89.385056L21.497360 90.173279L20.866653 90.979156L20.200974 91.802658L19.500015 92.643829L18.781723 93.502304L18.045792 94.378113L17.274887 95.271881L16.503983 96.147690L15.733078 97.041458L14.962173 97.917267L14.191269 98.775757L13.438019 99.599274L12.737045 100.387817L12.054047 101.141068L11.405701 101.842041L10.827606 102.472748L10.301788 103.033203L9.846252 103.524033L9.460953 103.944290L9.145599 104.294617L8.882858 104.557678L8.690048 104.767807L8.567505 104.908005L8.479599 104.995590L8.427307 105.048203L8.409668 105.065521" style="stroke:rgb(0.000000%,0.000000%,0.000000%); stroke-width: 4.363632;stroke-linecap: round;stroke-linejoin: round;stroke-miterlimit: 10.000000;fill: none;"></path>
  <path d="M92.507629 20.967560L92.489990 20.985199L92.437698 21.037811L92.349792 21.125397L92.227249 21.265594L92.034439 21.475723L91.771698 21.738464L91.456345 22.089111L91.071045 22.509369L90.615509 23.000198L90.089691 23.560654L89.511597 24.191360L88.863251 24.892334L88.180252 25.645584L87.479279 26.434128L86.726028 27.257645L85.955124 28.116135L85.184219 28.991928L84.413315 29.885712L83.642410 30.761520L82.871506 31.655289L82.135574 32.531097L81.417282 33.389572L80.716324 34.230728L80.050644 35.054245L79.419937 35.860123L78.806549 36.648346L78.228455 37.419250L77.685318 38.155182L77.159836 38.873474L76.669327 39.591766L76.213776 40.275085L75.775558 40.958405L75.355301 41.624405L74.969681 42.272430L74.601715 42.920792L74.269043 43.569138L73.936035 44.217178L73.638016 44.847885L73.340302 45.496231L73.059906 46.161911L72.797165 46.810272L72.551758 47.475952L72.306656 48.141937L72.078873 48.825272L71.851105 49.508591L71.640976 50.226883L71.448166 50.927521L71.273010 51.663452L71.097855 52.399384L70.922363 53.152649L70.782166 53.923553L70.642303 54.712097L70.502106 55.500320L70.396881 56.306519L70.291656 57.112381L70.204071 57.935898L70.116501 58.776733L70.063889 59.617569L70.011276 60.458740L69.976303 61.299576L69.958984 62.158051L69.941330 63.016541L69.958984 63.875336L69.976303 64.733826L70.011276 65.574661L70.063889 66.415497L70.116501 67.256668L70.204071 68.097504L70.291656 68.921021L70.396881 69.726883L70.502106 70.533081L70.642303 71.321304L70.782166 72.109848L70.922363 72.880753L71.097855 73.634003L71.273010 74.369949L71.448166 75.105881L71.640976 75.806519L71.851105 76.524811L72.078873 77.208130L72.306656 77.891449L72.551758 78.557449L72.797165 79.223129L73.059906 79.871490L73.340302 80.537155L73.638016 81.185516L73.936035 81.816223L74.269043 82.464264L74.601715 83.112610L74.969681 83.760971L75.355301 84.408997L75.775558 85.074997L76.213776 85.758316L76.669327 86.441635L77.159836 87.159927L77.685318 87.878220L78.228455 88.614151L78.806549 89.385056L79.419937 90.173279L80.050644 90.979156L80.716324 91.802658L81.417282 92.643829L82.135574 93.502304L82.871506 94.378113L83.642410 95.271881L84.413315 96.147690L85.184219 97.041458L85.955124 97.917267L86.726028 98.775757L87.479279 99.599274L88.180252 100.387817L88.863251 101.141068L89.511597 101.842041L90.089691 102.472748L90.615509 103.033203L91.071045 103.524033L91.456345 103.944290L91.771698 104.294617L92.034439 104.557678L92.227249 104.767807L92.349792 104.908005L92.437698 104.995590L92.489990 105.048203L92.507629 105.065521" style="stroke:rgb(0.000000%,0.000000%,0.000000%); stroke-width: 4.363632;stroke-linecap: round;stroke-linejoin: round;stroke-miterlimit: 10.000000;fill: none;"></path>
  <path d="M0.000000 107.000000L100.916885 107.000000" style="stroke:rgb(0.000000%,0.000000%,0.000000%); stroke-width: 0.555435;stroke-linecap: square;stroke-linejoin: round;stroke-miterlimit: 10.000000;fill: none;"></path>
  <path d="M0.000000 -0.057129L100.916885 -0.057129" style="stroke:rgb(0.000000%,0.000000%,0.000000%); stroke-width: 0.555435;stroke-linecap: square;stroke-linejoin: round;stroke-miterlimit: 10.000000;fill: none;"></path>
  <path d="M0.000000 107.000000L100.916885 107.000000" style="stroke:rgb(0.000000%,0.000000%,0.000000%); stroke-width: 0.555435;stroke-linecap: square;stroke-linejoin: round;stroke-miterlimit: 10.000000;fill: none;"></path>
  <path d="M0.000000 107.000000L0.000000 -0.057129" style="stroke:rgb(0.000000%,0.000000%,0.000000%); stroke-width: 0.555435;stroke-linecap: square;stroke-linejoin: round;stroke-miterlimit: 10.000000;fill: none;"></path>
  <path d="M100.916885 107.000000L100.916885 -0.057129" style="stroke:rgb(0.000000%,0.000000%,0.000000%); stroke-width: 0.555435;stroke-linecap: square;stroke-linejoin: round;stroke-miterlimit: 10.000000;fill: none;"></path>
</svg>
