<?xml version="1.0"?>
<!-- Created by MetaPost 1.9991 on 2022.02.18:1311 -->
<svg version="1.1" xmlns="http://www.w3.org/2000/svg" xmlns:xlink="http://www.w3.org/1999/xlink" width="94.689453" height="88.461609" viewBox="0 0 94.689453 88.461609">
<!-- Original BoundingBox: 6.227844 -0.247345 94.689453 88.214264 -->
  <path d="M8.409668 86.065521L8.427307 86.048203L8.479599 85.995590L8.567505 85.908005L8.707382 85.785461L8.917831 85.592651L9.180573 85.329910L9.530899 85.014557L9.951477 84.628937L10.441986 84.173386L11.002762 83.647903L11.633469 83.069809L12.334122 82.421463L13.087692 81.738144L13.875916 81.037170L14.699432 80.283920L15.557922 79.513016L16.434052 78.742111L17.327499 77.971207L18.203629 77.200302L19.097076 76.429398L19.973206 75.693466L20.831680 74.975174L21.672516 74.274536L22.496033 73.608536L23.301910 72.977829L24.090454 72.364761L24.861359 71.786667L25.597290 71.243530L26.315582 70.717728L27.033875 70.227219L27.717194 69.771667L28.400513 69.333771L29.066193 68.913177L29.714539 68.527893L30.362900 68.159927L31.010925 67.826935L31.659286 67.493927L32.289993 67.196213L32.938354 66.898193L33.604019 66.618118L34.252380 66.355057L34.918060 66.109955L35.583725 65.864548L36.267059 65.636765L36.950378 65.408997L37.668671 65.198868L38.369629 65.006058L39.105560 64.830902L39.841171 64.655731L40.594757 64.480576L41.365662 64.340378L42.153885 64.200195L42.942429 64.059998L43.748306 63.954773L44.554169 63.849869L45.377686 63.762283L46.218842 63.674713L47.059692 63.622101L47.900528 63.569489L48.741684 63.534515L49.600159 63.516876L50.458649 63.499542L51.317139 63.516876L52.175613 63.534515L53.016769 63.569489L53.857605 63.622101L54.698456 63.674713L55.539612 63.762283L56.363129 63.849869L57.168991 63.954773L57.974869 64.059998L58.763412 64.200195L59.551636 64.340378L60.322540 64.480576L61.076126 64.655731L61.811737 64.830902L62.547668 65.006058L63.248627 65.198868L63.966919 65.408997L64.650238 65.636765L65.333572 65.864548L65.999237 66.109955L66.664917 66.355057L67.313278 66.618118L67.978943 66.898193L68.627304 67.196213L69.258011 67.493927L69.906372 67.826935L70.554398 68.159927L71.202759 68.527893L71.851105 68.913177L72.516785 69.333771L73.200104 69.771667L73.883423 70.227219L74.601715 70.717728L75.320007 71.243530L76.055939 71.786667L76.826843 72.364761L77.615387 72.977829L78.421265 73.608536L79.244781 74.274536L80.085617 74.975174L80.944092 75.693466L81.820221 76.429398L82.713669 77.200302L83.589798 77.971207L84.483246 78.742111L85.359375 79.513016L86.217865 80.283920L87.041382 81.037170L87.829605 81.738144L88.583176 82.421463L89.283829 83.069809L89.914536 83.647903L90.475311 84.173386L90.965820 84.628937L91.386398 85.014557L91.736725 85.329910L91.999466 85.592651L92.209915 85.785461L92.349792 85.908005L92.437698 85.995590L92.489990 86.048203L92.507629 86.065521" style="stroke:rgb(0.000000%,0.000000%,0.000000%); stroke-width: 4.363632;stroke-linecap: round;stroke-linejoin: round;stroke-miterlimit: 10.000000;fill: none;"></path>
  <path d="M8.409668 1.967560L8.427307 1.985199L8.479599 2.037811L8.567505 2.125397L8.707382 2.247940L8.917831 2.440750L9.180573 2.703491L9.530899 3.018845L9.951477 3.404465L10.441986 3.860001L11.002762 4.385483L11.633469 4.963593L12.334122 5.611938L13.087692 6.295258L13.875916 6.996231L14.699432 7.749481L15.557922 8.520386L16.434052 9.291290L17.327499 10.062195L18.203629 10.833099L19.097076 11.604004L19.973206 12.339935L20.831680 13.058228L21.672516 13.758865L22.496033 14.424866L23.301910 15.055573L24.090454 15.668640L24.861359 16.246735L25.597290 16.789856L26.315582 17.315674L27.033875 17.806183L27.717194 18.261734L28.400513 18.699631L29.066193 19.120209L29.714539 19.505508L30.362900 19.873474L31.010925 20.206467L31.659286 20.539474L32.289993 20.837173L32.938354 21.134888L33.604019 21.415283L34.252380 21.678024L34.918060 21.923431L35.583725 22.168854L36.267059 22.396622L36.950378 22.624405L37.668671 22.834534L38.369629 23.027344L39.105560 23.202499L39.841171 23.377655L40.594757 23.552826L41.365662 23.693008L42.153885 23.833206L42.942429 23.973404L43.748306 24.078629L44.554169 24.183533L45.377686 24.271118L46.218842 24.358688L47.059692 24.411301L47.900528 24.463913L48.741684 24.498886L49.600159 24.516525L50.458649 24.533859L51.317139 24.516525L52.175613 24.498886L53.016769 24.463913L53.857605 24.411301L54.698456 24.358688L55.539612 24.271118L56.363129 24.183533L57.168991 24.078629L57.974869 23.973404L58.763412 23.833206L59.551636 23.693008L60.322540 23.552826L61.076126 23.377655L61.811737 23.202499L62.547668 23.027344L63.248627 22.834534L63.966919 22.624405L64.650238 22.396622L65.333572 22.168854L65.999237 21.923431L66.664917 21.678024L67.313278 21.415283L67.978943 21.134888L68.627304 20.837173L69.258011 20.539474L69.906372 20.206467L70.554398 19.873474L71.202759 19.505508L71.851105 19.120209L72.516785 18.699631L73.200104 18.261734L73.883423 17.806183L74.601715 17.315674L75.320007 16.789856L76.055939 16.246735L76.826843 15.668640L77.615387 15.055573L78.421265 14.424866L79.244781 13.758865L80.085617 13.058228L80.944092 12.339935L81.820221 11.604004L82.713669 10.833099L83.589798 10.062195L84.483246 9.291290L85.359375 8.520386L86.217865 7.749481L87.041382 6.996231L87.829605 6.295258L88.583176 5.611938L89.283829 4.963593L89.914536 4.385483L90.475311 3.860001L90.965820 3.404465L91.386398 3.018845L91.736725 2.703491L91.999466 2.440750L92.209915 2.247940L92.349792 2.125397L92.437698 2.037811L92.489990 1.985199L92.507629 1.967560" style="stroke:rgb(0.000000%,0.000000%,0.000000%); stroke-width: 4.363632;stroke-linecap: round;stroke-linejoin: round;stroke-miterlimit: 10.000000;fill: none;"></path>
</svg>
