<?xml version="1.0"?>
<!-- Created by MetaPost 1.9991 on 2022.02.18:1311 -->
<svg version="1.1" xmlns="http://www.w3.org/2000/svg" xmlns:xlink="http://www.w3.org/1999/xlink" width="67.437119" height="54.489608" viewBox="16.740097 17.956284 67.437119 72.445892">
<!-- Original BoundingBox: 16.740097 17.956284 84.177216 72.445892 -->
  <path d="M47.830582 51.669098L47.830582 1.735931" style="stroke:rgb(0.000000%,0.000000%,0.000000%); stroke-width: 4.363632;stroke-linecap: round;stroke-linejoin: round;stroke-miterlimit: 10.000000;fill: none;"></path>
  <path d="M18.921921 1.735931L18.921921 1.771210L18.939560 1.823822L18.974533 1.928726L19.009491 2.121536L19.062103 2.384277L19.149689 2.734604L19.254913 3.190155L19.377457 3.733276L19.534973 4.399277L19.710464 5.170181L19.920593 6.045990L20.148361 7.009689L20.411102 8.078629L20.673843 9.234818L20.989197 10.478912L21.304550 11.775299L21.637558 13.124298L21.987885 14.525909L22.355850 15.945160L22.723816 17.381744L23.091782 18.835968L23.477066 20.290192L23.862686 21.726776L24.265610 23.128387L24.651230 24.512665L25.036514 25.879318L25.422134 27.193344L25.807419 28.472092L26.193039 29.698532L26.560684 30.890015L26.946289 32.028885L27.314255 33.115143L27.682220 34.166428L28.050186 35.147461L28.417831 36.111176L28.768478 37.004623L29.136444 37.880753L29.504089 38.704269L29.872055 39.475174L30.240036 40.228424L30.608002 40.929398L30.993607 41.595062L31.361252 42.243423L31.764511 42.856491L32.149796 43.434586L32.552734 43.995361L32.973312 44.538483L33.393890 45.046646L33.814148 45.537155L34.287338 46.045319L34.777863 46.535843L35.286026 47.008713L35.794189 47.464264L36.319672 47.884842L36.862793 48.305420L37.423569 48.690704L37.984024 49.058670L38.579758 49.408997L39.175507 49.741989L39.788559 50.039703L40.401947 50.320099L41.050308 50.582840L41.698334 50.828247L42.364334 51.038376L43.030014 51.231186L43.713333 51.406342L44.396652 51.546539L45.097305 51.651764L45.815598 51.756989L46.516556 51.809280L47.234848 51.861893L47.953140 51.861893L48.671432 51.861893L49.390030 51.809280L50.108322 51.756989L50.826614 51.651764L51.527267 51.546539L52.228226 51.406342L52.928879 51.231186L53.629837 51.038376L54.313156 50.828247L54.978836 50.582840L55.644836 50.320099L56.310516 50.039703L56.941223 49.741989L57.571930 49.408997L58.202637 49.058670L58.798386 48.690704L59.394119 48.305420L59.972214 47.884842L60.550308 47.464264L61.111084 47.008713L61.654221 46.535843L62.197342 46.045319L62.722824 45.537155L63.178375 45.063965L63.633926 44.573456L64.089478 44.065292L64.527695 43.522171L64.965591 42.979034L65.386185 42.383301L65.824081 41.787872L66.244659 41.139526L66.682571 40.473846L67.103149 39.772873L67.523407 39.036942L67.961624 38.266037L68.381882 37.442520L68.820114 36.601685L69.258011 35.708237L69.713562 34.779495L70.151459 33.798462L70.624649 32.782150L71.080200 31.713531L71.553070 30.609634L72.026260 29.470764L72.516785 28.279602L73.007294 27.035507L73.515457 25.774094L74.005981 24.460052L74.514130 23.128387L75.022293 21.779388L75.547775 20.395416L76.055939 19.011124L76.546463 17.609512L77.054611 16.225555L77.545135 14.841263L78.018326 13.492264L78.473877 12.178238L78.911774 10.916824L79.332352 9.708008L79.717651 8.569138L80.085617 7.500214L80.418610 6.519180L80.716324 5.625732L80.979065 4.819534L81.206833 4.136536L81.399643 3.540787L81.574799 3.032639L81.697678 2.629700L81.802582 2.314346L81.890152 2.086563L81.942764 1.911407L81.977737 1.806183L81.995392 1.753571L81.995392 1.735931" style="stroke:rgb(0.000000%,0.000000%,0.000000%); stroke-width: 4.363632;stroke-linecap: round;stroke-linejoin: round;stroke-miterlimit: 10.000000;fill: none;"></path>
</svg>
