<?xml version="1.0"?>
<!-- Created by MetaPost 1.9991 on 2022.02.17:1529 -->
<svg version="1.1" xmlns="http://www.w3.org/2000/svg" xmlns:xlink="http://www.w3.org/1999/xlink" width="101.472336" height="107.612579" viewBox="0 0 101.472336 107.612579">
<!-- Original BoundingBox: -0.277725 -0.277725 101.194611 107.334854 -->
  <path d="M47.830582 86.669098L47.830582 36.735931" style="stroke:rgb(0.000000%,0.000000%,0.000000%); stroke-width: 4.363632;stroke-linecap: round;stroke-linejoin: round;stroke-miterlimit: 10.000000;fill: none;"></path>
  <path d="M18.921921 36.735931L18.921921 36.771210L18.939560 36.823822L18.974533 36.928726L19.009491 37.121536L19.062103 37.384277L19.149689 37.734604L19.254913 38.190155L19.377457 38.733276L19.534973 39.399277L19.710464 40.170181L19.920593 41.045990L20.148361 42.009689L20.411102 43.078629L20.673843 44.234818L20.989197 45.478912L21.304550 46.775299L21.637558 48.124298L21.987885 49.525909L22.355850 50.945160L22.723816 52.381744L23.091782 53.835968L23.477066 55.290192L23.862686 56.726776L24.265610 58.128387L24.651230 59.512665L25.036514 60.879318L25.422134 62.193344L25.807419 63.472092L26.193039 64.698532L26.560684 65.890015L26.946289 67.028885L27.314255 68.115143L27.682220 69.166428L28.050186 70.147461L28.417831 71.111176L28.768478 72.004623L29.136444 72.880753L29.504089 73.704269L29.872055 74.475174L30.240036 75.228424L30.608002 75.929398L30.993607 76.595062L31.361252 77.243423L31.764511 77.856491L32.149796 78.434586L32.552734 78.995361L32.973312 79.538483L33.393890 80.046646L33.814148 80.537155L34.287338 81.045319L34.777863 81.535843L35.286026 82.008713L35.794189 82.464264L36.319672 82.884842L36.862793 83.305420L37.423569 83.690704L37.984024 84.058670L38.579758 84.408997L39.175507 84.741989L39.788559 85.039703L40.401947 85.320099L41.050308 85.582840L41.698334 85.828247L42.364334 86.038376L43.030014 86.231186L43.713333 86.406342L44.396652 86.546539L45.097305 86.651764L45.815598 86.756989L46.516556 86.809280L47.234848 86.861893L47.953140 86.861893L48.671432 86.861893L49.390030 86.809280L50.108322 86.756989L50.826614 86.651764L51.527267 86.546539L52.228226 86.406342L52.928879 86.231186L53.629837 86.038376L54.313156 85.828247L54.978836 85.582840L55.644836 85.320099L56.310516 85.039703L56.941223 84.741989L57.571930 84.408997L58.202637 84.058670L58.798386 83.690704L59.394119 83.305420L59.972214 82.884842L60.550308 82.464264L61.111084 82.008713L61.654221 81.535843L62.197342 81.045319L62.722824 80.537155L63.178375 80.063965L63.633926 79.573456L64.089478 79.065292L64.527695 78.522171L64.965591 77.979034L65.386185 77.383301L65.824081 76.787872L66.244659 76.139526L66.682571 75.473846L67.103149 74.772873L67.523407 74.036942L67.961624 73.266037L68.381882 72.442520L68.820114 71.601685L69.258011 70.708237L69.713562 69.779495L70.151459 68.798462L70.624649 67.782150L71.080200 66.713531L71.553070 65.609634L72.026260 64.470764L72.516785 63.279602L73.007294 62.035507L73.515457 60.774094L74.005981 59.460052L74.514130 58.128387L75.022293 56.779388L75.547775 55.395416L76.055939 54.011124L76.546463 52.609512L77.054611 51.225555L77.545135 49.841263L78.018326 48.492264L78.473877 47.178238L78.911774 45.916824L79.332352 44.708008L79.717651 43.569138L80.085617 42.500214L80.418610 41.519180L80.716324 40.625732L80.979065 39.819534L81.206833 39.136536L81.399643 38.540787L81.574799 38.032639L81.697678 37.629700L81.802582 37.314346L81.890152 37.086563L81.942764 36.911407L81.977737 36.806183L81.995392 36.753571L81.995392 36.735931" style="stroke:rgb(0.000000%,0.000000%,0.000000%); stroke-width: 4.363632;stroke-linecap: round;stroke-linejoin: round;stroke-miterlimit: 10.000000;fill: none;"></path>
  <path d="M0.000000 107.000000L100.916885 107.000000" style="stroke:rgb(0.000000%,0.000000%,0.000000%); stroke-width: 0.555435;stroke-linecap: square;stroke-linejoin: round;stroke-miterlimit: 10.000000;fill: none;"></path>
  <path d="M0.000000 -0.057129L100.916885 -0.057129" style="stroke:rgb(0.000000%,0.000000%,0.000000%); stroke-width: 0.555435;stroke-linecap: square;stroke-linejoin: round;stroke-miterlimit: 10.000000;fill: none;"></path>
  <path d="M0.000000 107.000000L100.916885 107.000000" style="stroke:rgb(0.000000%,0.000000%,0.000000%); stroke-width: 0.555435;stroke-linecap: square;stroke-linejoin: round;stroke-miterlimit: 10.000000;fill: none;"></path>
  <path d="M0.000000 107.000000L0.000000 -0.057129" style="stroke:rgb(0.000000%,0.000000%,0.000000%); stroke-width: 0.555435;stroke-linecap: square;stroke-linejoin: round;stroke-miterlimit: 10.000000;fill: none;"></path>
  <path d="M100.916885 107.000000L100.916885 -0.057129" style="stroke:rgb(0.000000%,0.000000%,0.000000%); stroke-width: 0.555435;stroke-linecap: square;stroke-linejoin: round;stroke-miterlimit: 10.000000;fill: none;"></path>
</svg>
