<?xml version="1.0"?>
<!-- Created by MetaPost 1.9991 on 2022.02.17:1529 -->
<svg version="1.1" xmlns="http://www.w3.org/2000/svg" xmlns:xlink="http://www.w3.org/1999/xlink" width="101.472336" height="107.612579" viewBox="0 0 101.472336 107.612579">
<!-- Original BoundingBox: -0.277725 -0.277725 101.194611 107.334854 -->
  <path d="M50.458649 81.412964L50.458649 43.306076" style="stroke:rgb(0.000000%,0.000000%,0.000000%); stroke-width: 4.363632;stroke-linecap: round;stroke-linejoin: round;stroke-miterlimit: 10.000000;fill: none;"></path>
  <path d="M8.409668 105.065521L8.427307 105.048203L8.479599 104.995590L8.567505 104.908005L8.707382 104.785461L8.917831 104.592651L9.180573 104.329910L9.530899 104.014557L9.951477 103.628937L10.441986 103.173386L11.002762 102.647903L11.633469 102.069809L12.334122 101.421463L13.087692 100.738144L13.875916 100.037170L14.699432 99.283920L15.557922 98.513016L16.434052 97.742111L17.327499 96.971207L18.203629 96.200302L19.097076 95.429398L19.973206 94.693466L20.831680 93.975174L21.672516 93.274536L22.496033 92.608536L23.301910 91.977829L24.090454 91.364761L24.861359 90.786667L25.597290 90.243530L26.315582 89.717728L27.033875 89.227219L27.717194 88.771667L28.400513 88.333771L29.066193 87.913177L29.714539 87.527893L30.362900 87.159927L31.010925 86.826935L31.659286 86.493927L32.289993 86.196213L32.938354 85.898193L33.604019 85.618118L34.252380 85.355057L34.918060 85.109955L35.583725 84.864548L36.267059 84.636765L36.950378 84.408997L37.668671 84.198868L38.369629 84.006058L39.105560 83.830902L39.841171 83.655731L40.594757 83.480576L41.365662 83.340378L42.153885 83.200195L42.942429 83.059998L43.748306 82.954773L44.554169 82.849869L45.377686 82.762283L46.218842 82.674713L47.059692 82.622101L47.900528 82.569489L48.741684 82.534515L49.600159 82.516876L50.458649 82.499542L51.317139 82.516876L52.175613 82.534515L53.016769 82.569489L53.857605 82.622101L54.698456 82.674713L55.539612 82.762283L56.363129 82.849869L57.168991 82.954773L57.974869 83.059998L58.763412 83.200195L59.551636 83.340378L60.322540 83.480576L61.076126 83.655731L61.811737 83.830902L62.547668 84.006058L63.248627 84.198868L63.966919 84.408997L64.650238 84.636765L65.333572 84.864548L65.999237 85.109955L66.664917 85.355057L67.313278 85.618118L67.978943 85.898193L68.627304 86.196213L69.258011 86.493927L69.906372 86.826935L70.554398 87.159927L71.202759 87.527893L71.851105 87.913177L72.516785 88.333771L73.200104 88.771667L73.883423 89.227219L74.601715 89.717728L75.320007 90.243530L76.055939 90.786667L76.826843 91.364761L77.615387 91.977829L78.421265 92.608536L79.244781 93.274536L80.085617 93.975174L80.944092 94.693466L81.820221 95.429398L82.713669 96.200302L83.589798 96.971207L84.483246 97.742111L85.359375 98.513016L86.217865 99.283920L87.041382 100.037170L87.829605 100.738144L88.583176 101.421463L89.283829 102.069809L89.914536 102.647903L90.475311 103.173386L90.965820 103.628937L91.386398 104.014557L91.736725 104.329910L91.999466 104.592651L92.209915 104.785461L92.349792 104.908005L92.437698 104.995590L92.489990 105.048203L92.507629 105.065521" style="stroke:rgb(0.000000%,0.000000%,0.000000%); stroke-width: 4.363632;stroke-linecap: round;stroke-linejoin: round;stroke-miterlimit: 10.000000;fill: none;"></path>
  <path d="M8.409668 20.967560L8.427307 20.985199L8.479599 21.037811L8.567505 21.125397L8.707382 21.247940L8.917831 21.440750L9.180573 21.703491L9.530899 22.018845L9.951477 22.404465L10.441986 22.860001L11.002762 23.385483L11.633469 23.963593L12.334122 24.611938L13.087692 25.295258L13.875916 25.996231L14.699432 26.749481L15.557922 27.520386L16.434052 28.291290L17.327499 29.062195L18.203629 29.833099L19.097076 30.604004L19.973206 31.339935L20.831680 32.058228L21.672516 32.758865L22.496033 33.424866L23.301910 34.055573L24.090454 34.668640L24.861359 35.246735L25.597290 35.789856L26.315582 36.315674L27.033875 36.806183L27.717194 37.261734L28.400513 37.699631L29.066193 38.120209L29.714539 38.505508L30.362900 38.873474L31.010925 39.206467L31.659286 39.539474L32.289993 39.837173L32.938354 40.134888L33.604019 40.415283L34.252380 40.678024L34.918060 40.923431L35.583725 41.168854L36.267059 41.396622L36.950378 41.624405L37.668671 41.834534L38.369629 42.027344L39.105560 42.202499L39.841171 42.377655L40.594757 42.552826L41.365662 42.693008L42.153885 42.833206L42.942429 42.973404L43.748306 43.078629L44.554169 43.183533L45.377686 43.271118L46.218842 43.358688L47.059692 43.411301L47.900528 43.463913L48.741684 43.498886L49.600159 43.516525L50.458649 43.533859L51.317139 43.516525L52.175613 43.498886L53.016769 43.463913L53.857605 43.411301L54.698456 43.358688L55.539612 43.271118L56.363129 43.183533L57.168991 43.078629L57.974869 42.973404L58.763412 42.833206L59.551636 42.693008L60.322540 42.552826L61.076126 42.377655L61.811737 42.202499L62.547668 42.027344L63.248627 41.834534L63.966919 41.624405L64.650238 41.396622L65.333572 41.168854L65.999237 40.923431L66.664917 40.678024L67.313278 40.415283L67.978943 40.134888L68.627304 39.837173L69.258011 39.539474L69.906372 39.206467L70.554398 38.873474L71.202759 38.505508L71.851105 38.120209L72.516785 37.699631L73.200104 37.261734L73.883423 36.806183L74.601715 36.315674L75.320007 35.789856L76.055939 35.246735L76.826843 34.668640L77.615387 34.055573L78.421265 33.424866L79.244781 32.758865L80.085617 32.058228L80.944092 31.339935L81.820221 30.604004L82.713669 29.833099L83.589798 29.062195L84.483246 28.291290L85.359375 27.520386L86.217865 26.749481L87.041382 25.996231L87.829605 25.295258L88.583176 24.611938L89.283829 23.963593L89.914536 23.385483L90.475311 22.860001L90.965820 22.404465L91.386398 22.018845L91.736725 21.703491L91.999466 21.440750L92.209915 21.247940L92.349792 21.125397L92.437698 21.037811L92.489990 20.985199L92.507629 20.967560" style="stroke:rgb(0.000000%,0.000000%,0.000000%); stroke-width: 4.363632;stroke-linecap: round;stroke-linejoin: round;stroke-miterlimit: 10.000000;fill: none;"></path>
  <path d="M0.000000 107.000000L100.916885 107.000000" style="stroke:rgb(0.000000%,0.000000%,0.000000%); stroke-width: 0.555435;stroke-linecap: square;stroke-linejoin: round;stroke-miterlimit: 10.000000;fill: none;"></path>
  <path d="M0.000000 -0.057129L100.916885 -0.057129" style="stroke:rgb(0.000000%,0.000000%,0.000000%); stroke-width: 0.555435;stroke-linecap: square;stroke-linejoin: round;stroke-miterlimit: 10.000000;fill: none;"></path>
  <path d="M0.000000 107.000000L100.916885 107.000000" style="stroke:rgb(0.000000%,0.000000%,0.000000%); stroke-width: 0.555435;stroke-linecap: square;stroke-linejoin: round;stroke-miterlimit: 10.000000;fill: none;"></path>
  <path d="M0.000000 107.000000L0.000000 -0.057129" style="stroke:rgb(0.000000%,0.000000%,0.000000%); stroke-width: 0.555435;stroke-linecap: square;stroke-linejoin: round;stroke-miterlimit: 10.000000;fill: none;"></path>
  <path d="M100.916885 107.000000L100.916885 -0.057129" style="stroke:rgb(0.000000%,0.000000%,0.000000%); stroke-width: 0.555435;stroke-linecap: square;stroke-linejoin: round;stroke-miterlimit: 10.000000;fill: none;"></path>
</svg>
