<?xml version="1.0"?>
<!-- Created by MetaPost 1.9991 on 2022.02.17:1529 -->
<svg version="1.1" xmlns="http://www.w3.org/2000/svg" xmlns:xlink="http://www.w3.org/1999/xlink" width="101.472336" height="107.612579" viewBox="0 0 101.472336 107.612579">
<!-- Original BoundingBox: -0.277725 -0.277725 101.194611 107.334854 -->
  <path d="M8.409668 63.016541L33.376251 63.016541" style="stroke:rgb(0.000000%,0.000000%,0.000000%); stroke-width: 4.363632;stroke-linecap: round;stroke-linejoin: round;stroke-miterlimit: 10.000000;fill: none;"></path>
  <path d="M66.227020 63.016541L92.507629 63.016541" style="stroke:rgb(0.000000%,0.000000%,0.000000%); stroke-width: 4.363632;stroke-linecap: round;stroke-linejoin: round;stroke-miterlimit: 10.000000;fill: none;"></path>
  <path d="M18.921921 84.041031L18.956879 84.041031L19.044464 84.041031L19.219620 84.023712L19.482681 84.023712L19.833008 84.006058L20.305878 83.988739L20.884293 83.953445L21.549973 83.918488L22.320877 83.865875L23.144394 83.813583L24.037842 83.760971L24.966583 83.690704L25.895004 83.620773L26.841064 83.533188L27.787125 83.445602L28.698227 83.340378L29.574356 83.235153L30.415192 83.112610L31.221375 82.990067L31.992279 82.849869L32.710571 82.709671L33.393890 82.551834L34.041931 82.394318L34.637665 82.219162L35.215759 82.026352L35.758896 81.816223L36.284698 81.588455L36.792862 81.360672L37.265732 81.097610L37.738922 80.834869L38.194473 80.537155L38.614731 80.239136L39.035309 79.941422L39.438248 79.608429L39.841171 79.258102L40.244110 78.890137L40.647369 78.522171L41.050308 78.101898L41.453247 77.681320L41.856171 77.243423L42.241470 76.770233L42.644394 76.297043L43.030014 75.789200L43.432953 75.263397L43.818558 74.737915L44.203857 74.177139L44.589462 73.616684L44.957108 73.038269L45.325073 72.460175L45.693039 71.864426L46.061005 71.268692L46.411331 70.673264L46.761978 70.059891L47.112305 69.464142L47.445297 68.851074L47.777969 68.255341L48.093323 67.659592L48.408691 67.063858L48.706711 66.468109L49.022064 65.872375L49.302460 65.294281L49.600159 64.716187L49.897873 64.155411L50.178268 63.577316L50.458649 63.016541L50.739029 62.456085L51.019424 61.877991L51.317139 61.317215L51.614838 60.739120L51.895233 60.161026L52.210587 59.565277L52.508606 58.969543L52.823975 58.373795L53.139328 57.778061L53.472000 57.182327L53.804993 56.569260L54.155319 55.973511L54.505966 55.360123L54.856293 54.764709L55.224258 54.168961L55.592224 53.573227L55.960190 52.995132L56.327835 52.416718L56.713440 51.856262L57.098740 51.295486L57.484344 50.770004L57.887283 50.244202L58.272903 49.736359L58.675827 49.263168L59.061127 48.789978L59.464050 48.352066L59.866989 47.931488L60.269928 47.511230L60.673187 47.143265L61.076126 46.775299L61.479050 46.424973L61.881989 46.091980L62.302567 45.794266L62.722824 45.496231L63.178375 45.198532L63.651566 44.935791L64.124435 44.672729L64.632599 44.444946L65.158401 44.217178L65.701538 44.007050L66.279633 43.814240L66.875366 43.639084L67.523407 43.481567L68.206726 43.323730L68.925018 43.183533L69.695923 43.043335L70.502106 42.920792L71.342941 42.798233L72.219070 42.693008L73.130173 42.587784L74.076233 42.500214L75.022293 42.412628L75.950714 42.342697L76.879456 42.272430L77.772903 42.219818L78.596420 42.167526L79.367325 42.114914L80.033005 42.079956L80.611420 42.044662L81.084290 42.027344L81.434616 42.009689L81.697678 42.009689L81.872833 41.992050L81.960419 41.992050L81.995392 41.992050" style="stroke:rgb(0.000000%,0.000000%,0.000000%); stroke-width: 4.363632;stroke-linecap: round;stroke-linejoin: round;stroke-miterlimit: 10.000000;fill: none;"></path>
  <path d="M0.000000 107.000000L100.916885 107.000000" style="stroke:rgb(0.000000%,0.000000%,0.000000%); stroke-width: 0.555435;stroke-linecap: square;stroke-linejoin: round;stroke-miterlimit: 10.000000;fill: none;"></path>
  <path d="M0.000000 -0.057129L100.916885 -0.057129" style="stroke:rgb(0.000000%,0.000000%,0.000000%); stroke-width: 0.555435;stroke-linecap: square;stroke-linejoin: round;stroke-miterlimit: 10.000000;fill: none;"></path>
  <path d="M0.000000 107.000000L100.916885 107.000000" style="stroke:rgb(0.000000%,0.000000%,0.000000%); stroke-width: 0.555435;stroke-linecap: square;stroke-linejoin: round;stroke-miterlimit: 10.000000;fill: none;"></path>
  <path d="M0.000000 107.000000L0.000000 -0.057129" style="stroke:rgb(0.000000%,0.000000%,0.000000%); stroke-width: 0.555435;stroke-linecap: square;stroke-linejoin: round;stroke-miterlimit: 10.000000;fill: none;"></path>
  <path d="M100.916885 107.000000L100.916885 -0.057129" style="stroke:rgb(0.000000%,0.000000%,0.000000%); stroke-width: 0.555435;stroke-linecap: square;stroke-linejoin: round;stroke-miterlimit: 10.000000;fill: none;"></path>
</svg>
