<?xml version="1.0"?>
<!-- Created by MetaPost 1.9991 on 2022.02.18:1311 -->
<svg version="1.1" xmlns="http://www.w3.org/2000/svg" xmlns:xlink="http://www.w3.org/1999/xlink" width="94.689453" height="67.189774" viewBox="0 0 94.689453 67.189774">
<!-- Original BoundingBox: 6.227844 20.777145 94.689453 67.189774 -->
  <path d="M8.409668 23.016541L33.376251 23.016541" style="stroke:rgb(0.000000%,0.000000%,0.000000%); stroke-width: 4.363632;stroke-linecap: round;stroke-linejoin: round;stroke-miterlimit: 10.000000;fill: none;"></path>
  <path d="M66.227020 23.016541L92.507629 23.016541" style="stroke:rgb(0.000000%,0.000000%,0.000000%); stroke-width: 4.363632;stroke-linecap: round;stroke-linejoin: round;stroke-miterlimit: 10.000000;fill: none;"></path>
  <path d="M18.921921 44.041031L18.956879 44.041031L19.044464 44.041031L19.219620 44.023712L19.482681 44.023712L19.833008 44.006058L20.305878 43.988739L20.884293 43.953445L21.549973 43.918488L22.320877 43.865875L23.144394 43.813583L24.037842 43.760971L24.966583 43.690704L25.895004 43.620773L26.841064 43.533188L27.787125 43.445602L28.698227 43.340378L29.574356 43.235153L30.415192 43.112610L31.221375 42.990067L31.992279 42.849869L32.710571 42.709671L33.393890 42.551834L34.041931 42.394318L34.637665 42.219162L35.215759 42.026352L35.758896 41.816223L36.284698 41.588455L36.792862 41.360672L37.265732 41.097610L37.738922 40.834869L38.194473 40.537155L38.614731 40.239136L39.035309 39.941422L39.438248 39.608429L39.841171 39.258102L40.244110 38.890137L40.647369 38.522171L41.050308 38.101898L41.453247 37.681320L41.856171 37.243423L42.241470 36.770233L42.644394 36.297043L43.030014 35.789200L43.432953 35.263397L43.818558 34.737915L44.203857 34.177139L44.589462 33.616684L44.957108 33.038269L45.325073 32.460175L45.693039 31.864426L46.061005 31.268692L46.411331 30.673264L46.761978 30.059891L47.112305 29.464142L47.445297 28.851074L47.777969 28.255341L48.093323 27.659592L48.408691 27.063858L48.706711 26.468109L49.022064 25.872375L49.302460 25.294281L49.600159 24.716187L49.897873 24.155411L50.178268 23.577316L50.458649 23.016541L50.739029 22.456085L51.019424 21.877991L51.317139 21.317215L51.614838 20.739120L51.895233 20.161026L52.210587 19.565277L52.508606 18.969543L52.823975 18.373795L53.139328 17.778061L53.472000 17.182327L53.804993 16.569260L54.155319 15.973511L54.505966 15.360123L54.856293 14.764709L55.224258 14.168961L55.592224 13.573227L55.960190 12.995132L56.327835 12.416718L56.713440 11.856262L57.098740 11.295486L57.484344 10.770004L57.887283 10.244202L58.272903 9.736359L58.675827 9.263168L59.061127 8.789978L59.464050 8.352066L59.866989 7.931488L60.269928 7.511230L60.673187 7.143265L61.076126 6.775299L61.479050 6.424973L61.881989 6.091980L62.302567 5.794266L62.722824 5.496231L63.178375 5.198532L63.651566 4.935791L64.124435 4.672729L64.632599 4.444946L65.158401 4.217178L65.701538 4.007050L66.279633 3.814240L66.875366 3.639084L67.523407 3.481567L68.206726 3.323730L68.925018 3.183533L69.695923 3.043335L70.502106 2.920792L71.342941 2.798233L72.219070 2.693008L73.130173 2.587784L74.076233 2.500214L75.022293 2.412628L75.950714 2.342697L76.879456 2.272430L77.772903 2.219818L78.596420 2.167526L79.367325 2.114914L80.033005 2.079956L80.611420 2.044662L81.084290 2.027344L81.434616 2.009689L81.697678 2.009689L81.872833 1.992050L81.960419 1.992050L81.995392 1.992050" style="stroke:rgb(0.000000%,0.000000%,0.000000%); stroke-width: 4.363632;stroke-linecap: round;stroke-linejoin: round;stroke-miterlimit: 10.000000;fill: none;"></path>
</svg>
