<?xml version="1.0"?>
<!-- Created by MetaPost 1.9991 on 2022.02.18:1311 -->
<svg version="1.1" xmlns="http://www.w3.org/2000/svg" xmlns:xlink="http://www.w3.org/1999/xlink" width="93.953522" height="85.200592" viewBox="0 0 93.953522 85.200592">
<!-- Original BoundingBox: 6.595810 1.907532 93.953522 85.200592 -->
  <path d="M73.252716 46.955978L73.235077 46.991272L73.200104 47.061203L73.147491 47.183762L73.059906 47.376556L72.919724 47.656952L72.762207 48.024918L72.534424 48.480469L72.289017 49.023590L71.991302 49.636658L71.658295 50.302658L71.307983 51.038269L70.922363 51.826813L70.537079 52.632690L70.116501 53.438553L69.713562 54.262070L69.292984 55.067947L68.872726 55.874130L68.469788 56.645035L68.066528 57.398285L67.663589 58.098938L67.278305 58.799896L66.892700 59.448257L66.524719 60.078964L66.157074 60.657059L65.789108 61.235153L65.438477 61.778290L65.070816 62.304092L64.702850 62.794601L64.334885 63.285126L63.966919 63.758316L63.581314 64.231186L63.196014 64.686737L62.810410 65.142288L62.407471 65.562866L62.022186 65.983124L61.619247 66.403702L61.198669 66.824280L60.760757 67.244858L60.305222 67.665115L59.849670 68.103348L59.376480 68.523605L58.885956 68.944183L58.395447 69.364761L57.869644 69.802658L57.344162 70.223251L56.818680 70.643829L56.275543 71.064087L55.714767 71.484665L55.153992 71.905243L54.575897 72.308182L53.997803 72.711105L53.419708 73.096405L52.841293 73.482010L52.263199 73.867310L51.667450 74.235275L51.089355 74.585922L50.511261 74.918594L49.950485 75.251587L49.390030 75.584595L48.829269 75.882309L48.268494 76.180008L47.725357 76.460403L47.199875 76.723145L46.674393 76.986206L46.148590 77.231308L45.640427 77.459076L45.132584 77.686844L44.641754 77.897293L44.151230 78.089783L43.555496 78.317551L42.977402 78.545334L42.381653 78.738144L41.803558 78.930939L41.207825 79.106110L40.612076 79.281265L39.999023 79.439102L39.385635 79.578979L38.772568 79.719162L38.159180 79.824387L37.528473 79.929611L36.897766 80.034531L36.284698 80.104782L35.653992 80.174713L35.023285 80.210007L34.392578 80.244980L33.779190 80.262299L33.166122 80.279938L32.552734 80.262299L31.957001 80.244980L31.378891 80.192368L30.800797 80.139755L30.222702 80.087143L29.679581 79.999557L29.136444 79.911972L28.593323 79.824387L28.067520 79.701843L27.542038 79.578979L27.033875 79.456421L26.525711 79.316238L26.017548 79.158722L25.509705 78.983551L24.983902 78.808075L24.475739 78.615585L23.950256 78.405136L23.424774 78.177368L22.881653 77.932266L22.338516 77.669525L21.795395 77.389145L21.252258 77.108749L20.709137 76.793396L20.166000 76.460403L19.622879 76.127716L19.079758 75.759750L18.553940 75.391785L18.028458 75.006180L17.520309 74.620880L17.012146 74.200302L16.539276 73.797363L16.066071 73.359467L15.610535 72.938889L15.172623 72.500977L14.752045 72.062759L14.349106 71.607208L13.963501 71.151657L13.613174 70.696121L13.262848 70.223251L12.929855 69.767700L12.614502 69.294510L12.334122 68.803986L12.036407 68.313477L11.773666 67.805313L11.510925 67.279831L11.265503 66.754028L11.037735 66.193573L10.809952 65.632797L10.599823 65.037064L10.389374 64.441635L10.196884 63.828247L10.021408 63.215195L9.846252 62.584152L9.688736 61.936127L9.530899 61.287766L9.408340 60.622101L9.285797 59.973740L9.180573 59.325394L9.075348 58.677353L9.005402 58.029007L8.935150 57.398285L8.882858 56.784912L8.830246 56.171844L8.812607 55.576096L8.794952 54.998001L8.777634 54.454880L8.777634 53.911743L8.794952 53.385941L8.812607 52.895432L8.847565 52.404907L8.882858 51.932037L8.935150 51.476486L9.005402 50.933365L9.092987 50.407562L9.198212 49.882080L9.320770 49.391556L9.460953 48.883392L9.618469 48.392883L9.811279 47.884720L10.021408 47.359238L10.249176 46.833435L10.512253 46.290298L10.792313 45.747177L11.107666 45.169083L11.423019 44.608307L11.738693 44.047852L12.071381 43.504730L12.369400 42.996567L12.649475 42.541016L12.894882 42.155411L13.087692 41.840057L13.245209 41.612274L13.332794 41.472092L13.403046 41.384506L13.420380 41.349533" style="stroke:rgb(0.000000%,0.000000%,0.000000%); stroke-width: 4.363632;stroke-linecap: round;stroke-linejoin: round;stroke-miterlimit: 10.000000;fill: none;"></path>
  <path d="M38.474533 65.667770L38.457214 65.632797L38.404602 65.580185L38.334656 65.457642L38.211792 65.282471L38.036636 65.037064L37.791534 64.704376L37.511154 64.283798L37.178146 63.793289L36.792862 63.232513L36.354630 62.619446L35.899094 61.936127L35.426208 61.217834L34.918060 60.481903L34.409897 59.710999L33.919373 58.940094L33.411224 58.186844L32.938354 57.415939L32.465149 56.680008L32.027252 55.961716L31.606674 55.260742L31.203735 54.577423L30.835770 53.929398L30.467804 53.281036L30.135132 52.667648L29.837097 52.071915L29.539383 51.493820L29.276321 50.915726L29.013580 50.354950L28.785812 49.776855L28.558029 49.233719L28.347900 48.655624L28.137772 48.094849L27.944962 47.534393L27.769806 46.991272L27.594650 46.430496L27.436813 45.869720L27.279282 45.291626L27.139099 44.695892L26.998901 44.100143L26.858704 43.504730L26.718521 42.873703L26.595963 42.242996L26.490738 41.594955L26.368195 40.928955L26.262970 40.263275L26.175385 39.597610L26.087814 38.896637L26.000229 38.213318L25.929962 37.512665L25.860031 36.811707L25.789780 36.111053L25.737488 35.427734L25.702194 34.726776L25.667221 34.026123L25.649902 33.342804L25.614609 32.659485L25.614609 31.993805L25.614609 31.327805L25.614609 30.679779L25.632263 30.049072L25.649902 29.418030L25.684875 28.822617L25.719833 28.209229L25.754807 27.631134L25.807419 27.053040L25.860031 26.509903L25.912643 25.949142L25.982590 25.423660L26.052841 24.897842L26.157745 24.267136L26.262970 23.654068L26.368195 23.040695L26.508392 22.444946L26.648254 21.831879L26.806091 21.236145L26.963928 20.623077L27.139099 20.027344L27.331573 19.431595L27.542038 18.835861L27.769806 18.240112L27.997574 17.662018L28.242676 17.066284L28.505417 16.488174L28.785812 15.927414L29.066193 15.366959L29.364227 14.823822L29.661926 14.298019L29.977280 13.772537L30.292648 13.264374L30.625641 12.773865L30.958313 12.300674L31.291321 11.845123L31.641647 11.407227L31.974640 10.969315L32.342606 10.566376L32.692932 10.163132L33.060898 9.777832L33.428864 9.392227L33.814148 9.024582L34.199768 8.656616L34.602707 8.305969L35.023285 7.938324L35.443542 7.587677L35.881760 7.237350L36.354630 6.904358L36.827820 6.554031L37.318344 6.221039L37.826508 5.888351L38.351990 5.572998L38.895111 5.240005L39.455887 4.942291L40.016342 4.644257L40.594757 4.346558L41.190491 4.083801L41.785919 3.820740L42.381653 3.575653L42.977402 3.347870L43.590790 3.120102L44.186203 2.927292L44.799591 2.752136L45.395325 2.594299L45.991074 2.454422L46.569168 2.331558L47.164917 2.226654L47.743011 2.138748L48.303772 2.068817L48.881882 2.016205L49.442322 1.998871L50.020752 1.981232L50.581192 1.981232L51.159622 1.998871L51.737717 2.033844L52.315811 2.086456L52.911545 2.156387L53.524612 2.261612L54.138000 2.366516L54.751068 2.489395L55.381775 2.611938L56.012482 2.769775L56.643509 2.944946L57.274216 3.137421L57.922256 3.330231L58.552963 3.540680L59.183670 3.768448L59.797058 3.996231L60.410126 4.241318L61.005859 4.486740L61.583954 4.749481L62.144730 5.012222L62.687866 5.274963L63.213669 5.555359L63.721497 5.818100L64.212021 6.098480L64.685211 6.361221L65.123108 6.641617L65.543701 6.904358L65.946625 7.167419L66.332245 7.447479L66.717529 7.710541L67.155762 8.043228L67.558685 8.393539L67.961624 8.744186L68.329590 9.094513L68.697235 9.462479L69.047882 9.865417L69.380554 10.268356L69.731201 10.706253L70.063889 11.179443L70.414520 11.669968L70.747208 12.195770L71.080200 12.738892L71.413208 13.299347L71.745880 13.860123L72.061234 14.420578L72.341629 14.928726L72.587036 15.401917L72.797165 15.804855L72.972336 16.137863L73.094879 16.382950L73.165131 16.540787L73.217743 16.628372L73.235077 16.663345" style="stroke:rgb(0.000000%,0.000000%,0.000000%); stroke-width: 4.363632;stroke-linecap: round;stroke-linejoin: round;stroke-miterlimit: 10.000000;fill: none;"></path>
  <path d="M39.648697 26.194550L39.683655 26.194550L39.753601 26.176910L39.893784 26.176910L40.121567 26.159271L40.419601 26.124298L40.822525 26.089325L41.330368 26.054367L41.908783 26.001755L42.592102 25.949142L43.345367 25.896530L44.168884 25.826584L45.027359 25.773972L45.920822 25.721359L46.831909 25.668747L47.760651 25.616135L48.671432 25.563843L49.565201 25.528564L50.441010 25.493591L51.282166 25.475952L52.105682 25.458618L52.893906 25.440979L53.647476 25.440979L54.383102 25.458618L55.084061 25.475952L55.749741 25.511230L56.398087 25.563843L57.028809 25.598816L57.659515 25.668747L58.255249 25.739014L58.850998 25.826584L59.446732 25.931488L60.042160 26.036713L60.637894 26.159271L61.216309 26.282135L61.811737 26.422333L62.425125 26.579849L63.038177 26.737686L63.651566 26.912842L64.282272 27.105331L64.912979 27.298141L65.561340 27.525909L66.209366 27.753677L66.875366 27.981461L67.541046 28.244202L68.206726 28.507263L68.872726 28.787323L69.556046 29.067719L70.239044 29.365738L70.905045 29.681107L71.588364 29.996460L72.254044 30.311813L72.902390 30.644485L73.568069 30.977493L74.198776 31.327805L74.829483 31.660812L75.442871 32.011124L76.055939 32.361450L76.634033 32.712097L77.194809 33.062424L77.755585 33.412735L78.298706 33.763382L78.806549 34.096069L79.314713 34.446381L79.805222 34.797028L80.260773 35.147354L80.733963 35.480347L81.171875 35.830673L81.662384 36.233612L82.135574 36.619217L82.608444 37.039474L83.063995 37.442413L83.519547 37.862991L83.975098 38.300903L84.413315 38.756439L84.833572 39.211990L85.254150 39.667542L85.674728 40.158051L86.077667 40.631241L86.462967 41.139404L86.848572 41.647568L87.216537 42.155411L87.566864 42.681213L87.917191 43.189377L88.232544 43.732498L88.547897 44.257980L88.845917 44.783463L89.126312 45.309280L89.389053 45.834763L89.634155 46.360565L89.861923 46.886047L90.072372 47.411530L90.264862 47.919693L90.440338 48.445496L90.615509 48.953339L90.773026 49.461502L90.913208 49.969650L91.035767 50.477814L91.158630 51.003296L91.263535 51.528778L91.368759 52.071915L91.456345 52.615356L91.543915 53.175812L91.614182 53.736588L91.666794 54.332321L91.701752 54.927750L91.736725 55.523483L91.754364 56.154190L91.771698 56.784912L91.754364 57.415939L91.736725 58.046646L91.684113 58.694672L91.631500 59.343033L91.561569 59.991379L91.473984 60.639420L91.368759 61.270126L91.263535 61.901154L91.123657 62.514221L90.983475 63.127609L90.808304 63.723022L90.632828 64.318771L90.457672 64.879547L90.247528 65.439987L90.037399 65.983124L89.809631 66.508926L89.564209 67.034409L89.301468 67.542572L89.038727 68.033081L88.758347 68.523605L88.442993 69.014435L88.127640 69.504959L87.776993 69.977829L87.426666 70.451019L87.041382 70.941528L86.655762 71.414719L86.235184 71.887604L85.797287 72.360794L85.359375 72.833664L84.886185 73.289215L84.413315 73.762405L83.922485 74.200302L83.414642 74.655853L82.906479 75.076431L82.398315 75.497009L81.890152 75.899948L81.364670 76.302887L80.856522 76.670853L80.348358 77.021164L79.840515 77.371490L79.349686 77.686844L78.859161 77.984879L78.386292 78.282593L77.913101 78.545334L77.457550 78.790756L77.001999 79.018524L76.581421 79.246292L76.143524 79.439102L75.740585 79.631592L75.215103 79.842041L74.724258 80.034531L74.216431 80.192368L73.725906 80.332550L73.217743 80.472748L72.709595 80.577652L72.184113 80.665237L71.623337 80.735489L71.045242 80.805420L70.449493 80.840714L69.836105 80.875687L69.188080 80.910645L68.539719 80.910645L67.891373 80.910645L67.260666 80.910645L66.664917 80.893005L66.139435 80.875687L65.683884 80.858032L65.315918 80.840714L65.035538 80.823074L64.860367 80.823074L64.772797 80.805420L64.720184 80.805420" style="stroke:rgb(0.000000%,0.000000%,0.000000%); stroke-width: 4.363632;stroke-linecap: round;stroke-linejoin: round;stroke-miterlimit: 10.000000;fill: none;"></path>
</svg>
