<?xml version="1.0"?>
<!-- Created by MetaPost 1.9991 on 2022.02.17:1529 -->
<svg version="1.1" xmlns="http://www.w3.org/2000/svg" xmlns:xlink="http://www.w3.org/1999/xlink" width="101.472336" height="107.612579" viewBox="0 0 101.472336 107.612579">
<!-- Original BoundingBox: -0.277725 -0.277725 101.194611 107.334854 -->
  <path d="M73.252716 68.955978L73.235077 68.991272L73.200104 69.061203L73.147491 69.183762L73.059906 69.376556L72.919724 69.656952L72.762207 70.024918L72.534424 70.480469L72.289017 71.023590L71.991302 71.636658L71.658295 72.302658L71.307983 73.038269L70.922363 73.826813L70.537079 74.632690L70.116501 75.438553L69.713562 76.262070L69.292984 77.067947L68.872726 77.874130L68.469788 78.645035L68.066528 79.398285L67.663589 80.098938L67.278305 80.799896L66.892700 81.448257L66.524719 82.078964L66.157074 82.657059L65.789108 83.235153L65.438477 83.778290L65.070816 84.304092L64.702850 84.794601L64.334885 85.285126L63.966919 85.758316L63.581314 86.231186L63.196014 86.686737L62.810410 87.142288L62.407471 87.562866L62.022186 87.983124L61.619247 88.403702L61.198669 88.824280L60.760757 89.244858L60.305222 89.665115L59.849670 90.103348L59.376480 90.523605L58.885956 90.944183L58.395447 91.364761L57.869644 91.802658L57.344162 92.223251L56.818680 92.643829L56.275543 93.064087L55.714767 93.484665L55.153992 93.905243L54.575897 94.308182L53.997803 94.711105L53.419708 95.096405L52.841293 95.482010L52.263199 95.867310L51.667450 96.235275L51.089355 96.585922L50.511261 96.918594L49.950485 97.251587L49.390030 97.584595L48.829269 97.882309L48.268494 98.180008L47.725357 98.460403L47.199875 98.723145L46.674393 98.986206L46.148590 99.231308L45.640427 99.459076L45.132584 99.686844L44.641754 99.897293L44.151230 100.089783L43.555496 100.317551L42.977402 100.545334L42.381653 100.738144L41.803558 100.930939L41.207825 101.106110L40.612076 101.281265L39.999023 101.439102L39.385635 101.578979L38.772568 101.719162L38.159180 101.824387L37.528473 101.929611L36.897766 102.034531L36.284698 102.104782L35.653992 102.174713L35.023285 102.210007L34.392578 102.244980L33.779190 102.262299L33.166122 102.279938L32.552734 102.262299L31.957001 102.244980L31.378891 102.192368L30.800797 102.139755L30.222702 102.087143L29.679581 101.999557L29.136444 101.911972L28.593323 101.824387L28.067520 101.701843L27.542038 101.578979L27.033875 101.456421L26.525711 101.316238L26.017548 101.158722L25.509705 100.983551L24.983902 100.808075L24.475739 100.615585L23.950256 100.405136L23.424774 100.177368L22.881653 99.932266L22.338516 99.669525L21.795395 99.389145L21.252258 99.108749L20.709137 98.793396L20.166000 98.460403L19.622879 98.127716L19.079758 97.759750L18.553940 97.391785L18.028458 97.006180L17.520309 96.620880L17.012146 96.200302L16.539276 95.797363L16.066071 95.359467L15.610535 94.938889L15.172623 94.500977L14.752045 94.062759L14.349106 93.607208L13.963501 93.151657L13.613174 92.696121L13.262848 92.223251L12.929855 91.767700L12.614502 91.294510L12.334122 90.803986L12.036407 90.313477L11.773666 89.805313L11.510925 89.279831L11.265503 88.754028L11.037735 88.193573L10.809952 87.632797L10.599823 87.037064L10.389374 86.441635L10.196884 85.828247L10.021408 85.215195L9.846252 84.584152L9.688736 83.936127L9.530899 83.287766L9.408340 82.622101L9.285797 81.973740L9.180573 81.325394L9.075348 80.677353L9.005402 80.029007L8.935150 79.398285L8.882858 78.784912L8.830246 78.171844L8.812607 77.576096L8.794952 76.998001L8.777634 76.454880L8.777634 75.911743L8.794952 75.385941L8.812607 74.895432L8.847565 74.404907L8.882858 73.932037L8.935150 73.476486L9.005402 72.933365L9.092987 72.407562L9.198212 71.882080L9.320770 71.391556L9.460953 70.883392L9.618469 70.392883L9.811279 69.884720L10.021408 69.359238L10.249176 68.833435L10.512253 68.290298L10.792313 67.747177L11.107666 67.169083L11.423019 66.608307L11.738693 66.047852L12.071381 65.504730L12.369400 64.996567L12.649475 64.541016L12.894882 64.155411L13.087692 63.840057L13.245209 63.612274L13.332794 63.472092L13.403046 63.384506L13.420380 63.349533" style="stroke:rgb(0.000000%,0.000000%,0.000000%); stroke-width: 4.363632;stroke-linecap: round;stroke-linejoin: round;stroke-miterlimit: 10.000000;fill: none;"></path>
  <path d="M38.474533 87.667770L38.457214 87.632797L38.404602 87.580185L38.334656 87.457642L38.211792 87.282471L38.036636 87.037064L37.791534 86.704376L37.511154 86.283798L37.178146 85.793289L36.792862 85.232513L36.354630 84.619446L35.899094 83.936127L35.426208 83.217834L34.918060 82.481903L34.409897 81.710999L33.919373 80.940094L33.411224 80.186844L32.938354 79.415939L32.465149 78.680008L32.027252 77.961716L31.606674 77.260742L31.203735 76.577423L30.835770 75.929398L30.467804 75.281036L30.135132 74.667648L29.837097 74.071915L29.539383 73.493820L29.276321 72.915726L29.013580 72.354950L28.785812 71.776855L28.558029 71.233719L28.347900 70.655624L28.137772 70.094849L27.944962 69.534393L27.769806 68.991272L27.594650 68.430496L27.436813 67.869720L27.279282 67.291626L27.139099 66.695892L26.998901 66.100143L26.858704 65.504730L26.718521 64.873703L26.595963 64.242996L26.490738 63.594955L26.368195 62.928955L26.262970 62.263275L26.175385 61.597610L26.087814 60.896637L26.000229 60.213318L25.929962 59.512665L25.860031 58.811707L25.789780 58.111053L25.737488 57.427734L25.702194 56.726776L25.667221 56.026123L25.649902 55.342804L25.614609 54.659485L25.614609 53.993805L25.614609 53.327805L25.614609 52.679779L25.632263 52.049072L25.649902 51.418030L25.684875 50.822617L25.719833 50.209229L25.754807 49.631134L25.807419 49.053040L25.860031 48.509903L25.912643 47.949142L25.982590 47.423660L26.052841 46.897842L26.157745 46.267136L26.262970 45.654068L26.368195 45.040695L26.508392 44.444946L26.648254 43.831879L26.806091 43.236145L26.963928 42.623077L27.139099 42.027344L27.331573 41.431595L27.542038 40.835861L27.769806 40.240112L27.997574 39.662018L28.242676 39.066284L28.505417 38.488174L28.785812 37.927414L29.066193 37.366959L29.364227 36.823822L29.661926 36.298019L29.977280 35.772537L30.292648 35.264374L30.625641 34.773865L30.958313 34.300674L31.291321 33.845123L31.641647 33.407227L31.974640 32.969315L32.342606 32.566376L32.692932 32.163132L33.060898 31.777832L33.428864 31.392227L33.814148 31.024582L34.199768 30.656616L34.602707 30.305969L35.023285 29.938324L35.443542 29.587677L35.881760 29.237350L36.354630 28.904358L36.827820 28.554031L37.318344 28.221039L37.826508 27.888351L38.351990 27.572998L38.895111 27.240005L39.455887 26.942291L40.016342 26.644257L40.594757 26.346558L41.190491 26.083801L41.785919 25.820740L42.381653 25.575653L42.977402 25.347870L43.590790 25.120102L44.186203 24.927292L44.799591 24.752136L45.395325 24.594299L45.991074 24.454422L46.569168 24.331558L47.164917 24.226654L47.743011 24.138748L48.303772 24.068817L48.881882 24.016205L49.442322 23.998871L50.020752 23.981232L50.581192 23.981232L51.159622 23.998871L51.737717 24.033844L52.315811 24.086456L52.911545 24.156387L53.524612 24.261612L54.138000 24.366516L54.751068 24.489395L55.381775 24.611938L56.012482 24.769775L56.643509 24.944946L57.274216 25.137421L57.922256 25.330231L58.552963 25.540680L59.183670 25.768448L59.797058 25.996231L60.410126 26.241318L61.005859 26.486740L61.583954 26.749481L62.144730 27.012222L62.687866 27.274963L63.213669 27.555359L63.721497 27.818100L64.212021 28.098480L64.685211 28.361221L65.123108 28.641617L65.543701 28.904358L65.946625 29.167419L66.332245 29.447479L66.717529 29.710541L67.155762 30.043228L67.558685 30.393539L67.961624 30.744186L68.329590 31.094513L68.697235 31.462479L69.047882 31.865417L69.380554 32.268356L69.731201 32.706253L70.063889 33.179443L70.414520 33.669968L70.747208 34.195770L71.080200 34.738892L71.413208 35.299347L71.745880 35.860123L72.061234 36.420578L72.341629 36.928726L72.587036 37.401917L72.797165 37.804855L72.972336 38.137863L73.094879 38.382950L73.165131 38.540787L73.217743 38.628372L73.235077 38.663345" style="stroke:rgb(0.000000%,0.000000%,0.000000%); stroke-width: 4.363632;stroke-linecap: round;stroke-linejoin: round;stroke-miterlimit: 10.000000;fill: none;"></path>
  <path d="M39.648697 48.194550L39.683655 48.194550L39.753601 48.176910L39.893784 48.176910L40.121567 48.159271L40.419601 48.124298L40.822525 48.089325L41.330368 48.054367L41.908783 48.001755L42.592102 47.949142L43.345367 47.896530L44.168884 47.826584L45.027359 47.773972L45.920822 47.721359L46.831909 47.668747L47.760651 47.616135L48.671432 47.563843L49.565201 47.528564L50.441010 47.493591L51.282166 47.475952L52.105682 47.458618L52.893906 47.440979L53.647476 47.440979L54.383102 47.458618L55.084061 47.475952L55.749741 47.511230L56.398087 47.563843L57.028809 47.598816L57.659515 47.668747L58.255249 47.739014L58.850998 47.826584L59.446732 47.931488L60.042160 48.036713L60.637894 48.159271L61.216309 48.282135L61.811737 48.422333L62.425125 48.579849L63.038177 48.737686L63.651566 48.912842L64.282272 49.105331L64.912979 49.298141L65.561340 49.525909L66.209366 49.753677L66.875366 49.981461L67.541046 50.244202L68.206726 50.507263L68.872726 50.787323L69.556046 51.067719L70.239044 51.365738L70.905045 51.681107L71.588364 51.996460L72.254044 52.311813L72.902390 52.644485L73.568069 52.977493L74.198776 53.327805L74.829483 53.660812L75.442871 54.011124L76.055939 54.361450L76.634033 54.712097L77.194809 55.062424L77.755585 55.412735L78.298706 55.763382L78.806549 56.096069L79.314713 56.446381L79.805222 56.797028L80.260773 57.147354L80.733963 57.480347L81.171875 57.830673L81.662384 58.233612L82.135574 58.619217L82.608444 59.039474L83.063995 59.442413L83.519547 59.862991L83.975098 60.300903L84.413315 60.756439L84.833572 61.211990L85.254150 61.667542L85.674728 62.158051L86.077667 62.631241L86.462967 63.139404L86.848572 63.647568L87.216537 64.155411L87.566864 64.681213L87.917191 65.189377L88.232544 65.732498L88.547897 66.257980L88.845917 66.783463L89.126312 67.309280L89.389053 67.834763L89.634155 68.360565L89.861923 68.886047L90.072372 69.411530L90.264862 69.919693L90.440338 70.445496L90.615509 70.953339L90.773026 71.461502L90.913208 71.969650L91.035767 72.477814L91.158630 73.003296L91.263535 73.528778L91.368759 74.071915L91.456345 74.615356L91.543915 75.175812L91.614182 75.736588L91.666794 76.332321L91.701752 76.927750L91.736725 77.523483L91.754364 78.154190L91.771698 78.784912L91.754364 79.415939L91.736725 80.046646L91.684113 80.694672L91.631500 81.343033L91.561569 81.991379L91.473984 82.639420L91.368759 83.270126L91.263535 83.901154L91.123657 84.514221L90.983475 85.127609L90.808304 85.723022L90.632828 86.318771L90.457672 86.879547L90.247528 87.439987L90.037399 87.983124L89.809631 88.508926L89.564209 89.034409L89.301468 89.542572L89.038727 90.033081L88.758347 90.523605L88.442993 91.014435L88.127640 91.504959L87.776993 91.977829L87.426666 92.451019L87.041382 92.941528L86.655762 93.414719L86.235184 93.887604L85.797287 94.360794L85.359375 94.833664L84.886185 95.289215L84.413315 95.762405L83.922485 96.200302L83.414642 96.655853L82.906479 97.076431L82.398315 97.497009L81.890152 97.899948L81.364670 98.302887L80.856522 98.670853L80.348358 99.021164L79.840515 99.371490L79.349686 99.686844L78.859161 99.984879L78.386292 100.282593L77.913101 100.545334L77.457550 100.790756L77.001999 101.018524L76.581421 101.246292L76.143524 101.439102L75.740585 101.631592L75.215103 101.842041L74.724258 102.034531L74.216431 102.192368L73.725906 102.332550L73.217743 102.472748L72.709595 102.577652L72.184113 102.665237L71.623337 102.735489L71.045242 102.805420L70.449493 102.840714L69.836105 102.875687L69.188080 102.910645L68.539719 102.910645L67.891373 102.910645L67.260666 102.910645L66.664917 102.893005L66.139435 102.875687L65.683884 102.858032L65.315918 102.840714L65.035538 102.823074L64.860367 102.823074L64.772797 102.805420L64.720184 102.805420" style="stroke:rgb(0.000000%,0.000000%,0.000000%); stroke-width: 4.363632;stroke-linecap: round;stroke-linejoin: round;stroke-miterlimit: 10.000000;fill: none;"></path>
  <path d="M0.000000 107.000000L100.916885 107.000000" style="stroke:rgb(0.000000%,0.000000%,0.000000%); stroke-width: 0.555435;stroke-linecap: square;stroke-linejoin: round;stroke-miterlimit: 10.000000;fill: none;"></path>
  <path d="M0.000000 -0.057129L100.916885 -0.057129" style="stroke:rgb(0.000000%,0.000000%,0.000000%); stroke-width: 0.555435;stroke-linecap: square;stroke-linejoin: round;stroke-miterlimit: 10.000000;fill: none;"></path>
  <path d="M0.000000 107.000000L100.916885 107.000000" style="stroke:rgb(0.000000%,0.000000%,0.000000%); stroke-width: 0.555435;stroke-linecap: square;stroke-linejoin: round;stroke-miterlimit: 10.000000;fill: none;"></path>
  <path d="M0.000000 107.000000L0.000000 -0.057129" style="stroke:rgb(0.000000%,0.000000%,0.000000%); stroke-width: 0.555435;stroke-linecap: square;stroke-linejoin: round;stroke-miterlimit: 10.000000;fill: none;"></path>
  <path d="M100.916885 107.000000L100.916885 -0.057129" style="stroke:rgb(0.000000%,0.000000%,0.000000%); stroke-width: 0.555435;stroke-linecap: square;stroke-linejoin: round;stroke-miterlimit: 10.000000;fill: none;"></path>
</svg>
