<?xml version="1.0"?>
<!-- Created by MetaPost 1.9991 on 2022.02.18:1311 -->
<svg version="1.1" xmlns="http://www.w3.org/2000/svg" xmlns:xlink="http://www.w3.org/1999/xlink" width="75.11084" height="88.461609" viewBox="12.903229 -0.247345 75.11084 88.461609">
<!-- Original BoundingBox: 12.903229 -0.247345 88.014069 88.214264 -->
  <path d="M50.458649 58.470871L50.458649 1.967560" style="stroke:rgb(0.000000%,0.000000%,0.000000%); stroke-width: 4.363632;stroke-linecap: round;stroke-linejoin: round;stroke-miterlimit: 10.000000;fill: none;"></path>
  <path d="M50.458649 86.065521L50.458649 78.181335" style="stroke:rgb(0.000000%,0.000000%,0.000000%); stroke-width: 4.363632;stroke-linecap: round;stroke-linejoin: round;stroke-miterlimit: 10.000000;fill: none;"></path>
  <path d="M39.946411 29.562195L39.911438 29.579849L39.841171 29.597488L39.683655 29.667419L39.455887 29.755005L39.140533 29.877884L38.719955 30.035400L38.194473 30.245529L37.563766 30.490936L36.827820 30.771332L36.021957 31.086685L35.145828 31.437012L34.217087 31.822617L33.236053 32.225555L32.237381 32.628494L31.238708 33.049072L30.240036 33.486969L29.241348 33.907547L28.295288 34.327805L27.366867 34.748383L26.473099 35.168961L25.632263 35.571899L24.826385 35.957199L24.072815 36.360123L23.372162 36.728088L22.706161 37.096069L22.093109 37.464035L21.514999 37.832001L20.971878 38.182327L20.463715 38.532959L19.990524 38.900604L19.552628 39.251251L19.149689 39.619217L18.746750 39.969543L18.396423 40.354828L18.045792 40.740448L17.713104 41.125732L17.415070 41.511353L17.117371 41.931610L16.854630 42.352188L16.591568 42.772766L16.346466 43.210663L16.136017 43.666214L15.925888 44.139404L15.750717 44.612274L15.592880 45.103119L15.453018 45.610962L15.330139 46.119110L15.242569 46.627274L15.154984 47.152756L15.120010 47.678558L15.085052 48.221695L15.102371 48.764816L15.120010 49.307953L15.172623 49.851074L15.260208 50.394211L15.365112 50.919693L15.487976 51.462814L15.645493 51.988617L15.820663 52.514114L16.031113 53.022263L16.258881 53.530426L16.503983 54.038269L16.784363 54.511459L17.082397 55.001984L17.415070 55.457520L17.748077 55.913071L18.116043 56.350967L18.501328 56.789200L18.904266 57.209457L19.342499 57.630035L19.798035 58.032974L20.200974 58.365967L20.638885 58.716293L21.094421 59.049286L21.567612 59.381973L22.058136 59.697327L22.566299 60.030319L23.109421 60.345673L23.669876 60.661041L24.247971 60.976395L24.861359 61.274414L25.492065 61.589767L26.157745 61.887482L26.823746 62.185516L27.524384 62.465576L28.242676 62.745972L28.978607 63.026352L29.731873 63.306732L30.502777 63.569489L31.291321 63.832230L32.097183 64.077637L32.920700 64.305420L33.744217 64.550507L34.567734 64.760971L35.426208 64.971100L36.267059 65.163895L37.125534 65.356705L37.984024 65.531860L38.825180 65.707031L39.683655 65.847214L40.542145 66.004730L41.400635 66.127609L42.241470 66.250153L43.082626 66.355057L43.923462 66.442963L44.764618 66.530548L45.587814 66.600479L46.411331 66.653091L47.234848 66.705704L48.040710 66.740677L48.846909 66.775635L49.652771 66.793289L50.458649 66.793289L51.264526 66.793289L52.070389 66.775635L52.876587 66.740677L53.682449 66.705704L54.505966 66.653091L55.329483 66.600479L56.152679 66.530548L56.993835 66.442963L57.834671 66.355057L58.675827 66.250153L59.516663 66.127609L60.375153 66.004730L61.233643 65.847214L62.092117 65.707031L62.933273 65.531860L63.791763 65.356705L64.650238 65.163895L65.491089 64.971100L66.349564 64.760971L67.173080 64.550507L67.996597 64.305420L68.820114 64.077637L69.625977 63.832230L70.414520 63.569489L71.185425 63.306732L71.938690 63.026352L72.674622 62.745972L73.392914 62.465576L74.093552 62.185516L74.759552 61.887482L75.425232 61.589767L76.055939 61.274414L76.669327 60.976395L77.247421 60.661041L77.807877 60.345673L78.350998 60.030319L78.859161 59.697327L79.349686 59.381973L79.822876 59.049286L80.278412 58.716293L80.716324 58.365967L81.119263 58.032974L81.574799 57.630035L82.013031 57.209457L82.415970 56.789200L82.801254 56.350967L83.169220 55.913071L83.502228 55.457520L83.834900 55.001984L84.132935 54.511459L84.413315 54.038269L84.658417 53.530426L84.886185 53.022263L85.096634 52.514114L85.271805 51.988617L85.429321 51.462814L85.552185 50.919693L85.657089 50.394211L85.744675 49.851074L85.797287 49.307953L85.814926 48.764816L85.832245 48.221695L85.797287 47.678558L85.762314 47.152756L85.674728 46.627274L85.587158 46.119110L85.464279 45.610962L85.324417 45.103119L85.166580 44.612274L84.991409 44.139404L84.781281 43.666214L84.570831 43.210663L84.325729 42.772766L84.062668 42.352188L83.799927 41.931610L83.502228 41.511353L83.204193 41.125732L82.871506 40.740448L82.520874 40.354828L82.170547 39.969543L81.767609 39.619217L81.364670 39.251251L80.926773 38.900604L80.453583 38.532959L79.945419 38.182327L79.402298 37.832001L78.824188 37.464035L78.211136 37.096069L77.545135 36.728088L76.844482 36.360123L76.090912 35.957199L75.285034 35.571899L74.444199 35.168961L73.550430 34.748383L72.622009 34.327805L71.675949 33.907547L70.677261 33.486969L69.678589 33.049072L68.679916 32.628494L67.681244 32.225555L66.700211 31.822617L65.771469 31.437012L64.895340 31.086685L64.089478 30.771332L63.353531 30.490936L62.722824 30.245529L62.197342 30.035400L61.776764 29.877884L61.461411 29.755005L61.233643 29.667419L61.076126 29.597488L61.005859 29.579849L60.970901 29.562195" style="stroke:rgb(0.000000%,0.000000%,0.000000%); stroke-width: 4.363632;stroke-linecap: round;stroke-linejoin: round;stroke-miterlimit: 10.000000;fill: none;"></path>
</svg>
