<?xml version="1.0"?>
<!-- Created by MetaPost 1.9991 on 2022.02.17:1529 -->
<svg version="1.1" xmlns="http://www.w3.org/2000/svg" xmlns:xlink="http://www.w3.org/1999/xlink" width="84.653397" height="107.612579" viewBox="0 0 84.653397 107.612579">
<!-- Original BoundingBox: -0.277725 -0.277725 84.375671 107.334854 -->
  <path d="M42.048981 77.470871L42.048981 20.967560" style="stroke:rgb(0.000000%,0.000000%,0.000000%); stroke-width: 4.363632;stroke-linecap: round;stroke-linejoin: round;stroke-miterlimit: 10.000000;fill: none;"></path>
  <path d="M35.478821 34.107864L42.048981 20.967560L48.619141 34.107864" style="stroke:rgb(0.000000%,0.000000%,0.000000%); stroke-width: 4.363632;stroke-linecap: round;stroke-linejoin: round;stroke-miterlimit: 10.000000;fill: none;"></path>
  <path d="M42.048981 105.065521L42.048981 97.181335" style="stroke:rgb(0.000000%,0.000000%,0.000000%); stroke-width: 4.363632;stroke-linecap: round;stroke-linejoin: round;stroke-miterlimit: 10.000000;fill: none;"></path>
  <path d="M68.329590 48.562195L52.561234 48.562195L60.445404 63.016541" style="stroke:rgb(0.000000%,0.000000%,0.000000%); stroke-width: 4.363632;stroke-linecap: round;stroke-linejoin: round;stroke-miterlimit: 10.000000;fill: none;"></path>
  <path d="M31.536743 48.562195L31.501770 48.579849L31.431503 48.597488L31.273987 48.667419L31.046219 48.755005L30.730865 48.877884L30.310287 49.035400L29.784805 49.245529L29.154099 49.490936L28.418152 49.771332L27.612289 50.086685L26.736160 50.437012L25.807419 50.822617L24.826385 51.225555L23.827713 51.628494L22.829041 52.049072L21.830368 52.486969L20.831680 52.907547L19.885620 53.327805L18.957199 53.748383L18.063431 54.168961L17.222595 54.571899L16.416718 54.957199L15.663147 55.360123L14.962494 55.728088L14.296494 56.096069L13.683441 56.464035L13.105331 56.832001L12.562210 57.182327L12.054047 57.532959L11.580856 57.900604L11.142960 58.251251L10.740021 58.619217L10.337082 58.969543L9.986755 59.354828L9.636124 59.740448L9.303436 60.125732L9.005402 60.511353L8.707703 60.931610L8.444962 61.352188L8.181900 61.772766L7.936798 62.210663L7.726349 62.666214L7.516220 63.139404L7.341049 63.612274L7.183212 64.103119L7.043350 64.610962L6.920471 65.119110L6.832901 65.627274L6.745316 66.152756L6.710342 66.678558L6.675385 67.221695L6.692703 67.764816L6.710342 68.307953L6.762955 68.851074L6.850540 69.394211L6.955444 69.919693L7.078308 70.462814L7.235825 70.988617L7.410995 71.514114L7.621445 72.022263L7.849213 72.530426L8.094315 73.038269L8.374695 73.511459L8.672729 74.001984L9.005402 74.457520L9.338409 74.913071L9.706375 75.350967L10.091660 75.789200L10.494598 76.209457L10.932831 76.630035L11.388367 77.032974L11.791306 77.365967L12.229218 77.716293L12.684753 78.049286L13.157944 78.381973L13.648468 78.697327L14.156631 79.030319L14.699753 79.345673L15.260208 79.661041L15.838303 79.976395L16.451691 80.274414L17.082397 80.589767L17.748077 80.887482L18.414078 81.185516L19.114716 81.465576L19.833008 81.745972L20.568939 82.026352L21.322205 82.306732L22.093109 82.569489L22.881653 82.832230L23.687515 83.077637L24.511032 83.305420L25.334549 83.550507L26.158066 83.760971L27.016541 83.971100L27.857391 84.163895L28.715866 84.356705L29.574356 84.531860L30.415512 84.707031L31.273987 84.847214L32.132477 85.004730L32.990967 85.127609L33.831802 85.250153L34.672958 85.355057L35.513794 85.442963L36.354950 85.530548L37.178146 85.600479L38.001663 85.653091L38.825180 85.705704L39.631042 85.740677L40.437241 85.775635L41.243103 85.793289L42.048981 85.793289L42.854858 85.793289L43.660721 85.775635L44.466919 85.740677L45.272781 85.705704L46.096298 85.653091L46.919815 85.600479L47.743011 85.530548L48.584167 85.442963L49.425003 85.355057L50.266159 85.250153L51.106995 85.127609L51.965485 85.004730L52.823975 84.847214L53.682449 84.707031L54.523605 84.531860L55.382095 84.356705L56.240570 84.163895L57.081421 83.971100L57.939896 83.760971L58.763412 83.550507L59.586929 83.305420L60.410446 83.077637L61.216309 82.832230L62.004852 82.569489L62.775757 82.306732L63.529022 82.026352L64.264954 81.745972L64.983246 81.465576L65.683884 81.185516L66.349884 80.887482L67.015564 80.589767L67.646271 80.274414L68.259659 79.976395L68.837753 79.661041L69.398209 79.345673L69.941330 79.030319L70.449493 78.697327L70.940018 78.381973L71.413208 78.049286L71.868744 77.716293L72.306656 77.365967L72.709595 77.032974L73.165131 76.630035L73.603363 76.209457L74.006302 75.789200L74.391586 75.350967L74.759552 74.913071L75.092560 74.457520L75.425232 74.001984L75.723267 73.511459L76.003647 73.038269L76.248749 72.530426L76.476517 72.022263L76.686966 71.514114L76.862137 70.988617L77.019653 70.462814L77.142517 69.919693L77.247421 69.394211L77.335007 68.851074L77.387619 68.307953L77.405258 67.764816L77.422577 67.221695L77.387619 66.678558L77.352646 66.152756L77.265060 65.627274L77.177490 65.119110L77.054611 64.610962L76.914749 64.103119L76.756912 63.612274L76.581741 63.139404L76.371613 62.666214L76.161163 62.210663L75.916061 61.772766L75.653000 61.352188L75.390259 60.931610L75.092560 60.511353L74.794525 60.125732L74.461838 59.740448L74.111206 59.354828L73.760880 58.969543L73.357941 58.619217L72.955002 58.251251L72.517105 57.900604L72.043915 57.532959L71.535751 57.182327L70.992630 56.832001L70.414520 56.464035L69.801468 56.096069L69.135468 55.728088L68.434814 55.360123L67.681244 54.957199L66.875366 54.571899L66.034531 54.168961L65.140762 53.748383L64.212341 53.327805L63.266281 52.907547L62.267593 52.486969L61.268921 52.049072L60.270248 51.628494L59.271576 51.225555L58.290543 50.822617L57.361801 50.437012L56.485672 50.086685L55.679810 49.771332L54.943863 49.490936L54.313156 49.245529L53.787674 49.035400L53.367096 48.877884L53.051743 48.755005L52.823975 48.667419L52.666458 48.597488L52.596191 48.579849L52.561234 48.562195" style="stroke:rgb(0.000000%,0.000000%,0.000000%); stroke-width: 4.363632;stroke-linecap: round;stroke-linejoin: round;stroke-miterlimit: 10.000000;fill: none;"></path>
  <path d="M0.000000 107.000000L84.097946 107.000000" style="stroke:rgb(0.000000%,0.000000%,0.000000%); stroke-width: 0.555435;stroke-linecap: square;stroke-linejoin: round;stroke-miterlimit: 10.000000;fill: none;"></path>
  <path d="M0.000000 -0.057129L84.097946 -0.057129" style="stroke:rgb(0.000000%,0.000000%,0.000000%); stroke-width: 0.555435;stroke-linecap: square;stroke-linejoin: round;stroke-miterlimit: 10.000000;fill: none;"></path>
  <path d="M0.000000 107.000000L84.097946 107.000000" style="stroke:rgb(0.000000%,0.000000%,0.000000%); stroke-width: 0.555435;stroke-linecap: square;stroke-linejoin: round;stroke-miterlimit: 10.000000;fill: none;"></path>
  <path d="M0.000000 107.000000L0.000000 -0.057129" style="stroke:rgb(0.000000%,0.000000%,0.000000%); stroke-width: 0.555435;stroke-linecap: square;stroke-linejoin: round;stroke-miterlimit: 10.000000;fill: none;"></path>
  <path d="M84.097946 107.000000L84.097946 -0.057129" style="stroke:rgb(0.000000%,0.000000%,0.000000%); stroke-width: 0.555435;stroke-linecap: square;stroke-linejoin: round;stroke-miterlimit: 10.000000;fill: none;"></path>
</svg>
