<?xml version="1.0"?>
<!-- Created by MetaPost 1.9991 on 2022.02.17:1529 -->
<svg version="1.1" xmlns="http://www.w3.org/2000/svg" xmlns:xlink="http://www.w3.org/1999/xlink" width="101.472336" height="107.612579" viewBox="0 0 101.472336 107.612579">
<!-- Original BoundingBox: -0.277725 -0.277725 101.194611 107.334854 -->
  <path d="M50.458649 77.470871L50.458649 20.967560" style="stroke:rgb(0.000000%,0.000000%,0.000000%); stroke-width: 4.363632;stroke-linecap: round;stroke-linejoin: round;stroke-miterlimit: 10.000000;fill: none;"></path>
  <path d="M50.458649 105.065521L50.458649 97.181335" style="stroke:rgb(0.000000%,0.000000%,0.000000%); stroke-width: 4.363632;stroke-linecap: round;stroke-linejoin: round;stroke-miterlimit: 10.000000;fill: none;"></path>
  <path d="M39.946411 48.562195L39.911438 48.579849L39.841171 48.597488L39.683655 48.667419L39.455887 48.755005L39.140533 48.877884L38.719955 49.035400L38.194473 49.245529L37.563766 49.490936L36.827820 49.771332L36.021957 50.086685L35.145828 50.437012L34.217087 50.822617L33.236053 51.225555L32.237381 51.628494L31.238708 52.049072L30.240036 52.486969L29.241348 52.907547L28.295288 53.327805L27.366867 53.748383L26.473099 54.168961L25.632263 54.571899L24.826385 54.957199L24.072815 55.360123L23.372162 55.728088L22.706161 56.096069L22.093109 56.464035L21.514999 56.832001L20.971878 57.182327L20.463715 57.532959L19.990524 57.900604L19.552628 58.251251L19.149689 58.619217L18.746750 58.969543L18.396423 59.354828L18.045792 59.740448L17.713104 60.125732L17.415070 60.511353L17.117371 60.931610L16.854630 61.352188L16.591568 61.772766L16.346466 62.210663L16.136017 62.666214L15.925888 63.139404L15.750717 63.612274L15.592880 64.103119L15.453018 64.610962L15.330139 65.119110L15.242569 65.627274L15.154984 66.152756L15.120010 66.678558L15.085052 67.221695L15.102371 67.764816L15.120010 68.307953L15.172623 68.851074L15.260208 69.394211L15.365112 69.919693L15.487976 70.462814L15.645493 70.988617L15.820663 71.514114L16.031113 72.022263L16.258881 72.530426L16.503983 73.038269L16.784363 73.511459L17.082397 74.001984L17.415070 74.457520L17.748077 74.913071L18.116043 75.350967L18.501328 75.789200L18.904266 76.209457L19.342499 76.630035L19.798035 77.032974L20.200974 77.365967L20.638885 77.716293L21.094421 78.049286L21.567612 78.381973L22.058136 78.697327L22.566299 79.030319L23.109421 79.345673L23.669876 79.661041L24.247971 79.976395L24.861359 80.274414L25.492065 80.589767L26.157745 80.887482L26.823746 81.185516L27.524384 81.465576L28.242676 81.745972L28.978607 82.026352L29.731873 82.306732L30.502777 82.569489L31.291321 82.832230L32.097183 83.077637L32.920700 83.305420L33.744217 83.550507L34.567734 83.760971L35.426208 83.971100L36.267059 84.163895L37.125534 84.356705L37.984024 84.531860L38.825180 84.707031L39.683655 84.847214L40.542145 85.004730L41.400635 85.127609L42.241470 85.250153L43.082626 85.355057L43.923462 85.442963L44.764618 85.530548L45.587814 85.600479L46.411331 85.653091L47.234848 85.705704L48.040710 85.740677L48.846909 85.775635L49.652771 85.793289L50.458649 85.793289L51.264526 85.793289L52.070389 85.775635L52.876587 85.740677L53.682449 85.705704L54.505966 85.653091L55.329483 85.600479L56.152679 85.530548L56.993835 85.442963L57.834671 85.355057L58.675827 85.250153L59.516663 85.127609L60.375153 85.004730L61.233643 84.847214L62.092117 84.707031L62.933273 84.531860L63.791763 84.356705L64.650238 84.163895L65.491089 83.971100L66.349564 83.760971L67.173080 83.550507L67.996597 83.305420L68.820114 83.077637L69.625977 82.832230L70.414520 82.569489L71.185425 82.306732L71.938690 82.026352L72.674622 81.745972L73.392914 81.465576L74.093552 81.185516L74.759552 80.887482L75.425232 80.589767L76.055939 80.274414L76.669327 79.976395L77.247421 79.661041L77.807877 79.345673L78.350998 79.030319L78.859161 78.697327L79.349686 78.381973L79.822876 78.049286L80.278412 77.716293L80.716324 77.365967L81.119263 77.032974L81.574799 76.630035L82.013031 76.209457L82.415970 75.789200L82.801254 75.350967L83.169220 74.913071L83.502228 74.457520L83.834900 74.001984L84.132935 73.511459L84.413315 73.038269L84.658417 72.530426L84.886185 72.022263L85.096634 71.514114L85.271805 70.988617L85.429321 70.462814L85.552185 69.919693L85.657089 69.394211L85.744675 68.851074L85.797287 68.307953L85.814926 67.764816L85.832245 67.221695L85.797287 66.678558L85.762314 66.152756L85.674728 65.627274L85.587158 65.119110L85.464279 64.610962L85.324417 64.103119L85.166580 63.612274L84.991409 63.139404L84.781281 62.666214L84.570831 62.210663L84.325729 61.772766L84.062668 61.352188L83.799927 60.931610L83.502228 60.511353L83.204193 60.125732L82.871506 59.740448L82.520874 59.354828L82.170547 58.969543L81.767609 58.619217L81.364670 58.251251L80.926773 57.900604L80.453583 57.532959L79.945419 57.182327L79.402298 56.832001L78.824188 56.464035L78.211136 56.096069L77.545135 55.728088L76.844482 55.360123L76.090912 54.957199L75.285034 54.571899L74.444199 54.168961L73.550430 53.748383L72.622009 53.327805L71.675949 52.907547L70.677261 52.486969L69.678589 52.049072L68.679916 51.628494L67.681244 51.225555L66.700211 50.822617L65.771469 50.437012L64.895340 50.086685L64.089478 49.771332L63.353531 49.490936L62.722824 49.245529L62.197342 49.035400L61.776764 48.877884L61.461411 48.755005L61.233643 48.667419L61.076126 48.597488L61.005859 48.579849L60.970901 48.562195" style="stroke:rgb(0.000000%,0.000000%,0.000000%); stroke-width: 4.363632;stroke-linecap: round;stroke-linejoin: round;stroke-miterlimit: 10.000000;fill: none;"></path>
  <path d="M0.000000 107.000000L100.916885 107.000000" style="stroke:rgb(0.000000%,0.000000%,0.000000%); stroke-width: 0.555435;stroke-linecap: square;stroke-linejoin: round;stroke-miterlimit: 10.000000;fill: none;"></path>
  <path d="M0.000000 -0.057129L100.916885 -0.057129" style="stroke:rgb(0.000000%,0.000000%,0.000000%); stroke-width: 0.555435;stroke-linecap: square;stroke-linejoin: round;stroke-miterlimit: 10.000000;fill: none;"></path>
  <path d="M0.000000 107.000000L100.916885 107.000000" style="stroke:rgb(0.000000%,0.000000%,0.000000%); stroke-width: 0.555435;stroke-linecap: square;stroke-linejoin: round;stroke-miterlimit: 10.000000;fill: none;"></path>
  <path d="M0.000000 107.000000L0.000000 -0.057129" style="stroke:rgb(0.000000%,0.000000%,0.000000%); stroke-width: 0.555435;stroke-linecap: square;stroke-linejoin: round;stroke-miterlimit: 10.000000;fill: none;"></path>
  <path d="M100.916885 107.000000L100.916885 -0.057129" style="stroke:rgb(0.000000%,0.000000%,0.000000%); stroke-width: 0.555435;stroke-linecap: square;stroke-linejoin: round;stroke-miterlimit: 10.000000;fill: none;"></path>
</svg>
