<?xml version="1.0"?>
<!-- Created by MetaPost 1.9991 on 2022.02.18:1311 -->
<svg version="1.1" xmlns="http://www.w3.org/2000/svg" xmlns:xlink="http://www.w3.org/1999/xlink" width="75.11084" height="88.461609" viewBox="4.493561 -0.247345 75.11084 88.461609">
<!-- Original BoundingBox: 4.493561 -0.247345 79.604401 88.214264 -->
  <path d="M42.048981 58.470871L42.048981 1.967560" style="stroke:rgb(0.000000%,0.000000%,0.000000%); stroke-width: 4.363632;stroke-linecap: round;stroke-linejoin: round;stroke-miterlimit: 10.000000;fill: none;"></path>
  <path d="M35.478821 15.107864L42.048981 1.967560L48.619141 15.107864" style="stroke:rgb(0.000000%,0.000000%,0.000000%); stroke-width: 4.363632;stroke-linecap: round;stroke-linejoin: round;stroke-miterlimit: 10.000000;fill: none;"></path>
  <path d="M42.048981 86.065521L42.048981 78.181335" style="stroke:rgb(0.000000%,0.000000%,0.000000%); stroke-width: 4.363632;stroke-linecap: round;stroke-linejoin: round;stroke-miterlimit: 10.000000;fill: none;"></path>
  <path d="M68.329590 29.562195L52.561234 29.562195L60.445404 44.016541" style="stroke:rgb(0.000000%,0.000000%,0.000000%); stroke-width: 4.363632;stroke-linecap: round;stroke-linejoin: round;stroke-miterlimit: 10.000000;fill: none;"></path>
  <path d="M31.536743 29.562195L31.501770 29.579849L31.431503 29.597488L31.273987 29.667419L31.046219 29.755005L30.730865 29.877884L30.310287 30.035400L29.784805 30.245529L29.154099 30.490936L28.418152 30.771332L27.612289 31.086685L26.736160 31.437012L25.807419 31.822617L24.826385 32.225555L23.827713 32.628494L22.829041 33.049072L21.830368 33.486969L20.831680 33.907547L19.885620 34.327805L18.957199 34.748383L18.063431 35.168961L17.222595 35.571899L16.416718 35.957199L15.663147 36.360123L14.962494 36.728088L14.296494 37.096069L13.683441 37.464035L13.105331 37.832001L12.562210 38.182327L12.054047 38.532959L11.580856 38.900604L11.142960 39.251251L10.740021 39.619217L10.337082 39.969543L9.986755 40.354828L9.636124 40.740448L9.303436 41.125732L9.005402 41.511353L8.707703 41.931610L8.444962 42.352188L8.181900 42.772766L7.936798 43.210663L7.726349 43.666214L7.516220 44.139404L7.341049 44.612274L7.183212 45.103119L7.043350 45.610962L6.920471 46.119110L6.832901 46.627274L6.745316 47.152756L6.710342 47.678558L6.675385 48.221695L6.692703 48.764816L6.710342 49.307953L6.762955 49.851074L6.850540 50.394211L6.955444 50.919693L7.078308 51.462814L7.235825 51.988617L7.410995 52.514114L7.621445 53.022263L7.849213 53.530426L8.094315 54.038269L8.374695 54.511459L8.672729 55.001984L9.005402 55.457520L9.338409 55.913071L9.706375 56.350967L10.091660 56.789200L10.494598 57.209457L10.932831 57.630035L11.388367 58.032974L11.791306 58.365967L12.229218 58.716293L12.684753 59.049286L13.157944 59.381973L13.648468 59.697327L14.156631 60.030319L14.699753 60.345673L15.260208 60.661041L15.838303 60.976395L16.451691 61.274414L17.082397 61.589767L17.748077 61.887482L18.414078 62.185516L19.114716 62.465576L19.833008 62.745972L20.568939 63.026352L21.322205 63.306732L22.093109 63.569489L22.881653 63.832230L23.687515 64.077637L24.511032 64.305420L25.334549 64.550507L26.158066 64.760971L27.016541 64.971100L27.857391 65.163895L28.715866 65.356705L29.574356 65.531860L30.415512 65.707031L31.273987 65.847214L32.132477 66.004730L32.990967 66.127609L33.831802 66.250153L34.672958 66.355057L35.513794 66.442963L36.354950 66.530548L37.178146 66.600479L38.001663 66.653091L38.825180 66.705704L39.631042 66.740677L40.437241 66.775635L41.243103 66.793289L42.048981 66.793289L42.854858 66.793289L43.660721 66.775635L44.466919 66.740677L45.272781 66.705704L46.096298 66.653091L46.919815 66.600479L47.743011 66.530548L48.584167 66.442963L49.425003 66.355057L50.266159 66.250153L51.106995 66.127609L51.965485 66.004730L52.823975 65.847214L53.682449 65.707031L54.523605 65.531860L55.382095 65.356705L56.240570 65.163895L57.081421 64.971100L57.939896 64.760971L58.763412 64.550507L59.586929 64.305420L60.410446 64.077637L61.216309 63.832230L62.004852 63.569489L62.775757 63.306732L63.529022 63.026352L64.264954 62.745972L64.983246 62.465576L65.683884 62.185516L66.349884 61.887482L67.015564 61.589767L67.646271 61.274414L68.259659 60.976395L68.837753 60.661041L69.398209 60.345673L69.941330 60.030319L70.449493 59.697327L70.940018 59.381973L71.413208 59.049286L71.868744 58.716293L72.306656 58.365967L72.709595 58.032974L73.165131 57.630035L73.603363 57.209457L74.006302 56.789200L74.391586 56.350967L74.759552 55.913071L75.092560 55.457520L75.425232 55.001984L75.723267 54.511459L76.003647 54.038269L76.248749 53.530426L76.476517 53.022263L76.686966 52.514114L76.862137 51.988617L77.019653 51.462814L77.142517 50.919693L77.247421 50.394211L77.335007 49.851074L77.387619 49.307953L77.405258 48.764816L77.422577 48.221695L77.387619 47.678558L77.352646 47.152756L77.265060 46.627274L77.177490 46.119110L77.054611 45.610962L76.914749 45.103119L76.756912 44.612274L76.581741 44.139404L76.371613 43.666214L76.161163 43.210663L75.916061 42.772766L75.653000 42.352188L75.390259 41.931610L75.092560 41.511353L74.794525 41.125732L74.461838 40.740448L74.111206 40.354828L73.760880 39.969543L73.357941 39.619217L72.955002 39.251251L72.517105 38.900604L72.043915 38.532959L71.535751 38.182327L70.992630 37.832001L70.414520 37.464035L69.801468 37.096069L69.135468 36.728088L68.434814 36.360123L67.681244 35.957199L66.875366 35.571899L66.034531 35.168961L65.140762 34.748383L64.212341 34.327805L63.266281 33.907547L62.267593 33.486969L61.268921 33.049072L60.270248 32.628494L59.271576 32.225555L58.290543 31.822617L57.361801 31.437012L56.485672 31.086685L55.679810 30.771332L54.943863 30.490936L54.313156 30.245529L53.787674 30.035400L53.367096 29.877884L53.051743 29.755005L52.823975 29.667419L52.666458 29.597488L52.596191 29.579849L52.561234 29.562195" style="stroke:rgb(0.000000%,0.000000%,0.000000%); stroke-width: 4.363632;stroke-linecap: round;stroke-linejoin: round;stroke-miterlimit: 10.000000;fill: none;"></path>
</svg>
