<?xml version="1.0"?>
<!-- Created by MetaPost 1.9991 on 2022.02.18:1311 -->
<svg version="1.1" xmlns="http://www.w3.org/2000/svg" xmlns:xlink="http://www.w3.org/1999/xlink" width="94.339127" height="87.863937" viewBox="0 0 94.339127 87.863937">
<!-- Original BoundingBox: 6.578171 0.102982 94.339127 87.863937 -->
  <path d="M35.566406 56.419907C36.679611 59.475281,38.705521 62.114578,41.369507 63.979431C44.033508 65.844299,47.206940 66.844574,50.458969 66.844574C53.710999 66.844574,56.884125 65.843979,59.548111 63.979111C62.212097 62.114258,64.238007 59.474960,65.350891 56.419586" style="stroke:rgb(0.000000%,0.000000%,0.000000%); stroke-width: 4.363632;stroke-linecap: round;stroke-linejoin: round;stroke-miterlimit: 10.000000;fill: none;"></path>
  <path d="M92.157303 43.016541C92.157303 31.957001,87.763199 21.351395,79.943497 13.531693C72.123795 5.711990,61.518188 1.317886,50.458649 1.317886C39.399109 1.317886,28.793503 5.711990,20.973801 13.531693C13.154099 21.351395,8.759995 31.957001,8.759995 43.016541C8.759995 54.076080,13.154099 64.681686,20.973801 72.501389C28.793503 80.321091,39.399109 84.715195,50.458649 84.715195C61.518188 84.715195,72.123795 80.321091,79.943497 72.501389C87.763199 64.681686,92.157303 54.076080,92.157303 43.016541Z" style="stroke:rgb(0.000000%,0.000000%,0.000000%); stroke-width: 4.363632;stroke-linecap: round;stroke-linejoin: round;stroke-miterlimit: 10.000000;fill: none;"></path>
  <path d="M35.566406 56.419907L35.566406 19.188828" style="stroke:rgb(0.000000%,0.000000%,0.000000%); stroke-width: 4.363632;stroke-linecap: round;stroke-linejoin: round;stroke-miterlimit: 10.000000;fill: none;"></path>
  <path d="M65.350891 56.419907L65.350891 19.188828" style="stroke:rgb(0.000000%,0.000000%,0.000000%); stroke-width: 4.363632;stroke-linecap: round;stroke-linejoin: round;stroke-miterlimit: 10.000000;fill: none;"></path>
</svg>
