<?xml version="1.0"?>
<!-- Created by MetaPost 1.9991 on 2022.02.18:1311 -->
<svg version="1.1" xmlns="http://www.w3.org/2000/svg" xmlns:xlink="http://www.w3.org/1999/xlink" width="94.689453" height="67.189774" viewBox="0 0 94.689453 67.189774">
<!-- Original BoundingBox: 6.227844 20.777145 94.689453 67.189774 -->
  <path d="M8.409668 23.016541L33.376251 23.016541" style="stroke:rgb(0.000000%,0.000000%,0.000000%); stroke-width: 4.363632;stroke-linecap: round;stroke-linejoin: round;stroke-miterlimit: 10.000000;fill: none;"></path>
  <path d="M66.227020 23.016541L92.507629 23.016541" style="stroke:rgb(0.000000%,0.000000%,0.000000%); stroke-width: 4.363632;stroke-linecap: round;stroke-linejoin: round;stroke-miterlimit: 10.000000;fill: none;"></path>
  <path d="M18.921921 1.992050L18.956879 1.992050L19.044464 1.992050L19.219620 2.009689L19.482681 2.009689L19.833008 2.027344L20.305878 2.044662L20.884293 2.079956L21.549973 2.114914L22.320877 2.167526L23.144394 2.219818L24.037842 2.272430L24.966583 2.342697L25.895004 2.412628L26.841064 2.500214L27.787125 2.587784L28.698227 2.693008L29.574356 2.798233L30.415192 2.920792L31.221375 3.043335L31.992279 3.183533L32.710571 3.323730L33.393890 3.481567L34.041931 3.639084L34.637665 3.814240L35.215759 4.007050L35.758896 4.217178L36.284698 4.444946L36.792862 4.672729L37.265732 4.935791L37.738922 5.198532L38.194473 5.496231L38.614731 5.794266L39.035309 6.091980L39.438248 6.424973L39.841171 6.775299L40.244110 7.143265L40.647369 7.511230L41.050308 7.931488L41.453247 8.352066L41.856171 8.789978L42.241470 9.263168L42.644394 9.736359L43.030014 10.244202L43.432953 10.770004L43.818558 11.295486L44.203857 11.856262L44.589462 12.416718L44.957108 12.995132L45.325073 13.573227L45.693039 14.168961L46.061005 14.764709L46.411331 15.360123L46.761978 15.973511L47.112305 16.569260L47.445297 17.182327L47.777969 17.778061L48.093323 18.373795L48.408691 18.969543L48.706711 19.565277L49.022064 20.161026L49.302460 20.739120L49.600159 21.317215L49.897873 21.877991L50.178268 22.456085L50.458649 23.016541L50.739029 23.577316L51.019424 24.155411L51.317139 24.716187L51.614838 25.294281L51.895233 25.872375L52.210587 26.468109L52.508606 27.063858L52.823975 27.659592L53.139328 28.255341L53.472000 28.851074L53.804993 29.464142L54.155319 30.059891L54.505966 30.673264L54.856293 31.268692L55.224258 31.864426L55.592224 32.460175L55.960190 33.038269L56.327835 33.616684L56.713440 34.177139L57.098740 34.737915L57.484344 35.263397L57.887283 35.789200L58.272903 36.297043L58.675827 36.770233L59.061127 37.243423L59.464050 37.681320L59.866989 38.101898L60.269928 38.522171L60.673187 38.890137L61.076126 39.258102L61.479050 39.608429L61.881989 39.941422L62.302567 40.239136L62.722824 40.537155L63.178375 40.834869L63.651566 41.097610L64.124435 41.360672L64.632599 41.588455L65.158401 41.816223L65.701538 42.026352L66.279633 42.219162L66.875366 42.394318L67.523407 42.551834L68.206726 42.709671L68.925018 42.849869L69.695923 42.990067L70.502106 43.112610L71.342941 43.235153L72.219070 43.340378L73.130173 43.445602L74.076233 43.533188L75.022293 43.620773L75.950714 43.690704L76.879456 43.760971L77.772903 43.813583L78.596420 43.865875L79.367325 43.918488L80.033005 43.953445L80.611420 43.988739L81.084290 44.006058L81.434616 44.023712L81.697678 44.023712L81.872833 44.041031L81.960419 44.041031L81.995392 44.041031" style="stroke:rgb(0.000000%,0.000000%,0.000000%); stroke-width: 4.363632;stroke-linecap: round;stroke-linejoin: round;stroke-miterlimit: 10.000000;fill: none;"></path>
</svg>
