<?xml version="1.0"?>
<!-- Created by MetaPost 1.9991 on 2022.02.18:1311 -->
<svg version="1.1" xmlns="http://www.w3.org/2000/svg" xmlns:xlink="http://www.w3.org/1999/xlink" width="94.321487" height="85.200592" viewBox="0 0 94.321487 85.200592">
<!-- Original BoundingBox: 6.963776 1.907532 94.321487 85.200592 -->
  <path d="M61.268600 26.194550L61.233643 26.194550L61.163696 26.176910L61.023514 26.176910L60.795731 26.159271L60.497696 26.124298L60.094772 26.089325L59.586929 26.054367L59.008514 26.001755L58.325195 25.949142L57.571930 25.896530L56.748413 25.826584L55.889938 25.773972L54.996475 25.721359L54.085388 25.668747L53.156647 25.616135L52.245865 25.563843L51.352097 25.528564L50.476288 25.493591L49.635132 25.475952L48.811615 25.458618L48.023392 25.440979L47.269821 25.440979L46.534195 25.458618L45.833237 25.475952L45.167557 25.511230L44.519211 25.563843L43.888489 25.598816L43.257782 25.668747L42.662048 25.739014L42.066299 25.826584L41.470566 25.931488L40.875137 26.036713L40.296722 26.159271L39.736267 26.264496L39.157852 26.404678L38.597412 26.544876L38.019302 26.702393L37.440887 26.860229L36.845154 27.035400L36.249725 27.228195L35.653992 27.421005L35.040604 27.631134L34.409897 27.858902L33.796829 28.086685L33.166122 28.331787L32.535416 28.577194L31.887054 28.839935L31.256348 29.120331L30.608002 29.400711L29.977280 29.698425L29.328934 29.996460L28.698227 30.294159L28.085159 30.609512L27.471771 30.924866L26.858704 31.240234L26.262970 31.573227L25.667221 31.888580L25.106781 32.221573L24.546005 32.554260L24.002869 32.887253L23.459747 33.220261L22.951584 33.535614L22.443420 33.868286L21.970551 34.201294L21.497360 34.516647L21.041809 34.849640L20.603912 35.182327L20.166000 35.497681L19.745422 35.830673L19.254913 36.233612L18.781723 36.619217L18.308853 37.039474L17.853302 37.442413L17.397751 37.862991L16.942200 38.300903L16.503983 38.756439L16.083725 39.211990L15.663147 39.667542L15.242569 40.158051L14.839630 40.631241L14.454330 41.139404L14.068726 41.647568L13.700760 42.155411L13.350433 42.681213L13.000107 43.189377L12.684753 43.732498L12.369400 44.257980L12.071381 44.783463L11.790985 45.309280L11.528244 45.834763L11.283142 46.360565L11.055374 46.886047L10.844925 47.411530L10.652435 47.919693L10.476959 48.445496L10.301788 48.953339L10.144272 49.461502L10.004089 49.969650L9.881531 50.477814L9.758667 51.003296L9.653763 51.528778L9.548538 52.071915L9.460953 52.615356L9.373383 53.175812L9.303116 53.736588L9.250504 54.332321L9.215546 54.927750L9.180573 55.523483L9.162933 56.154190L9.145599 56.784912L9.162933 57.415939L9.180573 58.046646L9.233185 58.694672L9.285797 59.343033L9.355728 59.991379L9.443314 60.639420L9.548538 61.270126L9.653763 61.901154L9.793640 62.514221L9.933823 63.127609L10.108994 63.723022L10.284470 64.318771L10.459625 64.879547L10.669769 65.439987L10.879898 65.983124L11.107666 66.508926L11.353088 67.034409L11.615829 67.542572L11.878571 68.033081L12.158951 68.523605L12.474304 69.014435L12.789658 69.504959L13.140305 69.977829L13.490631 70.451019L13.875916 70.941528L14.261536 71.414719L14.682114 71.887604L15.120010 72.360794L15.557922 72.833664L16.031113 73.289215L16.503983 73.762405L16.994812 74.200302L17.502655 74.655853L18.010818 75.076431L18.518982 75.497009L19.027145 75.899948L19.552628 76.302887L20.060776 76.670853L20.568939 77.021164L21.076782 77.371490L21.567612 77.686844L22.058136 77.984879L22.531006 78.282593L23.004196 78.545334L23.459747 78.790756L23.915298 79.018524L24.335876 79.246292L24.773773 79.439102L25.194351 79.631592L25.702194 79.842041L26.193039 80.034531L26.700867 80.192368L27.191391 80.332550L27.699554 80.472748L28.207703 80.577652L28.733185 80.665237L29.293961 80.735489L29.872055 80.805420L30.467804 80.840714L31.081192 80.875687L31.729218 80.910645L32.377579 80.910645L33.025925 80.910645L33.656631 80.910645L34.252380 80.893005L34.777863 80.875687L35.233414 80.858032L35.601379 80.840714L35.881760 80.823074L36.056931 80.823074L36.144501 80.805420L36.197113 80.805420" style="stroke:rgb(0.000000%,0.000000%,0.000000%); stroke-width: 4.363632;stroke-linecap: round;stroke-linejoin: round;stroke-miterlimit: 10.000000;fill: none;"></path>
  <path d="M27.664581 46.955978L27.682220 46.991272L27.717194 47.061203L27.769806 47.183762L27.857391 47.376556L27.997574 47.656952L28.155090 48.024918L28.382874 48.480469L28.628281 49.023590L28.925995 49.636658L29.259003 50.302658L29.609314 51.038269L29.994934 51.826813L30.380219 52.632690L30.800797 53.438553L31.203735 54.262070L31.624313 55.067947L32.044571 55.874130L32.447510 56.645035L32.850769 57.398285L33.253708 58.098938L33.638992 58.799896L34.024597 59.448257L34.392578 60.078964L34.760223 60.657059L35.128189 61.235153L35.478821 61.778290L35.846481 62.304092L36.214447 62.794601L36.582413 63.285126L36.950378 63.758316L37.335983 64.231186L37.721283 64.686737L38.124207 65.142288L38.527145 65.580185L38.947723 66.035736L39.385635 66.473953L39.823853 66.929504L40.279404 67.367416L40.769913 67.822952L41.260437 68.278503L41.768600 68.716400L42.294083 69.171951L42.819885 69.627502L43.380341 70.065399L43.941101 70.520950L44.519211 70.976501L45.114944 71.414719L45.710693 71.852631L46.306427 72.273209L46.919495 72.711105L47.532883 73.114044L48.145935 73.534622L48.759323 73.919922L49.372391 74.305527L49.985458 74.690826L50.598846 75.041458L51.194580 75.391785L51.790329 75.724457L52.385742 76.040146L52.964157 76.355499L53.524612 76.635559L54.085388 76.915939L54.646164 77.178680L55.189285 77.424103L55.714767 77.651886L56.240250 77.879654L56.766068 78.089783L57.361801 78.317551L57.939896 78.545334L58.535645 78.738144L59.113739 78.930939L59.709473 79.106110L60.305222 79.281265L60.918274 79.439102L61.531662 79.578979L62.144730 79.719162L62.758118 79.824387L63.388824 79.929611L64.019531 80.034531L64.632599 80.104782L65.263306 80.174713L65.894012 80.210007L66.524719 80.244980L67.138107 80.262299L67.751175 80.279938L68.364563 80.262299L68.960297 80.244980L69.538406 80.192368L70.116501 80.139755L70.694595 80.087143L71.237717 79.999557L71.780853 79.911972L72.323975 79.824387L72.849777 79.701843L73.375259 79.578979L73.883423 79.456421L74.391586 79.316238L74.899750 79.158722L75.407593 78.983551L75.933395 78.808075L76.441559 78.615585L76.967041 78.405136L77.492523 78.177368L78.035645 77.932266L78.578781 77.669525L79.121902 77.389145L79.665039 77.108749L80.208160 76.793396L80.751297 76.460403L81.294418 76.127716L81.837540 75.759750L82.363358 75.391785L82.888840 75.006180L83.396988 74.620880L83.905151 74.200302L84.378021 73.797363L84.851227 73.359467L85.306763 72.938889L85.744675 72.500977L86.165253 72.062759L86.568192 71.607208L86.953796 71.151657L87.304123 70.696121L87.654449 70.223251L87.987442 69.767700L88.302795 69.294510L88.600510 68.803986L88.880890 68.313477L89.143631 67.805313L89.406372 67.279831L89.651794 66.754028L89.879562 66.193573L90.107346 65.632797L90.317474 65.037064L90.527924 64.441635L90.720413 63.828247L90.895889 63.215195L91.071045 62.584152L91.228561 61.936127L91.386398 61.287766L91.508957 60.622101L91.631500 59.973740L91.736725 59.325394L91.841949 58.677353L91.911896 58.029007L91.982147 57.398285L92.034439 56.784912L92.087051 56.171844L92.104691 55.576096L92.122345 54.998001L92.139664 54.454880L92.139664 53.911743L92.122345 53.385941L92.104691 52.895432L92.069733 52.404907L92.034439 51.932037L91.982147 51.476486L91.911896 50.933365L91.824310 50.407562L91.719086 49.882080L91.596527 49.391556L91.456345 48.883392L91.298828 48.392883L91.106018 47.884720L90.895889 47.359238L90.668121 46.833435L90.405045 46.290298L90.124985 45.747177L89.809631 45.169083L89.494278 44.608307L89.178604 44.047852L88.845917 43.504730L88.547897 42.996567L88.267822 42.541016L88.022415 42.155411L87.829605 41.840057L87.672089 41.612274L87.584503 41.472092L87.514252 41.384506L87.496918 41.349533" style="stroke:rgb(0.000000%,0.000000%,0.000000%); stroke-width: 4.363632;stroke-linecap: round;stroke-linejoin: round;stroke-miterlimit: 10.000000;fill: none;"></path>
  <path d="M62.442764 65.667770L62.460083 65.632797L62.512695 65.580185L62.582642 65.457642L62.705505 65.282471L62.880661 65.037064L63.125763 64.704376L63.406143 64.283798L63.739151 63.793289L64.124435 63.232513L64.562668 62.619446L65.018204 61.936127L65.491089 61.217834L65.999237 60.481903L66.507401 59.710999L66.997925 58.940094L67.506073 58.186844L67.978943 57.415939L68.452148 56.680008L68.890045 55.961716L69.310623 55.260742L69.713562 54.577423L70.081528 53.929398L70.449493 53.281036L70.782166 52.667648L71.080200 52.071915L71.377914 51.493820L71.640976 50.915726L71.903717 50.354950L72.131485 49.776855L72.359268 49.233719L72.569397 48.655624L72.779526 48.094849L72.972336 47.534393L73.147491 46.991272L73.322647 46.430496L73.480484 45.869720L73.638016 45.291626L73.778198 44.695892L73.918396 44.100143L74.058594 43.504730L74.198776 42.873703L74.321335 42.242996L74.426559 41.594955L74.549103 40.928955L74.654327 40.263275L74.741913 39.597610L74.829483 38.896637L74.917068 38.213318L74.987335 37.512665L75.057266 36.811707L75.127518 36.111053L75.179810 35.427734L75.215103 34.726776L75.250076 34.026123L75.267395 33.342804L75.302689 32.659485L75.302689 31.993805L75.302689 31.327805L75.302689 30.679779L75.285034 30.049072L75.267395 29.418030L75.232422 28.822617L75.197464 28.209229L75.162491 27.631134L75.109879 27.053040L75.057266 26.509903L75.004654 25.949142L74.934708 25.423660L74.864456 24.897842L74.759552 24.267136L74.654327 23.654068L74.549103 23.040695L74.408905 22.444946L74.269043 21.831879L74.111206 21.236145L73.953369 20.623077L73.778198 20.027344L73.585724 19.431595L73.375259 18.835861L73.147491 18.240112L72.919724 17.662018L72.674622 17.066284L72.411880 16.488174L72.131485 15.927414L71.851105 15.366959L71.553070 14.823822L71.255371 14.298019L70.940018 13.772537L70.624649 13.264374L70.291656 12.773865L69.958984 12.300674L69.625977 11.845123L69.275650 11.407227L68.942657 10.969315L68.574692 10.566376L68.224365 10.163132L67.856400 9.777832L67.488434 9.392227L67.103149 9.024582L66.717529 8.656616L66.314590 8.305969L65.894012 7.938324L65.473755 7.587677L65.035538 7.237350L64.562668 6.904358L64.089478 6.554031L63.598953 6.221039L63.090790 5.888351L62.565308 5.572998L62.022186 5.240005L61.461411 4.942291L60.900955 4.644257L60.322540 4.346558L59.726807 4.083801L59.131378 3.820740L58.535645 3.575653L57.939896 3.347870L57.326508 3.120102L56.731094 2.927292L56.117706 2.752136L55.521973 2.594299L54.926224 2.454422L54.348129 2.331558L53.752380 2.226654L53.174286 2.138748L52.613525 2.068817L52.035416 2.016205L51.474976 1.998871L50.914200 1.981232L50.336105 1.981232L49.757675 1.998871L49.179581 2.033844L48.601486 2.086456L48.005753 2.156387L47.392685 2.261612L46.779297 2.366516L46.166229 2.489395L45.535522 2.611938L44.904816 2.769775L44.273788 2.944946L43.643082 3.137421L42.995041 3.330231L42.364334 3.540680L41.733627 3.768448L41.120239 3.996231L40.507172 4.241318L39.911438 4.486740L39.333344 4.749481L38.772568 5.012222L38.229431 5.274963L37.703629 5.555359L37.195801 5.818100L36.705276 6.098480L36.232086 6.361221L35.794189 6.641617L35.373596 6.904358L34.970673 7.167419L34.585052 7.447479L34.217087 7.710541L33.761536 8.043228L33.358612 8.393539L32.955673 8.744186L32.587708 9.094513L32.220062 9.462479L31.869415 9.865417L31.536743 10.268356L31.186096 10.706253L30.853409 11.179443L30.502777 11.669968L30.170090 12.195770L29.837097 12.738892L29.504089 13.299347L29.171417 13.860123L28.856064 14.420578L28.575668 14.928726L28.330261 15.401917L28.120132 15.804855L27.944962 16.137863L27.822418 16.382950L27.752167 16.540787L27.699554 16.628372L27.682220 16.663345" style="stroke:rgb(0.000000%,0.000000%,0.000000%); stroke-width: 4.363632;stroke-linecap: round;stroke-linejoin: round;stroke-miterlimit: 10.000000;fill: none;"></path>
</svg>
