<?xml version="1.0"?>
<!-- Created by MetaPost 1.9991 on 2022.02.17:1529 -->
<svg version="1.1" xmlns="http://www.w3.org/2000/svg" xmlns:xlink="http://www.w3.org/1999/xlink" width="101.472336" height="107.612579" viewBox="0 0 101.472336 107.612579">
<!-- Original BoundingBox: -0.277725 -0.277725 101.194611 107.334854 -->
  <path d="M61.268600 48.194550L61.233643 48.194550L61.163696 48.176910L61.023514 48.176910L60.795731 48.159271L60.497696 48.124298L60.094772 48.089325L59.586929 48.054367L59.008514 48.001755L58.325195 47.949142L57.571930 47.896530L56.748413 47.826584L55.889938 47.773972L54.996475 47.721359L54.085388 47.668747L53.156647 47.616135L52.245865 47.563843L51.352097 47.528564L50.476288 47.493591L49.635132 47.475952L48.811615 47.458618L48.023392 47.440979L47.269821 47.440979L46.534195 47.458618L45.833237 47.475952L45.167557 47.511230L44.519211 47.563843L43.888489 47.598816L43.257782 47.668747L42.662048 47.739014L42.066299 47.826584L41.470566 47.931488L40.875137 48.036713L40.296722 48.159271L39.736267 48.264496L39.157852 48.404678L38.597412 48.544876L38.019302 48.702393L37.440887 48.860229L36.845154 49.035400L36.249725 49.228195L35.653992 49.421005L35.040604 49.631134L34.409897 49.858902L33.796829 50.086685L33.166122 50.331787L32.535416 50.577194L31.887054 50.839935L31.256348 51.120331L30.608002 51.400711L29.977280 51.698425L29.328934 51.996460L28.698227 52.294159L28.085159 52.609512L27.471771 52.924866L26.858704 53.240234L26.262970 53.573227L25.667221 53.888580L25.106781 54.221573L24.546005 54.554260L24.002869 54.887253L23.459747 55.220261L22.951584 55.535614L22.443420 55.868286L21.970551 56.201294L21.497360 56.516647L21.041809 56.849640L20.603912 57.182327L20.166000 57.497681L19.745422 57.830673L19.254913 58.233612L18.781723 58.619217L18.308853 59.039474L17.853302 59.442413L17.397751 59.862991L16.942200 60.300903L16.503983 60.756439L16.083725 61.211990L15.663147 61.667542L15.242569 62.158051L14.839630 62.631241L14.454330 63.139404L14.068726 63.647568L13.700760 64.155411L13.350433 64.681213L13.000107 65.189377L12.684753 65.732498L12.369400 66.257980L12.071381 66.783463L11.790985 67.309280L11.528244 67.834763L11.283142 68.360565L11.055374 68.886047L10.844925 69.411530L10.652435 69.919693L10.476959 70.445496L10.301788 70.953339L10.144272 71.461502L10.004089 71.969650L9.881531 72.477814L9.758667 73.003296L9.653763 73.528778L9.548538 74.071915L9.460953 74.615356L9.373383 75.175812L9.303116 75.736588L9.250504 76.332321L9.215546 76.927750L9.180573 77.523483L9.162933 78.154190L9.145599 78.784912L9.162933 79.415939L9.180573 80.046646L9.233185 80.694672L9.285797 81.343033L9.355728 81.991379L9.443314 82.639420L9.548538 83.270126L9.653763 83.901154L9.793640 84.514221L9.933823 85.127609L10.108994 85.723022L10.284470 86.318771L10.459625 86.879547L10.669769 87.439987L10.879898 87.983124L11.107666 88.508926L11.353088 89.034409L11.615829 89.542572L11.878571 90.033081L12.158951 90.523605L12.474304 91.014435L12.789658 91.504959L13.140305 91.977829L13.490631 92.451019L13.875916 92.941528L14.261536 93.414719L14.682114 93.887604L15.120010 94.360794L15.557922 94.833664L16.031113 95.289215L16.503983 95.762405L16.994812 96.200302L17.502655 96.655853L18.010818 97.076431L18.518982 97.497009L19.027145 97.899948L19.552628 98.302887L20.060776 98.670853L20.568939 99.021164L21.076782 99.371490L21.567612 99.686844L22.058136 99.984879L22.531006 100.282593L23.004196 100.545334L23.459747 100.790756L23.915298 101.018524L24.335876 101.246292L24.773773 101.439102L25.194351 101.631592L25.702194 101.842041L26.193039 102.034531L26.700867 102.192368L27.191391 102.332550L27.699554 102.472748L28.207703 102.577652L28.733185 102.665237L29.293961 102.735489L29.872055 102.805420L30.467804 102.840714L31.081192 102.875687L31.729218 102.910645L32.377579 102.910645L33.025925 102.910645L33.656631 102.910645L34.252380 102.893005L34.777863 102.875687L35.233414 102.858032L35.601379 102.840714L35.881760 102.823074L36.056931 102.823074L36.144501 102.805420L36.197113 102.805420" style="stroke:rgb(0.000000%,0.000000%,0.000000%); stroke-width: 4.363632;stroke-linecap: round;stroke-linejoin: round;stroke-miterlimit: 10.000000;fill: none;"></path>
  <path d="M27.664581 68.955978L27.682220 68.991272L27.717194 69.061203L27.769806 69.183762L27.857391 69.376556L27.997574 69.656952L28.155090 70.024918L28.382874 70.480469L28.628281 71.023590L28.925995 71.636658L29.259003 72.302658L29.609314 73.038269L29.994934 73.826813L30.380219 74.632690L30.800797 75.438553L31.203735 76.262070L31.624313 77.067947L32.044571 77.874130L32.447510 78.645035L32.850769 79.398285L33.253708 80.098938L33.638992 80.799896L34.024597 81.448257L34.392578 82.078964L34.760223 82.657059L35.128189 83.235153L35.478821 83.778290L35.846481 84.304092L36.214447 84.794601L36.582413 85.285126L36.950378 85.758316L37.335983 86.231186L37.721283 86.686737L38.124207 87.142288L38.527145 87.580185L38.947723 88.035736L39.385635 88.473953L39.823853 88.929504L40.279404 89.367416L40.769913 89.822952L41.260437 90.278503L41.768600 90.716400L42.294083 91.171951L42.819885 91.627502L43.380341 92.065399L43.941101 92.520950L44.519211 92.976501L45.114944 93.414719L45.710693 93.852631L46.306427 94.273209L46.919495 94.711105L47.532883 95.114044L48.145935 95.534622L48.759323 95.919922L49.372391 96.305527L49.985458 96.690826L50.598846 97.041458L51.194580 97.391785L51.790329 97.724457L52.385742 98.040146L52.964157 98.355499L53.524612 98.635559L54.085388 98.915939L54.646164 99.178680L55.189285 99.424103L55.714767 99.651886L56.240250 99.879654L56.766068 100.089783L57.361801 100.317551L57.939896 100.545334L58.535645 100.738144L59.113739 100.930939L59.709473 101.106110L60.305222 101.281265L60.918274 101.439102L61.531662 101.578979L62.144730 101.719162L62.758118 101.824387L63.388824 101.929611L64.019531 102.034531L64.632599 102.104782L65.263306 102.174713L65.894012 102.210007L66.524719 102.244980L67.138107 102.262299L67.751175 102.279938L68.364563 102.262299L68.960297 102.244980L69.538406 102.192368L70.116501 102.139755L70.694595 102.087143L71.237717 101.999557L71.780853 101.911972L72.323975 101.824387L72.849777 101.701843L73.375259 101.578979L73.883423 101.456421L74.391586 101.316238L74.899750 101.158722L75.407593 100.983551L75.933395 100.808075L76.441559 100.615585L76.967041 100.405136L77.492523 100.177368L78.035645 99.932266L78.578781 99.669525L79.121902 99.389145L79.665039 99.108749L80.208160 98.793396L80.751297 98.460403L81.294418 98.127716L81.837540 97.759750L82.363358 97.391785L82.888840 97.006180L83.396988 96.620880L83.905151 96.200302L84.378021 95.797363L84.851227 95.359467L85.306763 94.938889L85.744675 94.500977L86.165253 94.062759L86.568192 93.607208L86.953796 93.151657L87.304123 92.696121L87.654449 92.223251L87.987442 91.767700L88.302795 91.294510L88.600510 90.803986L88.880890 90.313477L89.143631 89.805313L89.406372 89.279831L89.651794 88.754028L89.879562 88.193573L90.107346 87.632797L90.317474 87.037064L90.527924 86.441635L90.720413 85.828247L90.895889 85.215195L91.071045 84.584152L91.228561 83.936127L91.386398 83.287766L91.508957 82.622101L91.631500 81.973740L91.736725 81.325394L91.841949 80.677353L91.911896 80.029007L91.982147 79.398285L92.034439 78.784912L92.087051 78.171844L92.104691 77.576096L92.122345 76.998001L92.139664 76.454880L92.139664 75.911743L92.122345 75.385941L92.104691 74.895432L92.069733 74.404907L92.034439 73.932037L91.982147 73.476486L91.911896 72.933365L91.824310 72.407562L91.719086 71.882080L91.596527 71.391556L91.456345 70.883392L91.298828 70.392883L91.106018 69.884720L90.895889 69.359238L90.668121 68.833435L90.405045 68.290298L90.124985 67.747177L89.809631 67.169083L89.494278 66.608307L89.178604 66.047852L88.845917 65.504730L88.547897 64.996567L88.267822 64.541016L88.022415 64.155411L87.829605 63.840057L87.672089 63.612274L87.584503 63.472092L87.514252 63.384506L87.496918 63.349533" style="stroke:rgb(0.000000%,0.000000%,0.000000%); stroke-width: 4.363632;stroke-linecap: round;stroke-linejoin: round;stroke-miterlimit: 10.000000;fill: none;"></path>
  <path d="M62.442764 87.667770L62.460083 87.632797L62.512695 87.580185L62.582642 87.457642L62.705505 87.282471L62.880661 87.037064L63.125763 86.704376L63.406143 86.283798L63.739151 85.793289L64.124435 85.232513L64.562668 84.619446L65.018204 83.936127L65.491089 83.217834L65.999237 82.481903L66.507401 81.710999L66.997925 80.940094L67.506073 80.186844L67.978943 79.415939L68.452148 78.680008L68.890045 77.961716L69.310623 77.260742L69.713562 76.577423L70.081528 75.929398L70.449493 75.281036L70.782166 74.667648L71.080200 74.071915L71.377914 73.493820L71.640976 72.915726L71.903717 72.354950L72.131485 71.776855L72.359268 71.233719L72.569397 70.655624L72.779526 70.094849L72.972336 69.534393L73.147491 68.991272L73.322647 68.430496L73.480484 67.869720L73.638016 67.291626L73.778198 66.695892L73.918396 66.100143L74.058594 65.504730L74.198776 64.873703L74.321335 64.242996L74.426559 63.594955L74.549103 62.928955L74.654327 62.263275L74.741913 61.597610L74.829483 60.896637L74.917068 60.213318L74.987335 59.512665L75.057266 58.811707L75.127518 58.111053L75.179810 57.427734L75.215103 56.726776L75.250076 56.026123L75.267395 55.342804L75.302689 54.659485L75.302689 53.993805L75.302689 53.327805L75.302689 52.679779L75.285034 52.049072L75.267395 51.418030L75.232422 50.822617L75.197464 50.209229L75.162491 49.631134L75.109879 49.053040L75.057266 48.509903L75.004654 47.949142L74.934708 47.423660L74.864456 46.897842L74.759552 46.267136L74.654327 45.654068L74.549103 45.040695L74.408905 44.444946L74.269043 43.831879L74.111206 43.236145L73.953369 42.623077L73.778198 42.027344L73.585724 41.431595L73.375259 40.835861L73.147491 40.240112L72.919724 39.662018L72.674622 39.066284L72.411880 38.488174L72.131485 37.927414L71.851105 37.366959L71.553070 36.823822L71.255371 36.298019L70.940018 35.772537L70.624649 35.264374L70.291656 34.773865L69.958984 34.300674L69.625977 33.845123L69.275650 33.407227L68.942657 32.969315L68.574692 32.566376L68.224365 32.163132L67.856400 31.777832L67.488434 31.392227L67.103149 31.024582L66.717529 30.656616L66.314590 30.305969L65.894012 29.938324L65.473755 29.587677L65.035538 29.237350L64.562668 28.904358L64.089478 28.554031L63.598953 28.221039L63.090790 27.888351L62.565308 27.572998L62.022186 27.240005L61.461411 26.942291L60.900955 26.644257L60.322540 26.346558L59.726807 26.083801L59.131378 25.820740L58.535645 25.575653L57.939896 25.347870L57.326508 25.120102L56.731094 24.927292L56.117706 24.752136L55.521973 24.594299L54.926224 24.454422L54.348129 24.331558L53.752380 24.226654L53.174286 24.138748L52.613525 24.068817L52.035416 24.016205L51.474976 23.998871L50.914200 23.981232L50.336105 23.981232L49.757675 23.998871L49.179581 24.033844L48.601486 24.086456L48.005753 24.156387L47.392685 24.261612L46.779297 24.366516L46.166229 24.489395L45.535522 24.611938L44.904816 24.769775L44.273788 24.944946L43.643082 25.137421L42.995041 25.330231L42.364334 25.540680L41.733627 25.768448L41.120239 25.996231L40.507172 26.241318L39.911438 26.486740L39.333344 26.749481L38.772568 27.012222L38.229431 27.274963L37.703629 27.555359L37.195801 27.818100L36.705276 28.098480L36.232086 28.361221L35.794189 28.641617L35.373596 28.904358L34.970673 29.167419L34.585052 29.447479L34.217087 29.710541L33.761536 30.043228L33.358612 30.393539L32.955673 30.744186L32.587708 31.094513L32.220062 31.462479L31.869415 31.865417L31.536743 32.268356L31.186096 32.706253L30.853409 33.179443L30.502777 33.669968L30.170090 34.195770L29.837097 34.738892L29.504089 35.299347L29.171417 35.860123L28.856064 36.420578L28.575668 36.928726L28.330261 37.401917L28.120132 37.804855L27.944962 38.137863L27.822418 38.382950L27.752167 38.540787L27.699554 38.628372L27.682220 38.663345" style="stroke:rgb(0.000000%,0.000000%,0.000000%); stroke-width: 4.363632;stroke-linecap: round;stroke-linejoin: round;stroke-miterlimit: 10.000000;fill: none;"></path>
  <path d="M0.000000 107.000000L100.916885 107.000000" style="stroke:rgb(0.000000%,0.000000%,0.000000%); stroke-width: 0.555435;stroke-linecap: square;stroke-linejoin: round;stroke-miterlimit: 10.000000;fill: none;"></path>
  <path d="M0.000000 -0.057129L100.916885 -0.057129" style="stroke:rgb(0.000000%,0.000000%,0.000000%); stroke-width: 0.555435;stroke-linecap: square;stroke-linejoin: round;stroke-miterlimit: 10.000000;fill: none;"></path>
  <path d="M0.000000 107.000000L100.916885 107.000000" style="stroke:rgb(0.000000%,0.000000%,0.000000%); stroke-width: 0.555435;stroke-linecap: square;stroke-linejoin: round;stroke-miterlimit: 10.000000;fill: none;"></path>
  <path d="M0.000000 107.000000L0.000000 -0.057129" style="stroke:rgb(0.000000%,0.000000%,0.000000%); stroke-width: 0.555435;stroke-linecap: square;stroke-linejoin: round;stroke-miterlimit: 10.000000;fill: none;"></path>
  <path d="M100.916885 107.000000L100.916885 -0.057129" style="stroke:rgb(0.000000%,0.000000%,0.000000%); stroke-width: 0.555435;stroke-linecap: square;stroke-linejoin: round;stroke-miterlimit: 10.000000;fill: none;"></path>
</svg>
