<?xml version="1.0"?>
<!-- Created by MetaPost 1.9991 on 2022.02.17:1529 -->
<svg version="1.1" xmlns="http://www.w3.org/2000/svg" xmlns:xlink="http://www.w3.org/1999/xlink" width="101.472336" height="107.612579" viewBox="0 0 101.472336 107.612579">
<!-- Original BoundingBox: -0.277725 -0.277725 101.194611 107.334854 -->
  <path d="M8.409668 63.016541L33.376251 63.016541" style="stroke:rgb(0.000000%,0.000000%,0.000000%); stroke-width: 4.363632;stroke-linecap: round;stroke-linejoin: round;stroke-miterlimit: 10.000000;fill: none;"></path>
  <path d="M66.227020 63.016541L92.507629 63.016541" style="stroke:rgb(0.000000%,0.000000%,0.000000%); stroke-width: 4.363632;stroke-linecap: round;stroke-linejoin: round;stroke-miterlimit: 10.000000;fill: none;"></path>
  <path d="M18.921921 41.992050L18.956879 41.992050L19.044464 41.992050L19.219620 42.009689L19.482681 42.009689L19.833008 42.027344L20.305878 42.044662L20.884293 42.079956L21.549973 42.114914L22.320877 42.167526L23.144394 42.219818L24.037842 42.272430L24.966583 42.342697L25.895004 42.412628L26.841064 42.500214L27.787125 42.587784L28.698227 42.693008L29.574356 42.798233L30.415192 42.920792L31.221375 43.043335L31.992279 43.183533L32.710571 43.323730L33.393890 43.481567L34.041931 43.639084L34.637665 43.814240L35.215759 44.007050L35.758896 44.217178L36.284698 44.444946L36.792862 44.672729L37.265732 44.935791L37.738922 45.198532L38.194473 45.496231L38.614731 45.794266L39.035309 46.091980L39.438248 46.424973L39.841171 46.775299L40.244110 47.143265L40.647369 47.511230L41.050308 47.931488L41.453247 48.352066L41.856171 48.789978L42.241470 49.263168L42.644394 49.736359L43.030014 50.244202L43.432953 50.770004L43.818558 51.295486L44.203857 51.856262L44.589462 52.416718L44.957108 52.995132L45.325073 53.573227L45.693039 54.168961L46.061005 54.764709L46.411331 55.360123L46.761978 55.973511L47.112305 56.569260L47.445297 57.182327L47.777969 57.778061L48.093323 58.373795L48.408691 58.969543L48.706711 59.565277L49.022064 60.161026L49.302460 60.739120L49.600159 61.317215L49.897873 61.877991L50.178268 62.456085L50.458649 63.016541L50.739029 63.577316L51.019424 64.155411L51.317139 64.716187L51.614838 65.294281L51.895233 65.872375L52.210587 66.468109L52.508606 67.063858L52.823975 67.659592L53.139328 68.255341L53.472000 68.851074L53.804993 69.464142L54.155319 70.059891L54.505966 70.673264L54.856293 71.268692L55.224258 71.864426L55.592224 72.460175L55.960190 73.038269L56.327835 73.616684L56.713440 74.177139L57.098740 74.737915L57.484344 75.263397L57.887283 75.789200L58.272903 76.297043L58.675827 76.770233L59.061127 77.243423L59.464050 77.681320L59.866989 78.101898L60.269928 78.522171L60.673187 78.890137L61.076126 79.258102L61.479050 79.608429L61.881989 79.941422L62.302567 80.239136L62.722824 80.537155L63.178375 80.834869L63.651566 81.097610L64.124435 81.360672L64.632599 81.588455L65.158401 81.816223L65.701538 82.026352L66.279633 82.219162L66.875366 82.394318L67.523407 82.551834L68.206726 82.709671L68.925018 82.849869L69.695923 82.990067L70.502106 83.112610L71.342941 83.235153L72.219070 83.340378L73.130173 83.445602L74.076233 83.533188L75.022293 83.620773L75.950714 83.690704L76.879456 83.760971L77.772903 83.813583L78.596420 83.865875L79.367325 83.918488L80.033005 83.953445L80.611420 83.988739L81.084290 84.006058L81.434616 84.023712L81.697678 84.023712L81.872833 84.041031L81.960419 84.041031L81.995392 84.041031" style="stroke:rgb(0.000000%,0.000000%,0.000000%); stroke-width: 4.363632;stroke-linecap: round;stroke-linejoin: round;stroke-miterlimit: 10.000000;fill: none;"></path>
  <path d="M0.000000 107.000000L100.916885 107.000000" style="stroke:rgb(0.000000%,0.000000%,0.000000%); stroke-width: 0.555435;stroke-linecap: square;stroke-linejoin: round;stroke-miterlimit: 10.000000;fill: none;"></path>
  <path d="M0.000000 -0.057129L100.916885 -0.057129" style="stroke:rgb(0.000000%,0.000000%,0.000000%); stroke-width: 0.555435;stroke-linecap: square;stroke-linejoin: round;stroke-miterlimit: 10.000000;fill: none;"></path>
  <path d="M0.000000 107.000000L100.916885 107.000000" style="stroke:rgb(0.000000%,0.000000%,0.000000%); stroke-width: 0.555435;stroke-linecap: square;stroke-linejoin: round;stroke-miterlimit: 10.000000;fill: none;"></path>
  <path d="M0.000000 107.000000L0.000000 -0.057129" style="stroke:rgb(0.000000%,0.000000%,0.000000%); stroke-width: 0.555435;stroke-linecap: square;stroke-linejoin: round;stroke-miterlimit: 10.000000;fill: none;"></path>
  <path d="M100.916885 107.000000L100.916885 -0.057129" style="stroke:rgb(0.000000%,0.000000%,0.000000%); stroke-width: 0.555435;stroke-linecap: square;stroke-linejoin: round;stroke-miterlimit: 10.000000;fill: none;"></path>
</svg>
