<?xml version="1.0"?>
<!-- Created by MetaPost 1.9991 on 2022.02.18:1311 -->
<svg version="1.1" xmlns="http://www.w3.org/2000/svg" xmlns:xlink="http://www.w3.org/1999/xlink" width="94.689453" height="88.461609" viewBox="0 0 94.689453 88.461609">
<!-- Original BoundingBox: 6.227844 -0.247345 94.689453 88.214264 -->
  <path d="M13.665787 22.992050L8.409668 1.967560L29.434158 7.223679" style="stroke:rgb(0.000000%,0.000000%,0.000000%); stroke-width: 4.363632;stroke-linecap: round;stroke-linejoin: round;stroke-miterlimit: 10.000000;fill: none;"></path>
  <path d="M34.690277 28.248169L8.409668 1.967560" style="stroke:rgb(0.000000%,0.000000%,0.000000%); stroke-width: 4.363632;stroke-linecap: round;stroke-linejoin: round;stroke-miterlimit: 10.000000;fill: none;"></path>
  <path d="M8.409668 86.065521L92.507629 1.967560" style="stroke:rgb(0.000000%,0.000000%,0.000000%); stroke-width: 4.363632;stroke-linecap: round;stroke-linejoin: round;stroke-miterlimit: 10.000000;fill: none;"></path>
  <path d="M71.483139 7.223679L92.507629 1.967560L87.251511 22.992050" style="stroke:rgb(0.000000%,0.000000%,0.000000%); stroke-width: 4.363632;stroke-linecap: round;stroke-linejoin: round;stroke-miterlimit: 10.000000;fill: none;"></path>
  <path d="M92.507629 86.065521L66.227020 59.784912" style="stroke:rgb(0.000000%,0.000000%,0.000000%); stroke-width: 4.363632;stroke-linecap: round;stroke-linejoin: round;stroke-miterlimit: 10.000000;fill: none;"></path>
  <path d="M72.797165 44.016541C72.797165 38.091858,70.443085 32.410339,66.253967 28.221222C62.064850 24.032104,56.383331 21.678024,50.458649 21.678024C44.533966 21.678024,38.852448 24.032104,34.663330 28.221222C30.474213 32.410339,28.120132 38.091858,28.120132 44.016541C28.120132 49.941223,30.474213 55.622742,34.663330 59.811859C38.852448 64.000961,44.533966 66.355057,50.458649 66.355057C56.383331 66.355057,62.064850 64.000961,66.253967 59.811859C70.443085 55.622742,72.797165 49.941223,72.797165 44.016541Z" style="stroke:rgb(0.000000%,0.000000%,0.000000%); stroke-width: 4.363632;stroke-linecap: round;stroke-linejoin: round;stroke-miterlimit: 10.000000;fill: none;"></path>
</svg>
