<?xml version="1.0"?>
<!-- Created by MetaPost 1.9991 on 2022.02.17:1529 -->
<svg version="1.1" xmlns="http://www.w3.org/2000/svg" xmlns:xlink="http://www.w3.org/1999/xlink" width="101.472336" height="107.612579" viewBox="0 0 101.472336 107.612579">
<!-- Original BoundingBox: -0.277725 -0.277725 101.194611 107.334854 -->
  <path d="M8.409668 20.967560L92.507629 105.065521" style="stroke:rgb(0.000000%,0.000000%,0.000000%); stroke-width: 4.363632;stroke-linecap: round;stroke-linejoin: round;stroke-miterlimit: 10.000000;fill: none;"></path>
  <path d="M8.409668 105.065521L34.690277 78.784912" style="stroke:rgb(0.000000%,0.000000%,0.000000%); stroke-width: 4.363632;stroke-linecap: round;stroke-linejoin: round;stroke-miterlimit: 10.000000;fill: none;"></path>
  <path d="M66.227020 47.248169L92.507629 20.967560" style="stroke:rgb(0.000000%,0.000000%,0.000000%); stroke-width: 4.363632;stroke-linecap: round;stroke-linejoin: round;stroke-miterlimit: 10.000000;fill: none;"></path>
  <path d="M71.483139 63.016541C71.483139 57.440247,69.267639 52.093018,65.324905 48.150284C61.382172 44.207550,56.034943 41.992050,50.458649 41.992050C44.882355 41.992050,39.535126 44.207550,35.592392 48.150284C31.649658 52.093018,29.434158 57.440247,29.434158 63.016541C29.434158 68.592834,31.649658 73.940063,35.592392 77.882797C39.535126 81.825531,44.882355 84.041031,50.458649 84.041031C56.034943 84.041031,61.382172 81.825531,65.324905 77.882797C69.267639 73.940063,71.483139 68.592834,71.483139 63.016541Z" style="stroke:rgb(0.000000%,0.000000%,0.000000%); stroke-width: 4.363632;stroke-linecap: round;stroke-linejoin: round;stroke-miterlimit: 10.000000;fill: none;"></path>
  <path d="M0.000000 107.000000L100.916885 107.000000" style="stroke:rgb(0.000000%,0.000000%,0.000000%); stroke-width: 0.555435;stroke-linecap: square;stroke-linejoin: round;stroke-miterlimit: 10.000000;fill: none;"></path>
  <path d="M0.000000 -0.057129L100.916885 -0.057129" style="stroke:rgb(0.000000%,0.000000%,0.000000%); stroke-width: 0.555435;stroke-linecap: square;stroke-linejoin: round;stroke-miterlimit: 10.000000;fill: none;"></path>
  <path d="M0.000000 107.000000L100.916885 107.000000" style="stroke:rgb(0.000000%,0.000000%,0.000000%); stroke-width: 0.555435;stroke-linecap: square;stroke-linejoin: round;stroke-miterlimit: 10.000000;fill: none;"></path>
  <path d="M0.000000 107.000000L0.000000 -0.057129" style="stroke:rgb(0.000000%,0.000000%,0.000000%); stroke-width: 0.555435;stroke-linecap: square;stroke-linejoin: round;stroke-miterlimit: 10.000000;fill: none;"></path>
  <path d="M100.916885 107.000000L100.916885 -0.057129" style="stroke:rgb(0.000000%,0.000000%,0.000000%); stroke-width: 0.555435;stroke-linecap: square;stroke-linejoin: round;stroke-miterlimit: 10.000000;fill: none;"></path>
</svg>
