<?xml version="1.0"?>
<!-- Created by MetaPost 1.9991 on 2022.02.18:1311 -->
<svg version="1.1" xmlns="http://www.w3.org/2000/svg" xmlns:xlink="http://www.w3.org/1999/xlink" width="88.461609" height="88.461609" viewBox="6.227844 -0.247345 88.461609 88.461609">
<!-- Original BoundingBox: 6.227844 -0.247345 94.689453 88.214264 -->
  <path d="M8.409668 1.967560L92.507629 86.065521" style="stroke:rgb(0.000000%,0.000000%,0.000000%); stroke-width: 4.363632;stroke-linecap: round;stroke-linejoin: round;stroke-miterlimit: 10.000000;fill: none;"></path>
  <path d="M8.409668 86.065521L34.690277 59.784912" style="stroke:rgb(0.000000%,0.000000%,0.000000%); stroke-width: 4.363632;stroke-linecap: round;stroke-linejoin: round;stroke-miterlimit: 10.000000;fill: none;"></path>
  <path d="M66.227020 28.248169L92.507629 1.967560" style="stroke:rgb(0.000000%,0.000000%,0.000000%); stroke-width: 4.363632;stroke-linecap: round;stroke-linejoin: round;stroke-miterlimit: 10.000000;fill: none;"></path>
  <path d="M71.483139 44.016541C71.483139 38.440247,69.267639 33.093018,65.324905 29.150284C61.382172 25.207550,56.034943 22.992050,50.458649 22.992050C44.882355 22.992050,39.535126 25.207550,35.592392 29.150284C31.649658 33.093018,29.434158 38.440247,29.434158 44.016541C29.434158 49.592834,31.649658 54.940063,35.592392 58.882797C39.535126 62.825531,44.882355 65.041031,50.458649 65.041031C56.034943 65.041031,61.382172 62.825531,65.324905 58.882797C69.267639 54.940063,71.483139 49.592834,71.483139 44.016541Z" style="stroke:rgb(0.000000%,0.000000%,0.000000%); stroke-width: 4.363632;stroke-linecap: round;stroke-linejoin: round;stroke-miterlimit: 10.000000;fill: none;"></path>
</svg>
