<?xml version="1.0"?>
<!-- Created by MetaPost 1.9991 on 2022.02.18:1311 -->
<svg version="1.1" xmlns="http://www.w3.org/2000/svg" xmlns:xlink="http://www.w3.org/1999/xlink" width="94.689453" height="88.461609" viewBox="0 0 94.689453 88.461609">
<!-- Original BoundingBox: 6.227844 -0.247345 94.689453 88.214264 -->
  <path d="M8.409668 1.967560L8.427307 1.985199L8.479599 2.002853L8.567505 2.055466L8.707382 2.143036L8.917831 2.265594L9.198212 2.423111L9.565857 2.633560L10.004089 2.878647L10.529572 3.176682L11.160278 3.544647L11.861237 3.947586L12.667114 4.403137L13.543243 4.893646L14.489304 5.454422L15.505310 6.032516L16.591568 6.645584L17.730438 7.311584L18.904266 7.977264L20.130722 8.677902L21.357162 9.378876L22.618591 10.097153L23.880325 10.815445L25.141739 11.533737L26.385513 12.252350L27.629608 12.970642L28.838425 13.671280L30.029892 14.354614L31.203735 15.020279L32.342606 15.668640L33.428864 16.299347L34.497482 16.912735L35.531113 17.508469L36.529800 18.086563L37.493500 18.629700L38.422241 19.172821L39.315689 19.680984L40.174179 20.171509L40.997696 20.644379L41.803558 21.117569L42.574463 21.555466L43.310394 21.976044L44.028687 22.396622L44.712006 22.799561L45.377686 23.184860L46.026047 23.552826L46.656754 23.920792L47.269821 24.271118L47.865555 24.621750L48.443649 24.954437L49.022064 25.287430L49.582520 25.620117L50.423676 26.110947L51.247192 26.583817L52.053070 27.057007L52.823975 27.529877L53.594864 27.985428L54.348129 28.440979L55.101700 28.896530L55.819992 29.334747L56.520645 29.772659L57.203964 30.210556L57.887283 30.648773L58.535645 31.069031L59.148697 31.507263L59.762085 31.927521L60.322540 32.330460L60.883316 32.733398L61.391479 33.136642L61.881989 33.539581L62.337540 33.924866L62.758118 34.292847L63.143402 34.660812L63.511368 35.028778L63.826736 35.379105L64.107117 35.729416L64.352219 36.062424L64.579987 36.377777L64.755142 36.693130L64.912979 37.008484L65.018204 37.306519L65.105789 37.604218L65.158401 37.901932L65.175720 38.199966L65.175720 38.480347L65.140762 38.760422L65.053177 39.058441L64.947952 39.356155L64.807755 39.671509L64.615280 39.986862L64.387497 40.302216L64.107117 40.617569L63.774109 40.950577L63.406143 41.300903L62.968246 41.668869L62.495056 42.036835L61.969574 42.439774L61.373825 42.860352L60.743118 43.298248L60.042160 43.736481L59.306534 44.209351L58.535645 44.699860L57.712128 45.190704L56.888611 45.681213L56.030121 46.171722L55.206604 46.644608L54.400742 47.100143L53.629837 47.538376L52.928879 47.923660L52.298157 48.274307L51.755035 48.572021L51.317139 48.799789L50.984131 48.992599L50.739029 49.115143L50.581192 49.202728L50.493622 49.255341L50.458649 49.272659" style="stroke:rgb(0.000000%,0.000000%,0.000000%); stroke-width: 4.363632;stroke-linecap: round;stroke-linejoin: round;stroke-miterlimit: 10.000000;fill: none;"></path>
  <path d="M92.507629 1.967560L92.489990 1.985199L92.437698 2.002853L92.349792 2.055466L92.209915 2.143036L91.999466 2.265594L91.719086 2.423111L91.351440 2.633560L90.913208 2.878647L90.387726 3.176682L89.757019 3.544647L89.056061 3.947586L88.250183 4.403137L87.374054 4.893646L86.427994 5.454422L85.411987 6.032516L84.325729 6.645584L83.186859 7.311584L82.013031 7.977264L80.786575 8.677902L79.560135 9.378876L78.298706 10.097153L77.036972 10.815445L75.775558 11.533737L74.531784 12.252350L73.287689 12.970642L72.078873 13.671280L70.887405 14.354614L69.713562 15.020279L68.574692 15.668640L67.488434 16.299347L66.419815 16.912735L65.386185 17.508469L64.387497 18.086563L63.423798 18.629700L62.495056 19.172821L61.601608 19.680984L60.743118 20.171509L59.919601 20.644379L59.113739 21.117569L58.342834 21.555466L57.606903 21.976044L56.888611 22.396622L56.205292 22.799561L55.539612 23.184860L54.891251 23.552826L54.260544 23.920792L53.647476 24.271118L53.051743 24.621750L52.473648 24.954437L51.895233 25.287430L51.334778 25.620117L50.493622 26.110947L49.670105 26.583817L48.864227 27.057007L48.093323 27.529877L47.322433 27.985428L46.569168 28.440979L45.815598 28.896530L45.097305 29.334747L44.396652 29.772659L43.713333 30.210556L43.030014 30.648773L42.381653 31.069031L41.768600 31.507263L41.155212 31.927521L40.594757 32.330460L40.033981 32.733398L39.525818 33.136642L39.035309 33.539581L38.579758 33.924866L38.159180 34.292847L37.773895 34.660812L37.405930 35.028778L37.090561 35.379105L36.810181 35.729416L36.565079 36.062424L36.337311 36.377777L36.162155 36.693130L36.004318 37.008484L35.899094 37.306519L35.811508 37.604218L35.758896 37.901932L35.741577 38.199966L35.741577 38.480347L35.794189 38.760422L35.864120 39.058441L35.969345 39.356155L36.109543 39.671509L36.302017 39.986862L36.529800 40.302216L36.810181 40.617569L37.143188 40.950577L37.511154 41.300903L37.949051 41.668869L38.422241 42.036835L38.947723 42.439774L39.543472 42.860352L40.174179 43.298248L40.875137 43.736481L41.610764 44.209351L42.381653 44.699860L43.205170 45.190704L44.028687 45.681213L44.887177 46.171722L45.710693 46.644608L46.516556 47.100143L47.287460 47.538376L47.988419 47.923660L48.619141 48.274307L49.162262 48.572021L49.600159 48.799789L49.933167 48.992599L50.178268 49.115143L50.336105 49.202728L50.423676 49.255341L50.458649 49.272659" style="stroke:rgb(0.000000%,0.000000%,0.000000%); stroke-width: 4.363632;stroke-linecap: round;stroke-linejoin: round;stroke-miterlimit: 10.000000;fill: none;"></path>
  <path d="M50.458649 49.272659L50.458649 86.065521" style="stroke:rgb(0.000000%,0.000000%,0.000000%); stroke-width: 4.363632;stroke-linecap: round;stroke-linejoin: round;stroke-miterlimit: 10.000000;fill: none;"></path>
</svg>
