<?xml version="1.0"?>
<!-- Created by MetaPost 1.9991 on 2022.02.17:1529 -->
<svg version="1.1" xmlns="http://www.w3.org/2000/svg" xmlns:xlink="http://www.w3.org/1999/xlink" width="101.472336" height="107.612579" viewBox="0 0 101.472336 107.612579">
<!-- Original BoundingBox: -0.277725 -0.277725 101.194611 107.334854 -->
  <path d="M8.409668 20.967560L8.427307 20.985199L8.479599 21.002853L8.567505 21.055466L8.707382 21.143036L8.917831 21.265594L9.198212 21.423111L9.565857 21.633560L10.004089 21.878647L10.529572 22.176682L11.160278 22.544647L11.861237 22.947586L12.667114 23.403137L13.543243 23.893646L14.489304 24.454422L15.505310 25.032516L16.591568 25.645584L17.730438 26.311584L18.904266 26.977264L20.130722 27.677902L21.357162 28.378876L22.618591 29.097153L23.880325 29.815445L25.141739 30.533737L26.385513 31.252350L27.629608 31.970642L28.838425 32.671280L30.029892 33.354614L31.203735 34.020279L32.342606 34.668640L33.428864 35.299347L34.497482 35.912735L35.531113 36.508469L36.529800 37.086563L37.493500 37.629700L38.422241 38.172821L39.315689 38.680984L40.174179 39.171509L40.997696 39.644379L41.803558 40.117569L42.574463 40.555466L43.310394 40.976044L44.028687 41.396622L44.712006 41.799561L45.377686 42.184860L46.026047 42.552826L46.656754 42.920792L47.269821 43.271118L47.865555 43.621750L48.443649 43.954437L49.022064 44.287430L49.582520 44.620117L50.423676 45.110947L51.247192 45.583817L52.053070 46.057007L52.823975 46.529877L53.594864 46.985428L54.348129 47.440979L55.101700 47.896530L55.819992 48.334747L56.520645 48.772659L57.203964 49.210556L57.887283 49.648773L58.535645 50.069031L59.148697 50.507263L59.762085 50.927521L60.322540 51.330460L60.883316 51.733398L61.391479 52.136642L61.881989 52.539581L62.337540 52.924866L62.758118 53.292847L63.143402 53.660812L63.511368 54.028778L63.826736 54.379105L64.107117 54.729416L64.352219 55.062424L64.579987 55.377777L64.755142 55.693130L64.912979 56.008484L65.018204 56.306519L65.105789 56.604218L65.158401 56.901932L65.175720 57.199966L65.175720 57.480347L65.140762 57.760422L65.053177 58.058441L64.947952 58.356155L64.807755 58.671509L64.615280 58.986862L64.387497 59.302216L64.107117 59.617569L63.774109 59.950577L63.406143 60.300903L62.968246 60.668869L62.495056 61.036835L61.969574 61.439774L61.373825 61.860352L60.743118 62.298248L60.042160 62.736481L59.306534 63.209351L58.535645 63.699860L57.712128 64.190704L56.888611 64.681213L56.030121 65.171722L55.206604 65.644608L54.400742 66.100143L53.629837 66.538376L52.928879 66.923660L52.298157 67.274307L51.755035 67.572021L51.317139 67.799789L50.984131 67.992599L50.739029 68.115143L50.581192 68.202728L50.493622 68.255341L50.458649 68.272659" style="stroke:rgb(0.000000%,0.000000%,0.000000%); stroke-width: 4.363632;stroke-linecap: round;stroke-linejoin: round;stroke-miterlimit: 10.000000;fill: none;"></path>
  <path d="M92.507629 20.967560L92.489990 20.985199L92.437698 21.002853L92.349792 21.055466L92.209915 21.143036L91.999466 21.265594L91.719086 21.423111L91.351440 21.633560L90.913208 21.878647L90.387726 22.176682L89.757019 22.544647L89.056061 22.947586L88.250183 23.403137L87.374054 23.893646L86.427994 24.454422L85.411987 25.032516L84.325729 25.645584L83.186859 26.311584L82.013031 26.977264L80.786575 27.677902L79.560135 28.378876L78.298706 29.097153L77.036972 29.815445L75.775558 30.533737L74.531784 31.252350L73.287689 31.970642L72.078873 32.671280L70.887405 33.354614L69.713562 34.020279L68.574692 34.668640L67.488434 35.299347L66.419815 35.912735L65.386185 36.508469L64.387497 37.086563L63.423798 37.629700L62.495056 38.172821L61.601608 38.680984L60.743118 39.171509L59.919601 39.644379L59.113739 40.117569L58.342834 40.555466L57.606903 40.976044L56.888611 41.396622L56.205292 41.799561L55.539612 42.184860L54.891251 42.552826L54.260544 42.920792L53.647476 43.271118L53.051743 43.621750L52.473648 43.954437L51.895233 44.287430L51.334778 44.620117L50.493622 45.110947L49.670105 45.583817L48.864227 46.057007L48.093323 46.529877L47.322433 46.985428L46.569168 47.440979L45.815598 47.896530L45.097305 48.334747L44.396652 48.772659L43.713333 49.210556L43.030014 49.648773L42.381653 50.069031L41.768600 50.507263L41.155212 50.927521L40.594757 51.330460L40.033981 51.733398L39.525818 52.136642L39.035309 52.539581L38.579758 52.924866L38.159180 53.292847L37.773895 53.660812L37.405930 54.028778L37.090561 54.379105L36.810181 54.729416L36.565079 55.062424L36.337311 55.377777L36.162155 55.693130L36.004318 56.008484L35.899094 56.306519L35.811508 56.604218L35.758896 56.901932L35.741577 57.199966L35.741577 57.480347L35.794189 57.760422L35.864120 58.058441L35.969345 58.356155L36.109543 58.671509L36.302017 58.986862L36.529800 59.302216L36.810181 59.617569L37.143188 59.950577L37.511154 60.300903L37.949051 60.668869L38.422241 61.036835L38.947723 61.439774L39.543472 61.860352L40.174179 62.298248L40.875137 62.736481L41.610764 63.209351L42.381653 63.699860L43.205170 64.190704L44.028687 64.681213L44.887177 65.171722L45.710693 65.644608L46.516556 66.100143L47.287460 66.538376L47.988419 66.923660L48.619141 67.274307L49.162262 67.572021L49.600159 67.799789L49.933167 67.992599L50.178268 68.115143L50.336105 68.202728L50.423676 68.255341L50.458649 68.272659" style="stroke:rgb(0.000000%,0.000000%,0.000000%); stroke-width: 4.363632;stroke-linecap: round;stroke-linejoin: round;stroke-miterlimit: 10.000000;fill: none;"></path>
  <path d="M50.458649 68.272659L50.458649 105.065521" style="stroke:rgb(0.000000%,0.000000%,0.000000%); stroke-width: 4.363632;stroke-linecap: round;stroke-linejoin: round;stroke-miterlimit: 10.000000;fill: none;"></path>
  <path d="M0.000000 107.000000L100.916885 107.000000" style="stroke:rgb(0.000000%,0.000000%,0.000000%); stroke-width: 0.555435;stroke-linecap: square;stroke-linejoin: round;stroke-miterlimit: 10.000000;fill: none;"></path>
  <path d="M0.000000 -0.057129L100.916885 -0.057129" style="stroke:rgb(0.000000%,0.000000%,0.000000%); stroke-width: 0.555435;stroke-linecap: square;stroke-linejoin: round;stroke-miterlimit: 10.000000;fill: none;"></path>
  <path d="M0.000000 107.000000L100.916885 107.000000" style="stroke:rgb(0.000000%,0.000000%,0.000000%); stroke-width: 0.555435;stroke-linecap: square;stroke-linejoin: round;stroke-miterlimit: 10.000000;fill: none;"></path>
  <path d="M0.000000 107.000000L0.000000 -0.057129" style="stroke:rgb(0.000000%,0.000000%,0.000000%); stroke-width: 0.555435;stroke-linecap: square;stroke-linejoin: round;stroke-miterlimit: 10.000000;fill: none;"></path>
  <path d="M100.916885 107.000000L100.916885 -0.057129" style="stroke:rgb(0.000000%,0.000000%,0.000000%); stroke-width: 0.555435;stroke-linecap: square;stroke-linejoin: round;stroke-miterlimit: 10.000000;fill: none;"></path>
</svg>
