<?xml version="1.0"?>
<!-- Created by MetaPost 1.9991 on 2022.02.18:1311 -->
<svg version="1.1" xmlns="http://www.w3.org/2000/svg" xmlns:xlink="http://www.w3.org/1999/xlink" width="88.461609" height="46.412629" viewBox="6.227844 20.777145 88.461609 67.189774">
<!-- Original BoundingBox: 6.227844 20.777145 94.689453 67.189774 -->
  <path d="M71.483139 23.016541C71.483139 17.440247,69.267639 12.093018,65.324905 8.150284C61.382172 4.207550,56.034943 1.992050,50.458649 1.992050C44.882355 1.992050,39.535126 4.207550,35.592392 8.150284C31.649658 12.093018,29.434158 17.440247,29.434158 23.016541C29.434158 28.592834,31.649658 33.940063,35.592392 37.882797C39.535126 41.825531,44.882355 44.041031,50.458649 44.041031C56.034943 44.041031,61.382172 41.825531,65.324905 37.882797C69.267639 33.940063,71.483139 28.592834,71.483139 23.016541Z" style="stroke:rgb(0.000000%,0.000000%,0.000000%); stroke-width: 4.363632;stroke-linecap: round;stroke-linejoin: round;stroke-miterlimit: 10.000000;fill: none;"></path>
  <path d="M8.409668 23.016541L29.434158 23.016541" style="stroke:rgb(0.000000%,0.000000%,0.000000%); stroke-width: 4.363632;stroke-linecap: round;stroke-linejoin: round;stroke-miterlimit: 10.000000;fill: none;"></path>
  <path d="M71.483139 23.016541L92.507629 23.016541" style="stroke:rgb(0.000000%,0.000000%,0.000000%); stroke-width: 4.363632;stroke-linecap: round;stroke-linejoin: round;stroke-miterlimit: 10.000000;fill: none;"></path>
</svg>
