<?xml version="1.0"?>
<!-- Created by MetaPost 1.9991 on 2022.02.18:1311 -->
<svg version="1.1" xmlns="http://www.w3.org/2000/svg" xmlns:xlink="http://www.w3.org/1999/xlink" width="94.689453" height="88.461609" viewBox="0 0 94.689453 88.461609">
<!-- Original BoundingBox: 6.227844 -0.247345 94.689453 88.214264 -->
  <path d="M71.483139 7.223679L92.507629 1.967560L87.251511 22.992050" style="stroke:rgb(0.000000%,0.000000%,0.000000%); stroke-width: 4.363632;stroke-linecap: round;stroke-linejoin: round;stroke-miterlimit: 10.000000;fill: none;"></path>
  <path d="M29.434158 7.223679L8.409668 1.967560L13.665787 22.992050" style="stroke:rgb(0.000000%,0.000000%,0.000000%); stroke-width: 4.363632;stroke-linecap: round;stroke-linejoin: round;stroke-miterlimit: 10.000000;fill: none;"></path>
  <path d="M8.409668 1.967560L8.427307 1.985199L8.479599 2.037811L8.567505 2.125397L8.690048 2.265594L8.882858 2.475723L9.145599 2.738464L9.460953 3.089111L9.846252 3.509369L10.301788 4.000198L10.827606 4.560654L11.405701 5.191360L12.054047 5.892334L12.737045 6.645584L13.438019 7.434128L14.191269 8.257645L14.962173 9.116135L15.733078 9.991928L16.503983 10.885712L17.274887 11.761520L18.045792 12.655289L18.781723 13.531097L19.500015 14.389572L20.200974 15.230728L20.866653 16.054245L21.497360 16.860123L22.110748 17.648346L22.688843 18.419250L23.231979 19.155182L23.757462 19.873474L24.247971 20.591766L24.703522 21.275085L25.141739 21.958405L25.561996 22.624405L25.947617 23.272430L26.315582 23.920792L26.648254 24.569138L26.981262 25.217178L27.279282 25.847885L27.576996 26.496231L27.857391 27.161911L28.120132 27.810272L28.365540 28.475952L28.610641 29.141937L28.838425 29.825272L29.066193 30.508591L29.276321 31.226883L29.469131 31.927521L29.644287 32.663452L29.819443 33.399384L29.994934 34.152649L30.135132 34.923553L30.274994 35.712097L30.415192 36.500320L30.520416 37.306519L30.625641 38.112381L30.713226 38.935898L30.800797 39.776733L30.853409 40.617569L30.906021 41.458740L30.940994 42.299576L30.958313 43.158051L30.975967 44.016541L30.958313 44.875336L30.940994 45.733826L30.906021 46.574661L30.853409 47.415497L30.800797 48.256668L30.713226 49.097504L30.625641 49.921021L30.520416 50.726883L30.415192 51.533081L30.274994 52.321304L30.135132 53.109848L29.994934 53.880753L29.819443 54.634003L29.644287 55.369949L29.469131 56.105881L29.276321 56.806519L29.066193 57.524811L28.838425 58.208130L28.610641 58.891449L28.365540 59.557449L28.120132 60.223129L27.857391 60.871490L27.576996 61.537155L27.279282 62.185516L26.981262 62.816223L26.648254 63.464264L26.315582 64.112610L25.947617 64.760971L25.561996 65.408997L25.141739 66.074997L24.703522 66.758316L24.247971 67.441635L23.757462 68.159927L23.231979 68.878220L22.688843 69.614151L22.110748 70.385056L21.497360 71.173279L20.866653 71.979156L20.200974 72.802658L19.500015 73.643829L18.781723 74.502304L18.045792 75.378113L17.274887 76.271881L16.503983 77.147690L15.733078 78.041458L14.962173 78.917267L14.191269 79.775757L13.438019 80.599274L12.737045 81.387817L12.054047 82.141068L11.405701 82.842041L10.827606 83.472748L10.301788 84.033203L9.846252 84.524033L9.460953 84.944290L9.145599 85.294617L8.882858 85.557678L8.690048 85.767807L8.567505 85.908005L8.479599 85.995590L8.427307 86.048203L8.409668 86.065521" style="stroke:rgb(0.000000%,0.000000%,0.000000%); stroke-width: 4.363632;stroke-linecap: round;stroke-linejoin: round;stroke-miterlimit: 10.000000;fill: none;"></path>
  <path d="M92.507629 1.967560L92.489990 1.985199L92.437698 2.037811L92.349792 2.125397L92.227249 2.265594L92.034439 2.475723L91.771698 2.738464L91.456345 3.089111L91.071045 3.509369L90.615509 4.000198L90.089691 4.560654L89.511597 5.191360L88.863251 5.892334L88.180252 6.645584L87.479279 7.434128L86.726028 8.257645L85.955124 9.116135L85.184219 9.991928L84.413315 10.885712L83.642410 11.761520L82.871506 12.655289L82.135574 13.531097L81.417282 14.389572L80.716324 15.230728L80.050644 16.054245L79.419937 16.860123L78.806549 17.648346L78.228455 18.419250L77.685318 19.155182L77.159836 19.873474L76.669327 20.591766L76.213776 21.275085L75.775558 21.958405L75.355301 22.624405L74.969681 23.272430L74.601715 23.920792L74.269043 24.569138L73.936035 25.217178L73.638016 25.847885L73.340302 26.496231L73.059906 27.161911L72.797165 27.810272L72.551758 28.475952L72.306656 29.141937L72.078873 29.825272L71.851105 30.508591L71.640976 31.226883L71.448166 31.927521L71.273010 32.663452L71.097855 33.399384L70.922363 34.152649L70.782166 34.923553L70.642303 35.712097L70.502106 36.500320L70.396881 37.306519L70.291656 38.112381L70.204071 38.935898L70.116501 39.776733L70.063889 40.617569L70.011276 41.458740L69.976303 42.299576L69.958984 43.158051L69.941330 44.016541L69.958984 44.875336L69.976303 45.733826L70.011276 46.574661L70.063889 47.415497L70.116501 48.256668L70.204071 49.097504L70.291656 49.921021L70.396881 50.726883L70.502106 51.533081L70.642303 52.321304L70.782166 53.109848L70.922363 53.880753L71.097855 54.634003L71.273010 55.369949L71.448166 56.105881L71.640976 56.806519L71.851105 57.524811L72.078873 58.208130L72.306656 58.891449L72.551758 59.557449L72.797165 60.223129L73.059906 60.871490L73.340302 61.537155L73.638016 62.185516L73.936035 62.816223L74.269043 63.464264L74.601715 64.112610L74.969681 64.760971L75.355301 65.408997L75.775558 66.074997L76.213776 66.758316L76.669327 67.441635L77.159836 68.159927L77.685318 68.878220L78.228455 69.614151L78.806549 70.385056L79.419937 71.173279L80.050644 71.979156L80.716324 72.802658L81.417282 73.643829L82.135574 74.502304L82.871506 75.378113L83.642410 76.271881L84.413315 77.147690L85.184219 78.041458L85.955124 78.917267L86.726028 79.775757L87.479279 80.599274L88.180252 81.387817L88.863251 82.141068L89.511597 82.842041L90.089691 83.472748L90.615509 84.033203L91.071045 84.524033L91.456345 84.944290L91.771698 85.294617L92.034439 85.557678L92.227249 85.767807L92.349792 85.908005L92.437698 85.995590L92.489990 86.048203L92.507629 86.065521" style="stroke:rgb(0.000000%,0.000000%,0.000000%); stroke-width: 4.363632;stroke-linecap: round;stroke-linejoin: round;stroke-miterlimit: 10.000000;fill: none;"></path>
</svg>
