<?xml version="1.0"?>
<!-- Created by MetaPost 1.9991 on 2022.02.18:1311 -->
<svg version="1.1" xmlns="http://www.w3.org/2000/svg" xmlns:xlink="http://www.w3.org/1999/xlink" width="88.461609" height="88.461609" viewBox="6.227844 -0.247345 88.461609 88.461609">
<!-- Original BoundingBox: 6.227844 -0.247345 94.689453 88.214264 -->
  <path d="M8.409668 86.065521L8.409668 86.030548L8.409668 85.977936L8.409668 85.855392L8.409668 85.680222L8.409668 85.417480L8.409668 85.049515L8.409668 84.611618L8.409668 84.068481L8.409668 83.420135L8.409668 82.684204L8.409668 81.878326L8.409668 80.967239L8.409668 80.003525L8.409668 78.987534L8.409668 77.918594L8.409668 76.815018L8.409668 75.693466L8.409668 74.572235L8.409668 73.433380L8.409668 72.329788L8.409668 71.225891L8.409668 70.139633L8.409668 69.088348L8.409668 68.054703L8.409668 67.056030L8.409668 66.092316L8.409668 65.163895L8.409668 64.270126L8.409668 63.411652L8.409668 62.570801L8.409668 61.747284L8.409668 60.959061L8.409668 60.205490L8.409668 59.452225L8.409668 58.716293L8.409668 57.998001L8.409668 57.297043L8.409668 56.596390L8.409668 55.913071L8.409668 55.212112L8.409668 54.528778L8.409668 53.775528L8.409668 53.004623L8.409668 52.233719L8.409668 51.462814L8.427307 50.691910L8.444641 49.903687L8.444641 49.115143L8.479599 48.326599L8.497253 47.520721L8.532211 46.732498L8.584824 45.908981L8.637436 45.103119L8.690048 44.296921L8.777634 43.473404L8.847565 42.667542L8.952789 41.861664L9.058014 41.073120L9.180573 40.267258L9.320770 39.496353L9.478287 38.725449L9.636124 37.954544L9.811279 37.218933L10.021408 36.483002L10.231857 35.782028L10.459625 35.098709L10.704727 34.433029L10.967789 33.784683L11.230530 33.153976L11.528244 32.558228L11.843597 31.997772L12.158951 31.437012L12.509598 30.911514L12.877243 30.421005L13.262848 29.930176L13.648148 29.474625L14.068726 29.054367L14.524277 28.633789L14.979828 28.248169L15.435364 27.897842L15.925888 27.565170L16.434052 27.232178L16.959534 26.934143L17.520309 26.654068L18.098404 26.373688L18.694138 26.110947L19.324844 25.865524L19.973206 25.637756L20.638885 25.427628L21.322205 25.234818L22.040497 25.042007L22.758774 24.884491L23.512360 24.744308L24.265610 24.604111L25.018875 24.498886L25.807419 24.393982L26.595963 24.306076L27.384201 24.253784L28.172745 24.201172L28.978607 24.183533L29.767151 24.166214L30.555389 24.166214L31.343933 24.201172L32.132156 24.236145L32.885727 24.288757L33.638992 24.358688L34.374924 24.446274L35.093216 24.551498L35.811508 24.656723L36.494827 24.796921L37.160507 24.937103L37.791534 25.094620L38.422241 25.252457L39.017670 25.427628L39.596085 25.620117L40.156540 25.830566L40.699661 26.040695L41.207825 26.268463L41.698334 26.496231L42.259109 26.794266L42.784592 27.091980L43.275436 27.424973L43.765945 27.775299L44.221497 28.125626L44.659393 28.511230L45.079971 28.914169L45.482910 29.352066L45.868210 29.789978L46.236176 30.245529L46.586487 30.736359L46.919495 31.226883L47.217529 31.735031L47.515228 32.260513L47.795624 32.803650L48.058365 33.364426L48.286133 33.924866L48.513916 34.502975L48.724045 35.081390L48.916840 35.659485L49.092010 36.255219L49.267166 36.833328L49.407364 37.429062L49.547546 38.007156L49.670105 38.602905L49.792969 39.163666L49.897873 39.741776L49.985458 40.302216L50.073364 40.862991L50.160934 41.423767L50.248520 41.966888L50.318451 42.510025L50.388718 43.053146L50.458649 43.578629L50.528580 44.104446L50.598846 44.647568L50.668777 45.173050L50.756363 45.698532L50.843933 46.241669L50.931839 46.784790L51.019424 47.327927L51.124329 47.871048L51.247192 48.414185L51.369751 48.957306L51.509933 49.500443L51.650131 50.043564L51.825287 50.604340L52.000458 51.147461L52.193253 51.673264L52.403381 52.198761L52.631165 52.724243L52.858932 53.250046L53.121674 53.740555L53.402069 54.231079L53.699768 54.704269L53.997803 55.177139L54.330811 55.615356L54.681122 56.035614L55.049088 56.456207L55.434387 56.841492L55.837326 57.209457L56.257904 57.577423L56.695801 57.910431L57.151352 58.225784L57.641861 58.541138L58.132706 58.821518L58.658188 59.084259L59.218964 59.347000L59.709473 59.557449L60.217636 59.749939L60.760757 59.925095L61.321213 60.100586L61.899628 60.275742L62.495056 60.415939L63.125763 60.573456L63.756790 60.695999L64.422470 60.801224L65.105789 60.906448L65.824081 60.994034L66.542374 61.063965L67.278305 61.116577L68.031570 61.169189L68.785141 61.186844L69.573364 61.186844L70.361908 61.169189L71.150146 61.134232L71.938690 61.081619L72.744553 61.011353L73.533096 60.923782L74.321335 60.818878L75.109879 60.678680L75.898422 60.520844L76.651688 60.363327L77.404938 60.170517L78.158524 59.942749L78.876801 59.714966L79.595093 59.469559L80.278412 59.189484L80.944092 58.909103L81.592453 58.593750L82.223160 58.260742L82.818893 57.910431L83.396988 57.542450L83.957764 57.156845L84.483246 56.753906L84.991409 56.316010L85.481934 55.878098L85.937469 55.404907L86.358063 54.932037L86.760986 54.441208L87.146286 53.933365L87.514252 53.390228L87.864578 52.829468L88.197571 52.251373L88.530563 51.637985L88.828278 51.007278L89.126312 50.359238L89.406372 49.675919L89.669434 48.974945L89.914536 48.239014L90.159958 47.503403L90.387726 46.732498L90.597855 45.961594L90.790665 45.155411L90.983475 44.332214L91.158630 43.508698L91.316147 42.667542L91.456345 41.826706L91.596527 40.968216L91.719086 40.092087L91.841949 39.233612L91.929535 38.375122L92.034439 37.498993L92.104691 36.640518L92.174637 35.782028L92.244888 34.923553L92.297501 34.082718L92.349792 33.241547L92.385086 32.418030L92.420044 31.612167L92.437698 30.823944L92.455017 30.035400L92.472656 29.264496L92.489990 28.511230L92.489990 27.775299L92.507629 27.057007L92.507629 26.338715L92.507629 25.655396L92.507629 24.972076L92.507629 24.306076L92.507629 23.500214L92.507629 22.711990L92.507629 21.941086L92.507629 21.170181L92.507629 20.416595L92.507629 19.663345L92.507629 18.910080L92.507629 18.156509L92.507629 17.385605L92.507629 16.614700L92.507629 15.808838L92.507629 15.002960L92.507629 14.179443L92.507629 13.320969L92.507629 12.444839L92.507629 11.569031L92.507629 10.657928L92.507629 9.764160L92.507629 8.853394L92.507629 7.959610L92.507629 7.083801L92.507629 6.260300L92.507629 5.471741L92.507629 4.753464L92.507629 4.105103L92.507629 3.544647L92.507629 3.071457L92.507629 2.686172L92.507629 2.405777L92.507629 2.195328L92.507629 2.072784L92.507629 2.002853L92.507629 1.967560" style="stroke:rgb(0.000000%,0.000000%,0.000000%); stroke-width: 4.363632;stroke-linecap: round;stroke-linejoin: round;stroke-miterlimit: 10.000000;fill: none;"></path>
</svg>
