<?xml version="1.0"?>
<!-- Created by MetaPost 1.9991 on 2022.02.17:1529 -->
<svg version="1.1" xmlns="http://www.w3.org/2000/svg" xmlns:xlink="http://www.w3.org/1999/xlink" width="101.472336" height="107.612579" viewBox="0 0 101.472336 107.612579">
<!-- Original BoundingBox: -0.277725 -0.277725 101.194611 107.334854 -->
  <path d="M8.409668 105.065521L8.409668 105.030548L8.409668 104.977936L8.409668 104.855392L8.409668 104.680222L8.409668 104.417480L8.409668 104.049515L8.409668 103.611618L8.409668 103.068481L8.409668 102.420135L8.409668 101.684204L8.409668 100.878326L8.409668 99.967239L8.409668 99.003525L8.409668 97.987534L8.409668 96.918594L8.409668 95.815018L8.409668 94.693466L8.409668 93.572235L8.409668 92.433380L8.409668 91.329788L8.409668 90.225891L8.409668 89.139633L8.409668 88.088348L8.409668 87.054703L8.409668 86.056030L8.409668 85.092316L8.409668 84.163895L8.409668 83.270126L8.409668 82.411652L8.409668 81.570801L8.409668 80.747284L8.409668 79.959061L8.409668 79.205490L8.409668 78.452225L8.409668 77.716293L8.409668 76.998001L8.409668 76.297043L8.409668 75.596390L8.409668 74.913071L8.409668 74.212112L8.409668 73.528778L8.409668 72.775528L8.409668 72.004623L8.409668 71.233719L8.409668 70.462814L8.427307 69.691910L8.444641 68.903687L8.444641 68.115143L8.479599 67.326599L8.497253 66.520721L8.532211 65.732498L8.584824 64.908981L8.637436 64.103119L8.690048 63.296921L8.777634 62.473404L8.847565 61.667542L8.952789 60.861664L9.058014 60.073120L9.180573 59.267258L9.320770 58.496353L9.478287 57.725449L9.636124 56.954544L9.811279 56.218933L10.021408 55.483002L10.231857 54.782028L10.459625 54.098709L10.704727 53.433029L10.967789 52.784683L11.230530 52.153976L11.528244 51.558228L11.843597 50.997772L12.158951 50.437012L12.509598 49.911514L12.877243 49.421005L13.262848 48.930176L13.648148 48.474625L14.068726 48.054367L14.524277 47.633789L14.979828 47.248169L15.435364 46.897842L15.925888 46.565170L16.434052 46.232178L16.959534 45.934143L17.520309 45.654068L18.098404 45.373688L18.694138 45.110947L19.324844 44.865524L19.973206 44.637756L20.638885 44.427628L21.322205 44.234818L22.040497 44.042007L22.758774 43.884491L23.512360 43.744308L24.265610 43.604111L25.018875 43.498886L25.807419 43.393982L26.595963 43.306076L27.384201 43.253784L28.172745 43.201172L28.978607 43.183533L29.767151 43.166214L30.555389 43.166214L31.343933 43.201172L32.132156 43.236145L32.885727 43.288757L33.638992 43.358688L34.374924 43.446274L35.093216 43.551498L35.811508 43.656723L36.494827 43.796921L37.160507 43.937103L37.791534 44.094620L38.422241 44.252457L39.017670 44.427628L39.596085 44.620117L40.156540 44.830566L40.699661 45.040695L41.207825 45.268463L41.698334 45.496231L42.259109 45.794266L42.784592 46.091980L43.275436 46.424973L43.765945 46.775299L44.221497 47.125626L44.659393 47.511230L45.079971 47.914169L45.482910 48.352066L45.868210 48.789978L46.236176 49.245529L46.586487 49.736359L46.919495 50.226883L47.217529 50.735031L47.515228 51.260513L47.795624 51.803650L48.058365 52.364426L48.286133 52.924866L48.513916 53.502975L48.724045 54.081390L48.916840 54.659485L49.092010 55.255219L49.267166 55.833328L49.407364 56.429062L49.547546 57.007156L49.670105 57.602905L49.792969 58.163666L49.897873 58.741776L49.985458 59.302216L50.073364 59.862991L50.160934 60.423767L50.248520 60.966888L50.318451 61.510025L50.388718 62.053146L50.458649 62.578629L50.528580 63.104446L50.598846 63.647568L50.668777 64.173050L50.756363 64.698532L50.843933 65.241669L50.931839 65.784790L51.019424 66.327927L51.124329 66.871048L51.247192 67.414185L51.369751 67.957306L51.509933 68.500443L51.650131 69.043564L51.825287 69.604340L52.000458 70.147461L52.193253 70.673264L52.403381 71.198761L52.631165 71.724243L52.858932 72.250046L53.121674 72.740555L53.402069 73.231079L53.699768 73.704269L53.997803 74.177139L54.330811 74.615356L54.681122 75.035614L55.049088 75.456207L55.434387 75.841492L55.837326 76.209457L56.257904 76.577423L56.695801 76.910431L57.151352 77.225784L57.641861 77.541138L58.132706 77.821518L58.658188 78.084259L59.218964 78.347000L59.709473 78.557449L60.217636 78.749939L60.760757 78.925095L61.321213 79.100586L61.899628 79.275742L62.495056 79.415939L63.125763 79.573456L63.756790 79.695999L64.422470 79.801224L65.105789 79.906448L65.824081 79.994034L66.542374 80.063965L67.278305 80.116577L68.031570 80.169189L68.785141 80.186844L69.573364 80.186844L70.361908 80.169189L71.150146 80.134232L71.938690 80.081619L72.744553 80.011353L73.533096 79.923782L74.321335 79.818878L75.109879 79.678680L75.898422 79.520844L76.651688 79.363327L77.404938 79.170517L78.158524 78.942749L78.876801 78.714966L79.595093 78.469559L80.278412 78.189484L80.944092 77.909103L81.592453 77.593750L82.223160 77.260742L82.818893 76.910431L83.396988 76.542450L83.957764 76.156845L84.483246 75.753906L84.991409 75.316010L85.481934 74.878098L85.937469 74.404907L86.358063 73.932037L86.760986 73.441208L87.146286 72.933365L87.514252 72.390228L87.864578 71.829468L88.197571 71.251373L88.530563 70.637985L88.828278 70.007278L89.126312 69.359238L89.406372 68.675919L89.669434 67.974945L89.914536 67.239014L90.159958 66.503403L90.387726 65.732498L90.597855 64.961594L90.790665 64.155411L90.983475 63.332214L91.158630 62.508698L91.316147 61.667542L91.456345 60.826706L91.596527 59.968216L91.719086 59.092087L91.841949 58.233612L91.929535 57.375122L92.034439 56.498993L92.104691 55.640518L92.174637 54.782028L92.244888 53.923553L92.297501 53.082718L92.349792 52.241547L92.385086 51.418030L92.420044 50.612167L92.437698 49.823944L92.455017 49.035400L92.472656 48.264496L92.489990 47.511230L92.489990 46.775299L92.507629 46.057007L92.507629 45.338715L92.507629 44.655396L92.507629 43.972076L92.507629 43.306076L92.507629 42.500214L92.507629 41.711990L92.507629 40.941086L92.507629 40.170181L92.507629 39.416595L92.507629 38.663345L92.507629 37.910080L92.507629 37.156509L92.507629 36.385605L92.507629 35.614700L92.507629 34.808838L92.507629 34.002960L92.507629 33.179443L92.507629 32.320969L92.507629 31.444839L92.507629 30.569031L92.507629 29.657928L92.507629 28.764160L92.507629 27.853394L92.507629 26.959610L92.507629 26.083801L92.507629 25.260300L92.507629 24.471741L92.507629 23.753464L92.507629 23.105103L92.507629 22.544647L92.507629 22.071457L92.507629 21.686172L92.507629 21.405777L92.507629 21.195328L92.507629 21.072784L92.507629 21.002853L92.507629 20.967560" style="stroke:rgb(0.000000%,0.000000%,0.000000%); stroke-width: 4.363632;stroke-linecap: round;stroke-linejoin: round;stroke-miterlimit: 10.000000;fill: none;"></path>
  <path d="M0.000000 107.000000L100.916885 107.000000" style="stroke:rgb(0.000000%,0.000000%,0.000000%); stroke-width: 0.555435;stroke-linecap: square;stroke-linejoin: round;stroke-miterlimit: 10.000000;fill: none;"></path>
  <path d="M0.000000 -0.057129L100.916885 -0.057129" style="stroke:rgb(0.000000%,0.000000%,0.000000%); stroke-width: 0.555435;stroke-linecap: square;stroke-linejoin: round;stroke-miterlimit: 10.000000;fill: none;"></path>
  <path d="M0.000000 107.000000L100.916885 107.000000" style="stroke:rgb(0.000000%,0.000000%,0.000000%); stroke-width: 0.555435;stroke-linecap: square;stroke-linejoin: round;stroke-miterlimit: 10.000000;fill: none;"></path>
  <path d="M0.000000 107.000000L0.000000 -0.057129" style="stroke:rgb(0.000000%,0.000000%,0.000000%); stroke-width: 0.555435;stroke-linecap: square;stroke-linejoin: round;stroke-miterlimit: 10.000000;fill: none;"></path>
  <path d="M100.916885 107.000000L100.916885 -0.057129" style="stroke:rgb(0.000000%,0.000000%,0.000000%); stroke-width: 0.555435;stroke-linecap: square;stroke-linejoin: round;stroke-miterlimit: 10.000000;fill: none;"></path>
</svg>
